<?xml version="1.0" standalone="no"?>
<!DOCTYPE svg PUBLIC "-//W3C//DTD SVG 1.1//EN" "http://www.w3.org/Graphics/SVG/1.1/DTD/svg11.dtd" >
<svg xmlns="http://www.w3.org/2000/svg" xmlns:xlink="http://www.w3.org/1999/xlink" version="1.1">
<metadata>
Created by FontForge 20161013 at Sat Apr  9 00:44:46 2011
 By ,,,
Copyright (c) 2010, Kimberly Geswein (kimberlygeswein.com)
</metadata>
<defs>
<font id="Zeyada" horiz-adv-x="514" >
  <font-face 
    font-family="Zeyada"
    font-weight="400"
    font-stretch="normal"
    units-per-em="1024"
    panose-1="2 0 0 0 0 0 0 0 0 0"
    ascent="819"
    descent="-205"
    x-height="367"
    cap-height="612"
    bbox="-281 -680 1242 934"
    underline-thickness="51"
    underline-position="-152"
    unicode-range="U+0020-FB02"
  />
<missing-glyph horiz-adv-x="384" 
 />
    <glyph glyph-name=".notdef" horiz-adv-x="384" 
 />
    <glyph glyph-name=".null" horiz-adv-x="0" 
 />
    <glyph glyph-name="nonmarkingreturn" horiz-adv-x="384" 
 />
    <glyph glyph-name="space" unicode=" " horiz-adv-x="384" 
 />
    <glyph glyph-name="exclam" unicode="!" horiz-adv-x="190" 
d="M84 574v30q0 21 0.5 44.5t0.5 44.5v29q3 8 7.5 9t9.5 1t10 -1t7 -9q0 -9 -0.5 -28t-0.5 -44v-101q0 -24 0.5 -43t0.5 -28q1 -39 7 -81l12 -82q6 -41 11 -81.5t5 -79.5q0 -5 -0.5 -9.5t-7.5 -7.5q-7 4 -11.5 12t-6.5 14q-28 104 -36 204.5t-8 206.5zM119 26q0 14 9.5 21
t22.5 7q21 0 21 -23q0 -4 -1.5 -9.5t-4.5 -10t-7 -8t-8 -3.5q-12 0 -22 7.5t-10 18.5z" />
    <glyph glyph-name="quotedbl" unicode="&#x22;" horiz-adv-x="270" 
d="M25 720v46q0 15 0.5 30.5t0.5 29.5v20q1 21 11.5 39t33.5 18q0 -47 -5 -92t-5 -90v-45.5t3.5 -41.5t10.5 -39t21 -37q1 -2 4.5 -8.5t3.5 -8.5q-1 -1 -7 -8t-9 -10h-5q-19 0 -29.5 15.5t-16.5 36t-8.5 40.5t-2.5 31v13q0 13 -0.5 29t-0.5 32zM173 832v13q0 8 2.5 14
t7 10.5t13.5 4.5q5 0 10 -19t10.5 -48.5t10.5 -66t9 -73t6 -68t2 -50.5q0 -5 -0.5 -9.5t-8.5 -7.5q-13 7 -23 28t-17 50t-11 62t-6.5 64t-3.5 57t-1 39z" />
    <glyph glyph-name="numbersign" unicode="#" horiz-adv-x="742" 
d="M228 490q-15 0 -28.5 -5.5t-30.5 -5.5q-12 0 -21 2t-9 17v4v4q26 11 43.5 15.5t29 9.5t16 16t4.5 36q-24 0 -48.5 -4.5t-49.5 -10.5t-49.5 -11t-49.5 -7q-3 1 -9.5 8t-7.5 10q-1 0 -1 1v2q0 8 16.5 13.5t41 11t53.5 10t54.5 10.5t42.5 13t19 17q1 6 1.5 20.5t1 31.5t2 36
t5.5 34.5t10 25t16 9.5q1 0 4.5 -3.5t3.5 -5.5v-137q10 0 23.5 0.5t25.5 3.5t20.5 9.5t9.5 19.5q0 12 2 33l3 42q1 21 2.5 37t1.5 18v18t1.5 24t7 20.5t17.5 8.5q10 0 15.5 -7t7.5 -17.5t2 -21v-16.5v-87q0 -5 1.5 -12.5t3 -14.5t3 -12l1.5 -5h9l262 62h8q2 -1 5.5 -4.5
t3.5 -5.5l-9 -8l-235 -70q-22 -6 -31 -12t-11 -15t0 -22t2 -34h179q3 0 13 -4.5t14 -8.5v-2v-1v-2v-1.5v-1.5q-22 -10 -53 -9.5t-62.5 1.5t-59.5 -1.5t-44 -17.5q0 -4 1.5 -15.5t3 -24t3 -24t1.5 -15.5q2 -11 9 -26.5t15 -30.5t14.5 -26t6.5 -12q0 -12 -6 -15t-18 -3
q-15 0 -25 10.5t-17 27t-11 36.5t-7 39.5t-6 35.5t-7 25q-2 -12 -4.5 -31.5t-6.5 -40.5t-10.5 -42.5t-15.5 -39t-21.5 -28t-28.5 -10.5q-14 0 -22 11.5t-12.5 29.5t-6.5 38t-5 38t-8 30t-15 12zM287 458q0 -2 -0.5 -14.5t0.5 -26t5 -24.5t14 -11q11 0 19.5 18.5t14.5 42.5
t9.5 47.5t3.5 35.5h-17q-9 0 -18 -2t-17 -6t-13 -12v-9q0 -7 -0.5 -14.5t-0.5 -14.5v-10zM358 628q-15 -2 -29 -5.5t-25.5 -10t-18.5 -18t-7 -28.5q4 0 16.5 1t27 3t25.5 5.5t11 9.5v43z" />
    <glyph glyph-name="dollar" unicode="$" horiz-adv-x="410" 
d="M248 175q-4 0 -11.5 -0.5t-9.5 -0.5q-4 0 -18 -1.5t-30 -3t-30.5 -2.5t-17.5 -1q-59 0 -86.5 34t-27.5 88q0 32 4.5 58.5t21.5 55.5v-14q0 -25 -4.5 -49.5t-4.5 -49.5q0 -48 27.5 -69t71.5 -21q14 0 36 1.5t42.5 7.5t35.5 19t15 35q0 3 -1.5 10.5t-2.5 15.5t-2.5 15.5
t-2.5 10.5q-35 17 -76 40t-77 53.5t-60 68.5t-24 85q0 29 12 57.5t31.5 52.5t45 43t52.5 28q3 0 14 2.5t25 6t27.5 8t20.5 9.5q1 5 2 19t2.5 29.5t3 29t1.5 18.5q1 7 4.5 19t8.5 23.5t13 19.5t18 8q6 0 10.5 -1t6.5 -8q-7 -17 -12 -31t-8.5 -27t-5 -27t-1.5 -33v-9
q0 -7 0.5 -15t0.5 -14v-9q45 -39 66.5 -92.5t21.5 -113.5q0 -7 -1.5 -14.5t-12.5 -7.5q-18 0 -29 15t-18 34.5t-11 38t-7 26.5l-9 -18q0 -2 -0.5 -12t-0.5 -23.5t-0.5 -27t-0.5 -21.5v-45q0 -25 1 -51t3 -51.5t7 -47.5q7 -14 22.5 -19t32.5 -8t29.5 -9.5t12.5 -24.5v-8.5
t-1 -9.5q-5 -5 -16 -15.5t-24 -23t-23.5 -24t-15.5 -15.5q-1 -2 -4.5 -8.5t-3.5 -9.5v-174q-6 4 -11.5 12t-6.5 14l-26 148h-6q-2 0 -4 0.5t-4 0.5zM52 558q0 -32 19.5 -66.5t49.5 -62.5t66 -46.5t68 -18.5v30q0 22 -0.5 46t-1 45t-0.5 29q0 14 -0.5 33t-1.5 39.5t-2 40
t-2 35.5t-2 26l-1 10l-9 8q-1 2 -11 2.5t-14 0.5q-29 0 -57.5 -13t-51 -33.5t-36 -48t-13.5 -56.5zM314 306q-1 0 -4 -4t-4 -6q0 -1 -1 -7t-1.5 -12t-1.5 -12t-1 -8q6 0 13 1.5t13.5 4.5t10.5 8.5t4 11.5l-1 1v2q-1 0 -1 2q-1 1 -4.5 4t-7.5 5.5t-8 4.5t-6 4z" />
    <glyph glyph-name="percent" unicode="%" horiz-adv-x="472" 
d="M61 34q0 27 3 48t15 48l174 438l35 122l7.5 7.5t10.5 8.5q1 0 2 1l2 1q6 0 9 -4t4 -8.5t1 -10.5v-9q0 -17 -4.5 -34t-11.5 -34.5t-14.5 -34.5t-13.5 -32q-9 -19 -22.5 -53t-30 -73.5t-33 -81t-31.5 -78t-26 -63t-15 -35.5q-1 -4 -6 -18.5t-10.5 -31t-10.5 -32.5t-7 -23
q0 -2 -1.5 -8.5t-3 -14t-3 -13.5t-1.5 -8l-5 -4l-4 -4q-6 1 -8 5.5t-2.5 11t0.5 12zM331 130v7.5t-0.5 10.5t-0.5 10v8q0 18 5 47.5t15.5 57t28 47t43.5 19.5q0 -16 5 -29.5t11.5 -26.5t11 -26t4.5 -29q0 -18 -5.5 -37.5t-16.5 -36t-27.5 -27.5t-37.5 -11q-11 0 -20.5 4
t-15.5 12zM18 511q0 11 3.5 28.5t10 38t15.5 40t20.5 36t25 27t28.5 10.5q21 0 29 -12.5t8 -33.5q0 -24 -7 -52.5t-21.5 -53.5t-36 -42t-50.5 -17q-10 0 -17.5 10.5t-7.5 20.5zM406 262q-10 0 -18.5 -13t-14 -30.5t-8.5 -35.5t-3 -28q14 0 24.5 6.5t18 16.5t11.5 22.5
t4 25.5v9q0 6 -1 12t-4 10.5t-9 4.5zM105 619q-11 -6 -19 -17t-13.5 -24t-8.5 -26.5t-3 -25.5q12 0 21 8t14 20t7.5 25t2.5 23q0 2 -0.5 8.5t-0.5 8.5z" />
    <glyph glyph-name="ampersand" unicode="&#x26;" horiz-adv-x="392" 
d="M253 157q-1 0 -4 0.5t-5 0.5q-21 0 -40.5 -6t-39 -12.5t-40 -12.5t-41.5 -6h-8h-12h-12q-6 1 -8 1q-16 8 -21.5 16t-5.5 22q0 19 13.5 37t31.5 34t37.5 28t31.5 21q-6 -1 -26 -3.5t-41.5 -1t-38.5 9t-17 26.5q0 20 18.5 43t43.5 44t49.5 38.5t38.5 25.5q5 4 18.5 13
t29 18.5t29 18t19.5 11.5q0 4 1 14t2.5 21.5t3 21t2.5 14.5q0 4 3 15.5t5.5 24t5 23t3.5 15.5q1 3 4 9.5t5 8.5h1l3 1q5 0 9 -4.5t7 -10t4.5 -12t1.5 -10.5q0 -14 -3 -26.5t-6.5 -25.5t-6.5 -26.5t-3 -26.5v-14q0 -7 10 -12q2 0 8 1l5 2v39q1 -15 7 -24q7 -10 14 -18.5
t13 -17t6 -20.5q0 -7 -1.5 -11t-3.5 -7.5t-3.5 -8t-1.5 -12.5q0 -19 3 -37.5t6.5 -37.5t6.5 -37.5t3 -37.5t-10 -33t-21 -26.5t-21 -25t-10 -27.5v-184h-9q-2 0 -6 8.5t-8.5 19t-7.5 20.5t-4 13q-2 6 -4.5 19.5t-5 28.5t-5 28.5t-2.5 19.5zM61 322q0 -1 3 -4.5t6 -3.5
q7 1 26 3t39.5 5t39 5.5t25.5 3.5q4 1 11 2t14 2.5t12.5 3t6.5 1.5q2 1 5.5 4.5t3.5 4.5v131q-9 -4 -26.5 -15t-39 -26t-44 -32t-40.5 -33.5t-30 -30t-12 -21.5zM235 280q-1 0 -14 -7.5t-31 -17t-37 -20t-31 -17.5q-9 -5 -19 -11t-18.5 -14t-14.5 -17.5t-6 -20.5q6 0 22 2
t36.5 5.5t44 8t42.5 11t31.5 13.5t12.5 15v70h-18zM315 328q0 -21 -7.5 -42.5t-11.5 -41.5h4.5h4.5q7 0 12 3.5t9.5 9t7.5 12t6 11.5v10q0 8 0.5 17t0.5 17v29q0 14 -0.5 30t-2 33.5t-4.5 32t-8 23.5t-12 9q-8 0 -13 -3.5t-5 -15.5v-96q0 -7 3 -11t6.5 -8t6.5 -8.5t3 -10.5z
" />
    <glyph glyph-name="quotesingle" unicode="'" horiz-adv-x="104" 
d="M7 576v53q0 20 3.5 39.5t12 33.5t24.5 14q14 0 18.5 -5t4.5 -17q0 -19 -4.5 -32.5t-13.5 -33.5v-198q-11 0 -19 10.5t-12.5 27t-7.5 36t-4.5 38.5t-1.5 34z" />
    <glyph glyph-name="parenleft" unicode="(" horiz-adv-x="418" 
d="M18 248q0 26 8.5 77t24.5 111.5t38.5 124t49.5 115.5t58 85t65 33q1 0 4 -3.5t5 -4.5v-10q-2 -2 -5 -8.5t-4 -7.5q-3 -5 -16 -20.5t-28 -33t-27.5 -33t-15.5 -19.5q-29 -41 -51.5 -91.5t-38 -104.5t-24.5 -109t-9 -105q0 -46 15 -81t41 -59.5t60 -40.5t72 -25t77 -11.5
t76 -0.5l9 -8q-5 -9 -17 -13t-18 -5h-14q-9 0 -19.5 -0.5t-20.5 -0.5h-12q-54 0 -105 16.5t-90.5 48t-63.5 78t-24 106.5z" />
    <glyph glyph-name="parenright" unicode=")" horiz-adv-x="314" 
d="M246 388q0 27 -2.5 57.5t-8.5 61t-16.5 59.5t-26.5 53q-8 12 -18.5 25.5t-22.5 26.5t-24 24.5t-22 19.5q-5 4 -19.5 9t-30 11.5t-27 14.5t-11.5 19q0 7 4.5 11t10.5 5.5t13 1.5h13q19 0 40 -12.5t41 -30t36 -35.5t26 -29q23 -27 41 -62t30 -73.5t18.5 -77.5t6.5 -75
q0 -54 -14.5 -103.5t-40 -93.5t-60.5 -82t-77 -70q-4 -3 -13.5 -10t-21 -14.5t-23.5 -13.5t-21 -6q-1 0 -4 0.5t-4 0.5q8 10 13 14t9.5 6.5t11 7t18.5 15.5q41 38 73.5 75.5t55.5 78.5t35 87.5t12 103.5z" />
    <glyph glyph-name="asterisk" unicode="*" horiz-adv-x="488" 
d="M174 174q-1 2 -4 5l-4 5h-9q-4 -1 -18 -2.5t-30 -3t-30.5 -3t-17.5 -1.5h-30q-6 0 -11.5 2t-9 5.5t-3.5 10.5t5.5 11.5t12.5 7.5t15 4.5t12 2.5q8 2 29 7t44.5 10.5t45 10.5t29.5 7q17 12 25 29.5t15 36t15 36t24 29.5q16 -6 19 -20.5t4 -29.5t5.5 -27t22.5 -12
q16 0 30 4.5t28 10t28 10t29 4.5q10 0 18 -2t8 -16q0 -9 -16.5 -27.5t-43.5 -42t-62 -50.5t-71.5 -53.5t-72 -51.5t-64 -44t-47 -30.5t-20.5 -11.5q0 2 1.5 7t2.5 6q1 2 6 6.5t11.5 10.5t11.5 11.5t6 6.5t2 8t2.5 14.5t2.5 14t2 8.5q3 8 10 20t14.5 24.5t15.5 23.5zM262 188
q-31 0 -50.5 -18.5t-19.5 -51.5v-4q1 1 8 4t9 4q6 5 15 13.5t17.5 17l14.5 14.5t6 7v14zM340 254q-19 0 -19 -22q9 0 15.5 7t12.5 14q-1 0 -4 0.5t-5 0.5z" />
    <glyph glyph-name="plus" unicode="+" horiz-adv-x="331" 
d="M148 297q-29 0 -56.5 -5t-56.5 -12q-5 3 -11 11.5t-6 14.5q0 1 3.5 4.5t4.5 3.5q7 2 24 5t37 7.5t37.5 8t23.5 5.5q3 1 9.5 4t8.5 5q-1 10 -0.5 23t4 25.5t11 23t20.5 15.5l13 -9v-78h104q0 -8 -7.5 -12t-13.5 -6q-5 -1 -15.5 -3.5t-23.5 -5.5t-24 -5t-16 -3
q-2 -12 -4 -20.5t-2.5 -16.5t-1 -15.5t-0.5 -17.5q0 -31 5 -62t5 -62q-13 0 -24 6.5t-12 21.5l-18 148h-7q-3 0 -6 0.5t-5 0.5z" />
    <glyph glyph-name="comma" unicode="," horiz-adv-x="151" 
d="M117 -78q0 14 -7.5 31.5t-17.5 34.5t-20.5 31.5t-16.5 23.5v7v7q0 10 4.5 20.5t16.5 10.5q8 0 17 -9t18.5 -24t18.5 -33.5t15.5 -36t10.5 -32.5t4 -23q0 -20 -6 -39.5t-18 -35.5t-29.5 -25t-39.5 -9q0 15 8 26.5t17 22t17 22.5t8 30z" />
    <glyph glyph-name="hyphen" unicode="-" horiz-adv-x="352" 
d="M40 330q0 10 3 15.5t15 10.5q32 -2 60.5 -3t57.5 0.5t59 4.5t66 8h4q8 0 19 -6t11 -15q0 -11 -2 -21.5t-14 -10.5q-9 0 -16.5 5t-15.5 5h-4q-30 -7 -47 -10t-29 -4.5t-20.5 -1t-21 1.5t-31.5 2t-49 1h-8q-4 0 -10 0.5t-11 0.5h-7q-7 3 -8 7.5t-1 9.5z" />
    <glyph glyph-name="period" unicode="." horiz-adv-x="143" 
d="M64 23q0 10 5 20t18 10q11 0 21 -8t10 -19q0 -14 -9 -20.5t-21 -6.5q-14 0 -19 5t-5 19z" />
    <glyph glyph-name="slash" unicode="/" horiz-adv-x="392" 
d="M8 26q11 54 25 106t37 103l226 525l62 60h20q0 -16 -7 -36.5t-19 -43.5t-26 -47t-28 -47t-26.5 -43t-18.5 -35q-57 -126 -110 -252t-100 -255v-11q0 -8 -1.5 -18t-5 -19.5t-10.5 -12.5q-1 -1 -2 -1h-5q-1 0 -2 1t-4 7.5t-5 10.5v8z" />
    <glyph glyph-name="zero" unicode="0" horiz-adv-x="384" 
d="M18 204q0 16 2 52t8 79.5t16.5 89t26 83.5t37.5 62.5t52 24.5q32 0 59 -22.5t48.5 -58.5t39 -80t28.5 -88.5t17 -83.5t6 -64q0 -41 -15 -77t-41.5 -63t-62.5 -42.5t-78 -15.5q-40 0 -67 19.5t-44 49.5t-24.5 66t-7.5 69zM52 225q0 -32 4.5 -64.5t17.5 -58.5t36 -43
t61 -17q37 0 65.5 12.5t48 35t29.5 52t10 63.5q0 24 -1.5 51t-7.5 51.5t-18.5 45t-34.5 31.5q-6 2 -10.5 13.5t-10 27t-11 33t-12 32t-14 24t-16.5 9.5q-22 0 -38 -13.5t-28 -29.5l-8 8q-14 -7 -23.5 -25.5t-16.5 -43.5t-11.5 -54t-7 -56t-3 -49.5t-0.5 -34.5z" />
    <glyph glyph-name="one" unicode="1" horiz-adv-x="96" 
d="M52 542q2 0 5 -0.5t4 -0.5q6 -21 7.5 -35t1.5 -34v-21t-1 -18t-3 -18.5t-5 -22.5v-314q1 -4 4 -13.5t6.5 -21t5.5 -23t2 -20.5h-18q-1 0 -4.5 6t-7.5 14t-8 17t-7 15q0 3 -1.5 8t-3 10.5t-2.5 10.5t-1 7v426q0 10 8.5 19t17.5 9z" />
    <glyph glyph-name="two" unicode="2" horiz-adv-x="410" 
d="M69 34q0 12 0.5 18.5t9.5 17.5q27 38 58 78.5t57 84t43 90.5t17 97q0 48 -26 67.5t-69 19.5q-29 0 -44.5 -11.5t-26.5 -24.5t-22 -24t-31 -11q-12 0 -15 6t-3 17q0 25 17 42.5t40.5 28.5t49.5 15.5t45 4.5q26 0 49 -9t41 -25.5t28 -39.5t10 -52q0 -53 -17.5 -100.5
t-43 -92t-56.5 -87t-58 -83.5q-1 -2 -4 -9t-4 -9q8 -6 12.5 -7.5t12.5 -1.5h5.5h3.5l201 44h40q0 -11 -18 -20.5t-45 -18t-59.5 -16t-61.5 -13t-50.5 -8.5t-27.5 -3h-9q-5 0 -11 0.5t-12 0.5h-7q-15 4 -17 13.5t-2 20.5z" />
    <glyph glyph-name="three" unicode="3" horiz-adv-x="480" 
d="M17 78q0 2 0.5 5t0.5 5q24 -10 43 -20t38 -17.5t40 -12t49 -4.5q34 0 73 9t72 28.5t55 49t22 71.5q0 22 -7 41t-20 33t-31 22.5t-39 8.5q-20 0 -36.5 -8.5t-32 -18.5t-31.5 -18t-34 -8q-7 0 -14.5 1.5t-7.5 11.5q0 11 13.5 24t33 29.5t42 35t42 41t32.5 48t13 53.5
q0 19 -6.5 30t-17 16.5t-25 6.5t-30.5 1q-41 0 -70 -16t-45 -54q-15 2 -20.5 14t-5.5 25q0 24 21 38t49 22t56 10.5t41 2.5q45 0 70.5 -26.5t25.5 -69.5q0 -19 -4.5 -37t-12 -34.5t-17 -33t-19.5 -34.5q27 -9 51 -25.5t41.5 -39t28 -49.5t10.5 -56q0 -45 -25.5 -78.5
t-63 -56t-81 -34t-79.5 -11.5q-16 0 -47 5t-62.5 14.5t-55 24.5t-23.5 35z" />
    <glyph glyph-name="four" unicode="4" horiz-adv-x="402" 
d="M296 322q2 4 -1.5 11t-6.5 7q-6 2 -25 -6t-45 -20.5t-55.5 -27.5t-56.5 -28.5t-48.5 -22.5t-31.5 -9q-14 0 -16.5 6.5t-2.5 16.5t4 18.5t9 16.5t11.5 15t11.5 15q5 9 14.5 25t19.5 32.5t18 30t9 16.5q3 6 11.5 23.5t19.5 42t24.5 52.5t26 55.5t23.5 51t17 37.5
q5 11 8.5 23.5t8.5 23t13.5 17.5t22.5 7q2 0 9 -0.5t8 -0.5q16 -20 30 -41t25 -44t17.5 -47.5t6.5 -49.5q0 -18 -3.5 -33t-7.5 -30l-9 -30q-5 -14 -6 -30q-3 -27 -4.5 -51t-3 -47t-1.5 -46.5v-48.5v-40q0 -16 1 -31.5t2.5 -33t5.5 -43.5q2 -14 6.5 -27t9.5 -26.5t9 -26.5
t4 -26q-21 0 -34.5 18t-22 42t-12 49.5t-4.5 40.5q-1 10 -2.5 35t-3 52.5t-2.5 52.5t-1 34zM87 306h9q1 0 17 6t38 14t45.5 17t38.5 15q9 3 18.5 8.5t17.5 12.5t13 16.5t5 20.5q0 4 -0.5 11.5t-0.5 8.5q-1 6 -2 19.5l-2 27t-2.5 25.5t-2.5 15q-2 9 -4.5 24t-5 28.5t-5 24
l-2.5 10.5l-9 9q-2 -1 -5.5 -6t-8 -10.5t-8 -11t-5.5 -7.5q-2 -4 -8 -16.5t-14 -29.5t-17 -36t-16.5 -36.5t-13.5 -30.5t-9 -17q-3 -6 -12 -21t-18.5 -31.5t-18 -31.5t-12.5 -20v-8zM313 600q0 -9 -1 -25t-0.5 -32.5t4.5 -29.5t15 -15q8 11 13 27t5 29v4q-1 5 -3.5 15.5
t-5.5 22t-6 20.5t-3 12q-1 3 -4 9t-5 9q-9 -9 -9 -23v-23z" />
    <glyph glyph-name="five" unicode="5" horiz-adv-x="436" 
d="M77 96v6t1 8.5t3 7.5t7 4q14 -7 19 -22t11 -29.5t20 -25.5t46 -11q39 0 73.5 21t61 53.5t42 72t15.5 76.5q0 24 -13 41.5t-32 29t-41.5 17t-41.5 5.5q-24 0 -47 -4.5t-46 -9.5t-46.5 -9.5t-47.5 -4.5q-18 0 -27 5.5t-13 15.5t-4 23.5v29.5q0 27 2.5 51.5t12 43.5t27 32
t46.5 18q7 4 21 11.5t32 17t38 20t38 20t32.5 17t21.5 10.5q12 6 21 9t17 5t17 3t20 1t22.5 -1t16.5 -17q1 -3 -7.5 -7.5t-22 -9t-30 -9t-32 -9.5t-29 -9.5t-19.5 -8.5q-7 -4 -20.5 -14t-29.5 -22.5t-34 -26.5t-33 -25t-26 -18t-14 -6q-2 0 -4.5 2.5l-5 5l-5 5t-2.5 3.5h-3
h-1q-1 0 -1 1q-1 0 -2.5 -0.5l-1.5 -0.5q-6 -12 -10 -21.5t-6 -18t-2 -17.5v-20q0 -2 -1 -7t-0.5 -11.5t2.5 -11.5t8 -5q3 0 15 -1t15 -1q36 0 70.5 5.5t70.5 5.5q33 0 63.5 -7.5t54.5 -23.5t38.5 -42t14.5 -62q0 -43 -16.5 -87.5t-45 -81t-68 -59.5t-86.5 -23q-21 0 -42 6
t-38 18.5t-28 30.5t-11 42z" />
    <glyph glyph-name="six" unicode="6" horiz-adv-x="402" 
d="M17 166q0 16 6 53t17.5 83.5t28 95.5t38 89.5t47.5 66.5t56 26v-30l-5 -6.5t-12 -15t-14.5 -17t-12.5 -13.5q-27 -30 -48 -71t-35.5 -86t-22.5 -90.5t-8 -84.5v-15t1.5 -18t5 -16.5t11.5 -12.5q19 14 38 35t37.5 43.5t38 45t41.5 40.5t47.5 28.5t54.5 10.5h15.5t15.5 -1
q10 -7 15.5 -16t8 -19t3 -21t0.5 -21q0 -28 -11.5 -56t-31 -53.5t-44.5 -47.5t-53 -38t-57 -25.5t-55 -9.5q-33 0 -55.5 15.5t-36 39.5t-19 53.5t-5.5 58.5zM95 64q0 -16 12.5 -23t27.5 -7q33 0 71 18t69.5 46.5t53 63.5t21.5 69q0 4 -0.5 15.5t-0.5 15.5q-2 1 -9 4t-9 4h-4
q-14 0 -29 -5.5t-30 -13t-28 -16.5t-22 -17q-7 -6 -23.5 -21.5t-34.5 -34t-33.5 -35t-21.5 -23.5q-6 -11 -8 -19t-2 -21z" />
    <glyph glyph-name="seven" unicode="7" horiz-adv-x="384" 
d="M200 114q0 3 1 12.5t2.5 20.5t3 21.5t2.5 15.5l96 435v33q-26 0 -49.5 -2t-46.5 -6.5t-46.5 -10.5t-49.5 -14q-21 -6 -41 -16t-42 -10q-11 0 -17 3.5t-6 13.5q0 12 23 24t58.5 23t77.5 20.5t81 16t70 11t42 4.5q0 -36 -8 -68.5t-20 -64.5l-96 -454q0 -1 0.5 -10t2 -22
t3.5 -26t3 -21q0 -1 1.5 -6.5l3 -11t3 -10.5t1.5 -7q0 -7 -7.5 -8t-11.5 -1q-7 0 -11.5 7t-7 16t-4 18t-2.5 12q-1 6 -2.5 15.5t-3 19.5t-2.5 17.5t-1 9.5z" />
    <glyph glyph-name="eight" unicode="8" horiz-adv-x="392" 
d="M25 148q0 30 7.5 60t15.5 58t15 54t7 51q0 14 -4.5 24.5t-9 22t-9 23.5t-4.5 28q0 14 4 36.5t12 47t19 49t25.5 44.5t31 32.5t34.5 12.5q14 0 19 -5.5t5 -18.5q0 -1 -0.5 -6t-0.5 -7q-22 -20 -42.5 -39.5t-36.5 -42t-26 -48t-10 -57.5q0 -22 13 -35.5t34 -13.5
q26 0 49 12.5t40 32.5t27.5 45t12.5 50v11t-1.5 21.5t-5 23t-11.5 14.5h-4q-14 0 -30.5 -8.5t-26.5 -17.5q0 1 -0.5 4t-0.5 4q0 10 6.5 19.5t16 17.5t20.5 12.5t20 4.5q15 0 25 -11t16 -26.5t9 -32t3 -26.5q0 -48 -21.5 -89t-49.5 -77q39 5 69 -9t49.5 -40.5t29.5 -60
t10 -66.5q0 -50 -16 -92t-46 -72t-72 -46.5t-94 -16.5q-36 0 -59.5 11t-37.5 30.5t-20 47t-6 60.5zM70 96q10 -29 26.5 -45.5t45.5 -16.5q48 0 84.5 15t62 43t39 65t13.5 81q0 27 -5 50.5t-17 41.5t-31 28.5t-47 10.5q-14 0 -26 -0.5t-23 -3t-21.5 -8.5t-22.5 -17
q-8 3 -10 11.5t-2 14.5h-22q-2 0 -6 -12l-9.5 -28.5t-11 -34t-9.5 -29.5q-8 -30 -8.5 -54.5t-0.5 -54.5v-12t0.5 -17t0.5 -17v-11z" />
    <glyph glyph-name="nine" unicode="9" horiz-adv-x="340" 
d="M113 19q0 4 13 21.5t30 38.5t33 40.5t21 28.5q36 62 54 124.5t18 133.5q0 4 -0.5 15.5t-1 25t-0.5 25.5v16q-6 22 -13.5 42t-22.5 38q-4 4 -11 11.5t-14 14.5t-12 11.5t-6 4.5h-7q0 -17 6.5 -33t14.5 -32t14.5 -33.5t6.5 -36.5q0 -24 -8 -47t-23.5 -40.5t-37.5 -28.5
t-49 -11q-20 0 -38.5 5t-32 15t-21.5 25.5t-8 37.5v5q2 12 6 32t8.5 39.5t7.5 34t3 16.5q1 2 5 10.5t10 20t11.5 22.5t9.5 17q3 7 9.5 17.5t15 20.5t17.5 17t18 7q3 0 13 -4t14 -6q45 -24 75 -52t48.5 -62t26.5 -74.5t8 -89.5q0 -53 -11.5 -102t-31 -94.5t-47 -88
t-59.5 -83.5q-4 -3 -9.5 -9t-11.5 -12t-13.5 -9.5t-13.5 -3.5q-9 0 -11.5 5.5t-2.5 13.5zM61 439q0 -26 17 -37t41 -11q36 0 59.5 22.5t23.5 60.5q0 13 -4.5 35.5t-13.5 43t-23.5 35.5t-33.5 15q-1 0 -2.5 -0.5t-2.5 -0.5q-29 -34 -45 -76t-16 -87z" />
    <glyph glyph-name="colon" unicode=":" horiz-adv-x="88" 
d="M16 130q0 12 10.5 19.5t20.5 7.5t16.5 -4t6.5 -13q0 -13 -7 -25t-20 -12q-11 0 -19 8.5t-8 18.5zM7 366q0 12 7 15.5t17 3.5q3 0 7.5 -0.5t8 -2t5.5 -5.5t0 -11q-3 -11 -10.5 -14.5t-15.5 -3.5q-19 0 -19 18z" />
    <glyph glyph-name="semicolon" unicode=";" horiz-adv-x="96" 
d="M52 -192q2 18 -5 28t-16 17.5t-16.5 14.5t-7.5 19q0 11 6 14.5t17 3.5q14 0 26 -7t21 -18.5t14 -26t5 -27.5q0 -17 -5.5 -38t-16 -40.5t-25.5 -32.5t-35 -13q0 14 5.5 27t12.5 25.5t13 25.5t7 28zM25 83q0 19 10.5 22t28.5 3q0 -8 1 -17.5t-0.5 -18t-6.5 -14.5t-16 -6
q-12 0 -14.5 10.5t-2.5 20.5z" />
    <glyph glyph-name="less" unicode="&#x3c;" horiz-adv-x="376" 
d="M17 69q0 12 17.5 36.5t44 54.5t58.5 61.5t62 57t54 42t35 16.5v-31q-7 -6 -19.5 -19t-29 -29.5l-34.5 -34.5l-34.5 -34.5t-29.5 -30t-19 -19.5q-2 -2 -8.5 -9.5t-13.5 -15.5t-13 -15.5t-8 -10.5q0 -2 -1 -3t-1 -2t1 -3q0 -1 1 -2q2 -2 8.5 -5t8.5 -3q61 -13 125.5 -23
t127.5 -13q2 0 5 -3t4 -5v-1v-2v-1v-1.5v-1.5v-1q-1 -2 -4 -5.5t-5 -4.5q-3 -1 -13.5 -2t-21 -2.5t-21 -2.5t-13.5 -1h-9q-11 0 -34 1.5t-51.5 5t-58 9t-54 13.5t-40.5 17.5t-16 22.5z" />
    <glyph glyph-name="equal" unicode="=" horiz-adv-x="506" 
d="M61 166h12.5h20.5h20h13q14 0 41 -0.5t59.5 -2.5t66.5 -4.5t62 -6.5t46 -8t18 -9q0 -1 -0.5 -1.5l-0.5 -0.5v-3q-1 -1 -4 -4.5t-5 -3.5h-399q0 12 4 19.5t11 12t16 7t19 5.5zM34 304q0 11 7.5 17t18 9.5t20.5 5.5t16 4q8 3 22 5.5t28 5.5t24.5 5t13.5 2h279q2 0 8.5 -3.5
t8.5 -5.5v-2q0 -1 0.5 -1t0.5 -1t-0.5 -1.5l-0.5 -0.5v-3q-1 -1 -4 -4.5t-4 -4.5q-75 -11 -148.5 -12t-148.5 -5q-15 -6 -26 -12.5t-22.5 -11.5t-24 -8.5t-29.5 -3.5q-6 0 -13 1.5t-12.5 4.5t-9.5 8t-4 12z" />
    <glyph glyph-name="greater" unicode="&#x3e;" horiz-adv-x="523" 
d="M113 13q0 3 7.5 11t19 19.5t25.5 23.5t26.5 23.5t22 19.5t13.5 12q4 3 16.5 14t28.5 25t34 30.5t34 31t28 25t16 14.5q6 5 15 14l17 17t14 14.5l6 6.5v26q0 1 -12 4.5t-33 8t-46.5 10t-51.5 11t-50.5 10.5t-41.5 8q-5 1 -26 4t-44.5 6t-43.5 5t-26 3q-10 2 -18.5 3.5
t-14 5t-8.5 10t-3 17.5q0 12 11 14.5t21 2.5q2 0 7 -0.5l5 -0.5l402 -86q4 -2 11 -4t14.5 -5t13 -7t5.5 -10q0 -13 -5 -23.5t-13 -20.5q-5 -5 -15 -15.5t-22.5 -24t-27 -28t-27.5 -27t-23.5 -23t-15.5 -14.5q-6 -5 -19 -16.5t-30 -25.5t-35.5 -30.5t-36 -31t-32 -26.5
t-21.5 -18q-2 -1 -8 -4.5t-13 -7.5t-14 -8.5t-10 -5.5h-4h-4q-3 1 -9.5 4t-7.5 4l-1 2v3z" />
    <glyph glyph-name="question" unicode="?" horiz-adv-x="392" 
d="M182 23q0 7 5 15t12.5 15.5t16 12t15.5 4.5q10 0 12 -10t2 -17q0 -17 -13.5 -30.5t-31.5 -13.5q-11 0 -14.5 6.5t-3.5 17.5zM147 319q0 30 14 55t34 48t44.5 44.5t44.5 45t34 49.5t14 57q0 28 -9 46.5t-24.5 30t-37.5 16.5t-47 5q-30 0 -61 -2t-57 -16q-3 -1 -13 -8
t-13 -10l-3.5 -3.5l-5.5 -5.5t-5.5 -5t-3.5 -2q-6 -2 -14 -1t-15 4.5t-11.5 9t-4.5 14.5q0 11 14.5 20.5t36.5 17t48.5 13.5t51 10t43.5 6t26 2q35 0 62.5 -11t46.5 -31.5t29.5 -48t10.5 -61.5q0 -28 -14.5 -55.5t-36 -53.5t-46.5 -50.5t-46.5 -47.5t-35.5 -45t-14 -42
q0 -16 5 -31t5 -33q-13 0 -22 6.5t-14.5 16.5t-7.5 22t-2 24z" />
    <glyph glyph-name="at" unicode="@" horiz-adv-x="690" 
d="M17 166q0 54 24.5 111t65.5 110t94 100.5t110.5 82.5t115.5 55.5t109 20.5q30 0 55 -11t43 -30t28.5 -45.5t10.5 -55.5q0 -58 -18 -108.5t-51 -88t-81 -59.5t-108 -22h-9.5h-14.5h-14.5h-9.5q-3 2 -9.5 5t-8.5 4q-1 1 -5 3.5t-8 6t-8 6t-5 2.5q-11 0 -21.5 -4.5t-21.5 -9
l-22 -9t-23 -4.5q-9 0 -18 2t-16.5 7t-12.5 13t-5 18q0 19 16.5 45.5t42.5 55t59 56.5t66 50.5t63 36.5t50 14q7 0 20 -1t26 -4.5t23 -10t10 -15.5q0 -16 -13 -36.5t-32.5 -42t-42.5 -43.5t-42.5 -40.5t-32.5 -32.5t-13 -20q0 -7 4 -10.5t10.5 -5t13.5 -1.5h11q50 0 90.5 17
t68.5 47.5t42.5 71t14.5 87.5q0 18 -3 40.5t-11 41.5t-24 31.5t-41 12.5q-50 0 -107 -18.5t-113.5 -51t-108.5 -76t-91.5 -92t-63 -100.5t-23.5 -102q0 -42 13.5 -64.5t34 -37.5t43.5 -29t41 -39q-3 -1 -11.5 -1.5t-11.5 -0.5q-28 0 -54.5 16.5t-46.5 40.5t-31.5 54
t-11.5 57zM467 481q-11 0 -27 -7t-33 -18t-35 -24.5t-34.5 -27t-29.5 -26t-20 -20.5q-6 -7 -14.5 -18.5t-17.5 -23t-15 -19.5t-6 -9v-21q28 0 44.5 3.5t26 10t14 16.5t9 22t10.5 26t19 31t28 29.5t29.5 23.5t29 23t27.5 28q-1 0 -2.5 0.5t-2.5 0.5zM454 402
q-8 -2 -18.5 -9.5t-20 -16.5t-16 -16.5t-6.5 -10.5v-9q3 3 9 7.5t12.5 10.5t13 10.5t8.5 7.5q4 2 10.5 8.5l7.5 7.5v2v1.5v1.5v2v3z" />
    <glyph glyph-name="A" unicode="A" horiz-adv-x="672" 
d="M87 26q0 2 0.5 5l0.5 3q15 29 31.5 56t34 53.5t34 54t30.5 55.5q-4 9 -20 16t-38.5 15t-47.5 18.5t-46 25t-35 34t-14 45.5q0 27 18 47.5t44 34t55 20.5t50 7q44 0 77.5 -15t69.5 -39q12 9 20.5 20t15.5 24q3 7 13.5 25.5t21 39.5t21 39.5t13.5 26.5q8 6 13 7.5t14 1.5
h4.5h4.5q10 -42 15 -86t7.5 -88t4.5 -88t7 -88q3 0 11 -0.5t12 -0.5q14 0 28 3t28 6.5t28.5 6.5t29.5 3h3l4 -4t5 -4q-6 -11 -19.5 -17.5t-30 -10.5t-34.5 -7.5t-32 -8t-23.5 -10.5t-9.5 -17q0 -20 2.5 -40t6 -40.5t6.5 -41t3 -41.5q0 -5 -0.5 -14t-2 -18t-6 -16t-13.5 -7
q-10 0 -18 15t-13 38t-8.5 50.5t-6 53t-5.5 45t-6 25.5q-8 1 -29.5 2t-45 2.5t-44.5 3t-29 1.5h-10q-20 0 -37.5 -18.5t-32 -47t-28.5 -61t-27 -61t-27 -47.5t-30 -19q-11 0 -14.5 8.5t-3.5 18.5zM288 296q8 -5 19.5 -7.5t23.5 -2.5h22.5h18.5q4 0 10 0.5t12 0.5t10.5 0.5
t5.5 0.5l9 8q2 2 -7 18t-22.5 33.5t-26.5 32t-18 14.5q-1 0 -2 -1t-3 -1q-15 -22 -28 -46t-24 -50zM61 408q0 -26 18 -45.5t44 -32.5t55 -19t51 -6q14 0 29 14.5t27.5 33.5t21 39t8.5 31q0 12 -16 22.5t-37.5 18.5t-42.5 12.5t-31 4.5q-15 0 -36.5 -4.5t-42 -13.5
t-34.5 -22.5t-14 -32.5zM375 441q0 -13 10 -32t24 -37t29.5 -31t27.5 -13q0 5 -0.5 15t-1 22t-1 22t-0.5 15q-2 14 -4.5 37t-5 45t-5 39t-3.5 18l-9 17q-1 -1 -4.5 -4t-4.5 -4q-3 -6 -10 -19.5t-15.5 -28.5t-15.5 -29t-10 -19q0 -2 -0.5 -7t-0.5 -6z" />
    <glyph glyph-name="B" unicode="B" horiz-adv-x="576" 
d="M18 157q24 -27 50 -49.5t55 -39t61.5 -25.5t68.5 -9q45 0 90 16.5t81.5 46t59.5 70.5t23 89q0 27 -13 47.5t-33.5 34.5t-46 21.5t-50.5 7.5q-13 0 -32.5 -3.5t-41.5 -9t-45 -13t-43 -16.5t-34 -18.5t-20 -18.5q0 -5 -1.5 -17t-3 -26.5t-2.5 -27t-2 -17.5q0 -6 -2 -14.5
t-4.5 -17t-7 -16.5t-11.5 -13q-14 6 -20 19.5t-7.5 30t-0.5 33t1 27.5q0 10 0.5 33t2 54t5 67.5t9.5 73t15 70t22 60t30.5 42t39.5 15.5q26 0 46.5 -12t35 -30.5t23 -42t8.5 -47.5q0 -19 -7 -36.5t-14.5 -33.5t-14.5 -32t-7 -33q24 0 54 -1t61 -5t60.5 -13.5t52.5 -26
t36.5 -41.5t13.5 -61t-13 -68.5t-35.5 -60.5t-52 -50t-63 -38t-68 -24.5t-66.5 -8.5q-17 0 -42.5 5.5t-52.5 15t-53.5 24t-47.5 31t-34 36.5t-13 42v4zM223 620q-13 0 -23 -13t-17.5 -33.5t-12 -45t-8 -48t-4.5 -42.5t-1 -28v-10.5v-15.5v-15.5v-10.5q24 16 46 35t39.5 40.5
t28 47t10.5 56.5q0 14 -3 29t-9.5 27t-18 19.5t-27.5 7.5z" />
    <glyph glyph-name="C" unicode="C" horiz-adv-x="462" 
d="M25 188q0 23 3 59.5t10.5 79t20.5 85t31.5 77.5t43.5 57t58 22q40 0 68.5 -23t47 -56.5t28.5 -71.5t13 -68q-2 -12 -11 -19.5t-19 -7.5h-5q-1 2 -4 5l-4 4q0 3 -0.5 7.5t-0.5 10.5t-0.5 10.5t-0.5 6.5q0 19 5 34t5 31v5q-12 14 -24 29.5t-25.5 28.5t-29.5 21.5t-36 8.5
q-25 0 -45.5 -18.5t-35.5 -47t-26 -64t-18 -70t-10 -64t-3 -46.5q0 -39 9 -72t29 -57t49.5 -37.5t70.5 -13.5q21 0 44 4t45.5 11t44 17t39.5 22q2 0 7 4t10.5 8.5t11 8t6.5 5.5q1 0 4.5 0.5t4.5 0.5q2 0 5 -0.5t4 -0.5q-5 -21 -19 -37.5t-33.5 -29.5t-43.5 -22t-48 -15
t-45.5 -8.5t-38.5 -2.5q-43 0 -78.5 13t-61 37t-39 59t-13.5 80z" />
    <glyph glyph-name="D" unicode="D" 
d="M148 8q-6 5 -22.5 17.5t-34.5 27t-34 26.5t-22 17q-9 7 -14.5 12.5t-5.5 18.5q15 0 26 -7.5t21.5 -16t22 -15.5t26.5 -7q0 10 0.5 35.5t1 54.5t1 54.5t0.5 36.5q0 4 -1.5 19.5t-3 33t-3 32.5t-1.5 19q0 2 1 11.5t3 19.5t3.5 19t1.5 11v22v23q0 2 -1.5 12t-3.5 22t-3 22
t-1 13q0 4 1 14t2 21t2.5 21t3.5 13q15 13 23 16t23 3q42 0 83 -15.5t78 -42.5t67.5 -63t53 -76t35.5 -82.5t13 -81.5q0 -45 -18.5 -93t-50.5 -87t-74.5 -64t-90.5 -25q-14 0 -27 2t-26.5 4t-27 3.5t-27.5 -0.5zM175 52q0 -1 3 -4.5t6 -4.5q2 -1 8.5 -3.5t15 -5.5t16.5 -5
t11 -3h6q25 0 51 12.5t50 32.5t44 46.5t35 54.5t24 56t9 52q0 29 -12 63t-32.5 68t-47.5 65.5t-57.5 55.5t-62 38.5t-61.5 14.5q-7 0 -14 -0.5t-13 -2.5t-10.5 -7t-4.5 -14v-34t1.5 -34.5t5 -34t11.5 -31.5z" />
    <glyph glyph-name="E" unicode="E" horiz-adv-x="584" 
d="M88 184q-14 7 -20.5 14t-6.5 20q0 7 2.5 12t6 9.5t6.5 9.5t3 12q0 12 0.5 28t-1.5 32.5t-7.5 31t-18.5 23.5q3 1 9.5 7.5l8.5 8.5v2v1v2q0 13 -6.5 18t-15 7t-17.5 4t-13 10q11 15 36 26t56.5 19.5t66 14.5t67.5 10.5t59 6t41 1.5h23q9 0 23.5 -1.5t28.5 -3t24.5 -2.5
l10.5 -1l9 -8l-9 -10q-87 -3 -167.5 -11.5t-164.5 -31.5q-1 -2 -2 -8t-2.5 -13t-2.5 -13.5t-1 -8.5v-6.5t0.5 -9.5t0.5 -9v-7q82 0 162 7.5t162 7.5h12t10.5 -1.5t7.5 -6t3 -12.5q0 -5 -24.5 -14t-61.5 -20.5t-80.5 -25.5t-80.5 -29t-61.5 -31t-24.5 -31v-3v-1q1 -1 5 -4.5
t4 -5.5q0 -1 1 -1v-2q0 -1 1 -1l-0.5 -0.5t-0.5 -1.5q-1 -1 -1 -2t-4 -4.5t-5 -3.5q-1 -3 -4.5 -10t-3.5 -8q0 -33 11.5 -56.5t30.5 -38t44.5 -21.5t53.5 -7q39 0 71 11t60 30t53.5 44.5t50.5 55.5q1 0 3.5 5t5.5 10.5t5.5 11t2.5 7.5q0 1 0.5 4.5t0.5 5.5q0 6 -3.5 9.5
t-8.5 5.5t-10.5 2.5t-11.5 0.5q0 14 13 19t26 5q15 0 22.5 -10t7.5 -25q0 -28 -15 -56.5t-39 -55t-55.5 -49t-64.5 -39t-65 -26.5t-58 -10q-44 0 -73 14.5t-49 40t-31.5 59t-20.5 71.5zM112 352q0 -21 2 -36q1 -14 2.5 -25t5.5 -11h9q1 0 13 4.5t28.5 11.5t34 14.5
t28.5 11.5q3 1 7.5 4t10.5 5.5t10.5 5.5t7.5 3q-18 5 -39 7.5t-42.5 3.5t-42 1h-35.5z" />
    <glyph glyph-name="F" unicode="F" horiz-adv-x="462" 
d="M96 244h-11.5h-18.5h-19h-12q-12 2 -15 5.5t-3 11.5t10 16t23.5 15.5t26.5 15t19 14.5v11q0 7 0.5 15.5t0.5 15.5v43q0 15 -1.5 29t-3.5 29q-1 10 -3 22v-5q-1 -5 -4 -7.5t-7.5 -3.5t-10.5 -1q-12 0 -22 8.5t-10 23.5q0 20 18.5 37t47 31.5t64 25.5t69.5 18.5t64 11
t47 3.5h13q9 0 19.5 -0.5t19.5 -0.5h13q36 -11 36 -46v-10q0 -7 -1 -14t-3.5 -12.5t-8.5 -5.5q-2 0 -3.5 0.5t-2.5 0.5q-3 12 -7 23q-4 9 -8.5 17.5t-9.5 12.5h-10q-7 0 -14.5 0.5t-14.5 0.5h-10q-21 0 -53.5 -3t-65 -12t-59.5 -25t-36 -41v-14v-22v-22v-15v-64t9 -63
q2 0 7 -0.5t6 -0.5q27 0 54 6t53.5 13t53.5 12.5t55 5.5q4 0 14 1t20.5 -0.5t19 -5.5t8.5 -14q0 -1 -1.5 -4t-1.5 -5q-6 0 -19.5 -1t-28.5 -2t-28.5 -2.5t-19.5 -2.5q-3 -1 -17 -4t-30.5 -7.5t-32.5 -8.5t-25 -6q-5 -2 -16.5 -5.5t-24 -7.5t-23.5 -8t-14 -5l-4 -4l-5 -5v-7
v-10.5v-10.5v-7v-41.5t2.5 -45t8 -43t16.5 -36.5l4 -3t8.5 -5.5t8.5 -5.5t5 -4v-4q0 -2 0.5 -3.5t0.5 -3.5q0 -14 -5 -19t-19 -5q-17 0 -28 14.5t-18.5 37t-11 51t-7 55.5t-7 50.5t-10.5 36.5z" />
    <glyph glyph-name="G" unicode="G" horiz-adv-x="654" 
d="M468 182q-68 -54 -135 -101t-144 -83q-8 2 -15 1t-13.5 -3.5t-14 -4.5t-14.5 -2q-20 0 -38.5 8t-32.5 21.5t-22 31.5t-8 38q0 60 25.5 116.5t63 108t82.5 98t83 85.5l-27 18l9 8q22 -1 40 4.5t34 12.5t32.5 13t36.5 6h12t10.5 -1.5t7 -5.5t2.5 -11q0 -3 -16 -14.5
t-42.5 -30t-60.5 -43.5t-69.5 -56t-69 -66.5t-60.5 -74t-43 -80.5t-16 -85q0 -17 7 -27.5t17.5 -17.5t24 -9.5t26.5 -2.5q44 0 92 23t93 56t84.5 71t67.5 69q6 6 7.5 12t1.5 14q0 2 -0.5 5l-0.5 3q-30 -6 -56 -13.5t-51.5 -16t-50 -18t-51.5 -21.5h-2q0 -1 -3 -1q-8 0 -11 6
t-3 12q0 11 16.5 22.5t38.5 21t44 16.5t33 10q3 1 17.5 5t30.5 8.5t30 8l18 4.5q8 2 14 6.5l12 9t12 8t15 3.5q5 0 9.5 -1t7.5 -8h157q1 0 5 -1t8.5 -2.5t7.5 -3t5 -1.5q0 -1 1 -2v-1.5v-1.5v-1.5v-1.5q-1 -1 -1 -2q-1 -2 -4 -5t-4 -3q-8 0 -26.5 -1.5t-39.5 -3t-39.5 -2.5
t-25.5 -2q-22 -3 -34 -9t-19 -26q-11 -37 -17 -68.5t-8.5 -61.5t-2.5 -62v-70v-24t0.5 -37.5t1 -36.5t0.5 -24q1 -6 5 -21t8.5 -31.5t7.5 -31.5t5 -21q1 -2 1.5 -10.5t0.5 -11.5q-16 0 -27.5 12t-19.5 31t-12.5 42t-7 45t-3.5 40t-1 27q-1 12 -1.5 41.5t-0.5 63t0.5 63
t1.5 41.5z" />
    <glyph glyph-name="H" unicode="H" horiz-adv-x="488" 
d="M376 454q-28 -15 -57 -27.5t-58 -24.5t-57.5 -24.5t-55.5 -28.5v-7.5v-12v-12v-7.5q0 -47 3.5 -95t14.5 -93q0 -1 3.5 -8.5t5.5 -9.5v-4v-4q0 -6 -3 -12.5t-11 -6.5q-10 0 -17.5 13t-13 32.5t-9 42t-5 42t-2 33l-0.5 13.5q-2 8 -3.5 19.5t-2.5 22.5t-2 19l-1 8l-9 13h-70
l-8 23q14 8 27 11.5t22.5 9t15 14t5.5 25.5q0 21 -5.5 42.5t-12 42t-12.5 41.5t-6 40q0 7 1.5 15t4.5 14.5t7.5 11t13.5 4.5q13 0 20 -17t11 -42.5t6 -54.5t5.5 -54.5t9 -42.5t17.5 -17q10 0 16.5 2.5t19.5 6.5q12 5 31.5 11.5t41.5 15t44.5 19t41.5 24t32.5 28.5t17.5 33
q1 9 1.5 27.5t3.5 37.5t11 33.5t24 14.5q7 0 11.5 -6t7 -14.5t2.5 -16.5v-13v-6.5v-9v-8v-4.5l-3 -48t-4.5 -72.5t-5 -85.5t-5.5 -85t-5 -72t-4 -47q0 -5 1.5 -17.5t3 -26.5t3 -26.5t1.5 -17.5q2 -11 7 -20.5t9.5 -19.5l9 -20t4.5 -22q-15 0 -29 14.5t-24.5 34t-17.5 39
t-7 30.5v340h-12z" />
    <glyph glyph-name="I" unicode="I" horiz-adv-x="130" 
d="M35 166q-7 96 -12.5 186t-5.5 185v9t0.5 14.5t0.5 14.5v9q1 7 7 17.5t14 10.5q7 0 11.5 -6t6.5 -14t3 -15t1 -9q1 -8 2.5 -24.5t2.5 -34.5t2.5 -34t1.5 -21v-27v-47v-57.5v-57.5v-46.5v-26.5q0 -26 7.5 -50.5t15.5 -49t15 -49t7 -49.5q-12 0 -22.5 11t-19 27.5t-15 36.5
t-11.5 39t-8 34.5t-4 23.5z" />
    <glyph glyph-name="J" unicode="J" horiz-adv-x="550" 
d="M244 -301q0 22 1 47t5.5 50.5t13.5 49t24 41.5q10 11 32.5 29.5t46.5 39.5t42.5 40.5t18.5 34.5q0 3 -0.5 11t-0.5 11q-12 2 -35 5t-52 7.5t-61.5 9t-61.5 9t-52 7.5t-35 5q-6 1 -22 2.5t-34 3t-34 2.5t-23 1q-7 2 -8.5 7.5t-1.5 11.5q0 9 3 10.5t16 4.5q5 3 25.5 9
t44 13.5t44 14t26.5 8.5q15 5 37.5 13.5t46.5 20t48 25t43.5 29.5t31.5 33t12 36q0 25 -3 49t-7 48.5t-7 48.5t-3 48q0 10 2 19t17 14q19 -12 28 -29.5t13.5 -38.5t8 -42t11.5 -39l30 -401h57q-4 -7 -12.5 -11.5t-17.5 -8t-15.5 -8t-6.5 -11.5q0 -42 2.5 -84.5t6 -84.5
t6.5 -84.5t3 -84.5v-30t-0.5 -36t-0.5 -31.5v-14.5q-1 -14 -2 -34t-4.5 -42.5t-9.5 -45.5t-15 -41.5t-23 -31.5t-33 -14q-43 32 -74.5 76t-52 94t-30 103.5t-9.5 105.5zM277 -293q0 -45 7 -91.5t22.5 -91.5t41 -84t62.5 -69h2h2q10 0 17 12t11.5 28.5t7 32t4.5 23.5
q0 6 1.5 18t3 25t2.5 23t1 13v15t0.5 30t0.5 34.5v27.5q0 73 -1.5 147.5t-16.5 146.5q-1 3 -4 10t-5 8h-1q-1 0 -2 0.5t-2 0.5q-26 0 -47.5 -14t-38.5 -36.5t-29.5 -51.5t-21 -57.5t-13 -55t-4.5 -44.5zM174 124q26 0 52 -3t51.5 -6.5t51 -6.5t51.5 -3q12 0 19 1t19 8
q0 3 0.5 12.5t0.5 12.5q0 6 -0.5 15.5t-0.5 11.5q-1 11 -3.5 27t-5.5 31.5t-5 26.5t-3 11h-17q-50 -35 -102.5 -65.5t-107.5 -57.5v-15z" />
    <glyph glyph-name="K" unicode="K" horiz-adv-x="506" 
d="M26 523q0 12 4 15.5t13 3.5q12 0 17.5 -8t9.5 -20q0 -12 -0.5 -37t-0.5 -56.5v-66.5v-67t0.5 -57.5t0.5 -37.5q0 -5 1 -20t2 -31.5t2.5 -31.5t2.5 -21q1 -3 4.5 -10t5.5 -8q0 -1 1 -1h2q6 0 20.5 23t33 59t41 80t45 87t44 79t39.5 57h2.5h2.5q9 0 11 -7.5t2 -15.5
q0 -25 -14 -51t-30.5 -57t-30.5 -66t-14 -78v-9.5t0.5 -14.5t0.5 -15v-10q7 -25 28.5 -41t49.5 -25t59.5 -13t57.5 -6t43 -5t17 -9q0 -3 -1 -5q-24 -9 -46 -9h-46q-53 0 -86.5 6t-56 22.5t-38.5 45.5t-33 75q-12 -7 -20 -22t-14.5 -33.5t-12 -38.5t-13.5 -36t-20 -26.5
t-29 -10.5q-16 0 -26 16t-15 36.5t-6.5 39t-1.5 23.5z" />
    <glyph glyph-name="L" unicode="L" 
d="M25 246q0 75 6.5 148t20.5 147q3 12 6 19.5t7.5 12t12 6t19.5 1.5v-15.5t-1 -14.5q-1 -7 -3.5 -28.5t-6.5 -50.5t-8 -61t-7.5 -61t-6.5 -50.5t-3 -28.5v-8q0 -48 12.5 -89.5t38.5 -72.5t64 -48.5t89 -17.5q30 0 59.5 6.5t58.5 15t57.5 15.5t57.5 7h8l-8 -17q-1 0 -8 -3
t-17 -7.5l-20 -9t-17 -7.5q-43 -16 -86.5 -25.5t-90.5 -9.5q-60 0 -104 17t-73 49t-43 77.5t-14 103.5z" />
    <glyph glyph-name="M" unicode="M" horiz-adv-x="760" 
d="M607 454q-11 -4 -14.5 -10.5t-7.5 -16.5q-2 -4 -8 -18.5t-14 -34.5t-17.5 -42t-17.5 -42l-14 -35l-8 -20q-7 -16 -17.5 -37t-25 -40t-32 -32t-38.5 -13q-33 0 -53 25.5t-30.5 66t-14.5 91t-6.5 98.5t-5.5 90t-12 66h-3h-2h-1h-1h-2q-10 -6 -18.5 -18t-15.5 -25.5
t-11.5 -25.5t-6.5 -19l-114 -366q-1 -3 -3 -8t-5.5 -9.5t-8 -7.5t-9.5 -1q-3 0 -7.5 4.5t-8.5 10t-7 11t-4 8.5q-15 101 -17 206t0 204l-4.5 9t-3.5 9q0 7 4.5 14.5t11 14.5t14 11.5t13.5 4.5q10 0 14 -5.5t4 -15.5q0 -54 -5 -107t-5 -108v-20t0.5 -25.5t0.5 -22.5v-11
l9 -36q1 2 4.5 5t4.5 4q2 4 7 15t10.5 23.5t10.5 24t6 16.5q2 5 7 18.5t12 33t15.5 40.5t15.5 40t12.5 33t7.5 19q4 8 12.5 28.5t21 41t27 36.5t30.5 16q15 0 23 -20t12.5 -52.5t6.5 -74t3.5 -85.5t5 -85.5t10.5 -74t19.5 -52.5t33.5 -20q6 0 13.5 6.5t14.5 15.5t12.5 18
t7.5 14q7 13 20 41t29.5 63t34.5 74t34 74.5t29 63.5t19 42q5 12 13.5 33t12.5 36q12 -2 24 -7t12 -18q0 -2 -0.5 -5.5t-0.5 -4.5q-14 -82 -20.5 -159.5t-6.5 -159.5v-24.5t0.5 -38t0.5 -38v-25.5q5 -41 29 -75t49 -64v-23q-9 0 -22 9.5t-26 24.5t-25.5 34t-22 37t-15.5 33
t-6 24v297z" />
    <glyph glyph-name="N" unicode="N" horiz-adv-x="576" 
d="M114 392l-2.5 -17t-5 -41t-5.5 -48.5t-5 -41.5v-9q-2 -9 -5.5 -32.5t-7.5 -50t-8 -50t-5 -32.5q-3 -12 -11.5 -19.5t-20.5 -7.5q-6 0 -8.5 4.5t-3.5 11.5t-1 13.5v9.5q0 54 5 112.5t14 117.5t22 117t30 112q1 5 4.5 7t8 2h9h6.5h4.5h4.5h6l1.5 -4.5t3 -10.5t3 -11.5
t1.5 -9.5q6 -27 18 -72t30.5 -97.5t42 -106.5t52 -97.5t60.5 -70.5t67 -27q17 0 31 12t24.5 31.5t18 43.5t13 46.5t8 42t2.5 29.5q0 79 -16.5 153.5t-44.5 148.5q-6 8 -18 15t-18 11q3 7 8 8t11 1q19 0 34.5 -23t28 -58t22.5 -77t16 -81t9 -70t3 -42q0 -32 -5.5 -72.5
t-20.5 -76.5t-41.5 -61t-68.5 -25q-38 0 -70.5 24.5t-60 63t-51 86t-43.5 93t-36.5 84t-30.5 60.5z" />
    <glyph glyph-name="O" unicode="O" horiz-adv-x="472" 
d="M17 170q0 29 6.5 65t19 72.5t32 70.5t45 61t56.5 43t68 16q32 0 59 -14.5t49.5 -37t39.5 -52.5t29 -61.5t18.5 -62t6.5 -55.5q0 -35 -12 -65t-32.5 -54t-48 -42t-58.5 -30.5t-63.5 -18.5t-64.5 -6q-43 0 -71.5 12t-46 34.5t-25 54t-7.5 70.5zM52 148q0 -28 9 -48.5
t25 -33t38 -18t49 -5.5q42 0 85 9.5t77 31t55.5 55t21.5 81.5q0 30 -11.5 72t-32.5 80t-51.5 64.5t-67.5 26.5q-17 0 -28.5 -1.5t-28.5 -7.5v-5v-4q0 -1 1.5 -5t3.5 -8.5t3 -8.5t1 -5q0 -9 -5 -13.5t-11.5 -6.5t-14 -3t-13.5 -3q-33 -14 -53.5 -42t-32 -62.5t-15.5 -71.5
t-4 -68z" />
    <glyph glyph-name="P" unicode="P" horiz-adv-x="418" 
d="M79 226q-7 3 -18 8.5t-21 12.5t-17.5 15.5t-7.5 18.5q15 0 27.5 -5t25.5 -5q0 72 -3.5 143t-3.5 144v14v21v21.5v13.5q6 36 29.5 54t59.5 18q23 0 50.5 -12t55.5 -31t54.5 -44.5t46.5 -53t32.5 -54.5t12.5 -51q0 -67 -19 -111t-54 -71t-83.5 -41t-106.5 -21
q3 -23 5 -42.5t3 -38l2 -37t1 -38.5q0 -5 -0.5 -14t-2.5 -18t-6.5 -16t-13.5 -7q-4 0 -8 3t-7 7.5t-5 9t-2 7.5zM121 379q0 -16 -2 -38t0 -41.5t12 -33.5t34 -14q40 0 75 14.5t61.5 40t41.5 60.5t15 75q0 22 -9.5 47t-25.5 50t-37.5 47.5t-45 40t-47.5 27.5t-45 10
q-18 0 -30 -11t-19 -27.5t-9.5 -35.5t-2.5 -33q0 -22 7 -31t15.5 -13.5t15.5 -8.5t7 -15t-2.5 -18t-7.5 -17v-15.5t-0.5 -22t-0.5 -22v-15.5z" />
    <glyph glyph-name="Q" unicode="Q" horiz-adv-x="628" 
d="M433 192q-9 0 -20.5 -5.5t-22.5 -13t-21.5 -14.5t-19.5 -11q-18 -8 -34 -13t-31.5 -8t-32 -4.5t-37.5 -1.5q-40 0 -69 7t-47.5 23t-27.5 44t-9 70q0 31 4.5 59t4.5 58q0 14 -8 28t-18 27.5t-18 28.5t-8 32q0 40 14 72.5t38 57.5t56 43.5t67.5 30.5t71.5 17.5t70 5.5
q58 0 100.5 -23t70.5 -60.5t41.5 -86.5t13.5 -101q0 -36 -10 -66t-22 -59.5t-22 -59t-10 -63.5q0 -31 3 -61.5t23 -56.5q5 -6 16.5 -15t24.5 -19t23.5 -19.5t14.5 -16.5v-2v-3h1q0 -1 -0.5 -1.5t-0.5 -1.5v-2l-4 -4l-4 -4h-5q-25 0 -45.5 14t-36 35.5t-27.5 46.5t-21 46
t-15.5 35.5t-10.5 14.5zM87 267q0 -30 10.5 -51t28.5 -34.5t41.5 -19.5t50.5 -6q23 0 58.5 8t69 23t58 36t24.5 47q0 24 -1.5 43.5t-7.5 44.5h-11h-11q-37 0 -73.5 -5t-74.5 -5h-36.5t-32.5 1.5t-31.5 5t-34.5 11.5q-8 -17 -13 -29t-8.5 -22.5t-4.5 -22t-1 -25.5zM499 460
q0 -18 -4 -34t-9 -31.5t-8.5 -32.5t-3.5 -40h15q7 0 14 18.5t11.5 42t7 44.5t2.5 27q0 39 -8 80.5t-27 76.5t-50 57.5t-77 22.5q-10 0 -20.5 -1t-18.5 -10q13 -4 25.5 -11.5t22.5 -18t16 -24t6 -28.5v-4q-2 -2 -5 -5.5t-4 -4.5l-53 53h-1q-1 0 -1.5 0.5t-1.5 0.5
q-18 0 -38 -12.5t-38.5 -30t-33.5 -37.5t-25 -35q-4 -6 -12.5 -20.5t-18.5 -31.5t-18.5 -32t-11.5 -21l-0.5 -1.5l-0.5 -1.5q0 -14 17.5 -22t39.5 -11.5t42.5 -4.5t26.5 -1q3 0 16 1t31.5 2.5t39.5 4t39 5t29.5 6t11.5 7.5v112q0 5 5 7t10.5 2.5t10.5 0.5h5q14 0 22.5 -5.5
t13.5 -15t7 -20.5t2 -23zM52 498q0 -6 3.5 -16.5t9 -20.5t13 -17.5t14.5 -7.5h2h2q1 1 4 4.5t5 4.5q20 32 39 63.5t39.5 61.5t43.5 57.5t53 52.5q-3 0 -9.5 0.5t-8.5 0.5q-36 0 -73.5 -14.5t-67.5 -39t-49.5 -58t-19.5 -71.5z" />
    <glyph glyph-name="R" unicode="R" 
d="M114 184q-1 0 -2 -6l-2.5 -15l-3 -18l-2.5 -15q-1 -4 -2 -16.5t-2.5 -26.5t-2.5 -26t-1 -18l-4 -4t-4 -5h-3h-2h-3h-2l-9 9t-8 9q-2 8 -5.5 28t-8 42t-8 42t-5.5 28v8q0 7 -0.5 27t-1.5 47t-2 57t-1.5 57t-1.5 47t-1 27v6q0 40 14.5 79.5t40 71.5t61 52t77.5 20
q23 0 45 -9t39 -24t27.5 -36t10.5 -45q0 -35 -17 -67t-42.5 -60t-55 -53t-55 -47t-42.5 -42t-17 -38q0 -14 12.5 -31.5t32 -36t43.5 -36t47.5 -33t43.5 -27.5t31 -18q4 -3 16 -9t26.5 -13t27 -13.5t18.5 -9.5q9 -3 23.5 -4.5t29.5 -3.5t25.5 -6.5t10.5 -15.5q0 -1 -0.5 -1.5
t-0.5 -1.5v-2q-2 -1 -5 -4t-5 -4h-5.5t-9.5 -0.5t-9.5 -0.5h-6.5q-46 0 -92 18.5t-89 46t-82 59.5t-72 61h-8zM95 526q0 -21 -1 -44.5t-0.5 -46.5t5 -45t15.5 -41q9 6 27 20.5t39.5 34t44 42.5t40.5 45.5t30 43.5t12 36q0 23 -9 37.5t-23 23t-32 11.5t-37 3q-57 0 -84 -33
t-27 -87z" />
    <glyph glyph-name="S" unicode="S" 
d="M18 226q0 23 12.5 38.5t30.5 24.5t39 13t39 4q4 0 14 -4t13 -6v-1v-2q0 -9 -7.5 -13t-19.5 -6.5t-25.5 -4.5t-25.5 -7t-19.5 -14t-7.5 -25q0 -22 21 -45t53.5 -43t72.5 -37.5t78 -30t69 -19t47 -5.5q3 0 10.5 2.5t15.5 5.5t15.5 6t10.5 4q0 2 0.5 8.5t0.5 8.5
q0 12 -3 20.5t-8.5 16t-14 15t-19.5 18.5l-27 27t-41 40.5t-48.5 47t-49.5 47t-42 40t-27 26.5q-29 37 -45.5 73t-16.5 83q0 42 16.5 76t54.5 56h8h13h13.5h8.5q28 0 59 -10.5t57 -29.5t43 -46t17 -59q0 -4 -1 -12.5t-9 -8.5q-15 0 -26.5 9.5t-22 24.5t-20.5 31.5
t-22.5 31.5t-29 24.5t-37.5 9.5q-16 0 -32 -9.5t-28 -23.5t-19.5 -31t-7.5 -32q0 -22 6 -45.5t17 -45t25.5 -41t30.5 -35.5l236 -227q15 -13 25.5 -35t10.5 -42q0 -16 -7 -28t-18 -19.5t-25.5 -11t-29.5 -3.5h-9q-8 1 -25 5.5t-35 8.5t-33.5 7.5t-19.5 4.5q-16 5 -42.5 15.5
t-57.5 25t-63 33t-57.5 39.5t-42 43.5t-16.5 43.5z" />
    <glyph glyph-name="T" unicode="T" horiz-adv-x="594" 
d="M340 43q0 12 -1 37.5t-1.5 57t-2 67t-2 67.5t-1.5 57t-1 37q0 9 0.5 23t-1.5 26t-8 21t-20 9q-37 0 -73.5 -3.5t-72 -12.5t-68.5 -24.5t-62 -38.5q-4 1 -10.5 7.5t-7.5 10.5q-4 16 15.5 31t53 28t74.5 23t79 17.5t68.5 11.5t41.5 4q9 0 13.5 -2t12.5 -9h213
q0 -7 -7.5 -11.5t-17.5 -8t-19 -5t-12 -1.5q-7 -1 -26 -2t-39.5 -2.5t-39 -2.5t-26.5 -1q-7 -3 -14 -7t-12 -11q1 -5 2.5 -17.5t3 -26t2.5 -26t1 -17.5v-27v-49.5v-59.5v-59v-48.5v-27.5q0 -2 1 -11t2.5 -19.5t3 -19t2.5 -10.5v-6q0 -8 -5.5 -10.5t-12.5 -2.5q-8 0 -13 4.5
t-7.5 11.5t-3.5 14.5t-2 13.5z" />
    <glyph glyph-name="U" unicode="U" horiz-adv-x="392" 
d="M39 446q5 0 9.5 -4.5t7 -10.5t4 -12t1.5 -9v-226q0 -23 9 -47.5t24 -45.5t35 -34.5t44 -13.5q31 0 55 15t42.5 39t32 55.5t22 63t12 61.5t3.5 54v29.5t-2.5 46t-6.5 52.5t-12 48t-19.5 33.5t-28.5 9.5l-1 1.5t-1 2.5q0 11 9.5 17t18.5 6q13 0 23 -9t18 -22.5t13 -31
t8.5 -34t5 -30.5t2.5 -23v-12.5v-26.5v-31v-26v-19.5v-28.5v-28.5v-19.5q-9 -35 -24 -76t-38.5 -76.5t-56.5 -59t-78 -23.5q-32 0 -60 17.5t-48.5 44.5t-32 59.5t-11.5 62.5v243q0 2 6.5 8.5t10.5 9.5h2l0.5 0.5t1.5 0.5z" />
    <glyph glyph-name="V" unicode="V" horiz-adv-x="436" 
d="M18 462q0 7 2 17.5t6.5 20.5t10.5 17t15 7q6 0 10.5 -1t7.5 -9q-6 -44 -3 -82t12.5 -74.5t23 -72.5t28.5 -75q1 -1 1 -4.5t-1 -5.5q2 -4 8 -15.5t13 -24t13.5 -23t9.5 -15.5q5 -9 11.5 -21.5t14.5 -23t18 -18t22 -7.5q13 0 23.5 11t18.5 27t13.5 32.5t9.5 25.5
q16 45 28 87t21 84.5t16 86.5t13 92l9 8q13 -6 15 -11t2 -14v-9q-1 -10 -4.5 -36t-7.5 -55t-8.5 -56t-5.5 -37q-2 -11 -7.5 -37t-14.5 -58.5t-21 -66.5t-27.5 -62t-33.5 -46.5t-39 -18.5q-20 0 -41 20t-41 51.5t-39.5 69.5t-34.5 75t-26 68t-16 48q-1 6 -4.5 23t-7.5 36.5
t-8 37.5t-5 26v8z" />
    <glyph glyph-name="W" unicode="W" horiz-adv-x="646" 
d="M280 262q-2 -6 -5.5 -21t-8 -31.5t-8.5 -31.5t-5 -21q-6 -16 -12.5 -37.5t-17 -40.5t-26 -32t-37.5 -13q-31 0 -53.5 17t-37.5 45t-23.5 63t-13 70.5t-6 68t-1.5 55.5q0 14 -1.5 38.5t1.5 49t13.5 42t33.5 17.5q0 -6 -0.5 -22.5t-1 -35t-0.5 -35v-23.5q0 -2 -1.5 -9.5
t-3 -16.5t-3 -16.5t-1.5 -10.5q0 -6 2 -25.5t5 -41.5t5.5 -42.5t4.5 -29.5q2 -14 8 -33.5t16 -37.5t23.5 -31t32.5 -13q23 0 36 23t20.5 56.5t12 74t10 74t14 56.5t24.5 23h5l4 -4l4 -4q15 -45 35 -91.5t45.5 -90.5t57.5 -82.5t72 -68.5h6h7q18 0 25.5 13.5t13.5 31.5
q2 8 6.5 25t8.5 35t7.5 33t3.5 19v12.5t0.5 26.5t0.5 31v25v30t-0.5 36.5t-0.5 32.5v16q-1 22 -2.5 34.5t-6 21.5t-13 16t-22.5 16v3q0 13 3 22.5t17 9.5q19 0 28.5 -8t13.5 -27q1 -10 3.5 -26.5t5 -36.5t5.5 -40.5t5.5 -39t4 -32t1.5 -17.5v-8t0.5 -13.5t0.5 -15v-12.5
q0 -15 -2 -40t-6.5 -53.5t-12 -58t-20 -53t-29.5 -38.5t-39 -15q-3 0 -11.5 0.5t-11.5 0.5q-36 34 -62 62.5t-48 58.5t-43 63.5t-47 77.5h-8z" />
    <glyph glyph-name="X" unicode="X" 
d="M356 169q0 27 5.5 54t12.5 52.5t12.5 51.5t5.5 52v13q-13 -16 -28 -44t-30.5 -61t-33 -67t-36.5 -62t-39 -45.5t-42 -17.5q-13 0 -16 7.5t-3 18.5q0 36 15 67.5t37.5 59.5t49 52.5t48.5 48.5q0 3 0.5 10.5t0.5 11.5q0 29 -9.5 54.5t-26.5 43.5t-41.5 28.5t-55.5 10.5
q-25 0 -49 -11.5t-45.5 -25t-39 -24.5t-26.5 -11t-12 6t-3 12q0 21 23 38t54 30t61.5 20.5t46.5 7.5q44 0 68.5 -13t40 -34t27 -47t30.5 -54q0 -1 1 -1h2q15 0 26 9t20 23t16 29.5t14.5 29.5t15.5 23t18 9q7 0 12 -3t5 -10v-5q-13 -40 -29.5 -78.5t-31.5 -78t-25.5 -80
t-10.5 -82.5q0 -33 5.5 -57t16.5 -43.5t29.5 -36t45.5 -32.5v-22q-36 0 -61 16.5t-41 41.5t-23 55.5t-7 59.5zM270 253q-13 -8 -21.5 -23.5t-13.5 -29.5q12 10 20.5 24.5t14.5 28.5z" />
    <glyph glyph-name="Y" unicode="Y" horiz-adv-x="445" 
d="M244 -45q0 26 4 52t9 51.5t9.5 51t4.5 51.5v5q-54 10 -100.5 30.5t-80.5 53.5t-53.5 78.5t-19.5 106.5q0 9 -0.5 24.5t2.5 29.5t10.5 24.5t22.5 10.5q14 0 20.5 -3t6.5 -18q0 -13 -3 -25t-6 -23.5t-6 -24t-3 -24.5q0 -36 15 -70.5t40.5 -60.5t58.5 -42t69 -16h7.5
t10.5 0.5t10.5 0.5h7.5q18 12 28.5 41.5t17.5 66t12 76.5t13 72.5t19.5 54t31.5 21.5q1 0 4 -3.5t4 -5.5q1 -1 2 -7.5t2 -15t2.5 -17t2.5 -13.5v-4q0 -48 -10.5 -93.5t-26 -89t-33.5 -86t-33.5 -86t-26 -88.5t-10.5 -94q0 -36 5.5 -70.5t5.5 -70.5q-13 0 -22 9t-14 23
t-7.5 31.5t-3 34t0 30.5t0.5 21z" />
    <glyph glyph-name="Z" unicode="Z" horiz-adv-x="619" 
d="M175 83q0 36 21 73t53.5 74.5t69.5 75.5t69.5 77.5t53.5 79.5t21 81q0 29 -15 44.5t-37.5 22t-48.5 7.5t-48 1q-18 0 -39.5 -1t-43.5 -4t-43.5 -8t-39.5 -12q-2 -2 -9.5 -6t-16.5 -8.5t-16.5 -8t-9.5 -3.5q-1 -1 -5 -1.5t-9.5 -1t-11.5 -0.5h-9h-7t-10.5 0.5t-10.5 1
t-7 1.5q-7 2 -8 6.5t-1 9.5q0 14 20 24.5t51 18t68.5 13t73 9t63 5t39.5 1.5q31 0 62 -5t56 -18t41 -36t16 -60q0 -43 -21.5 -83t-53.5 -78t-70 -75.5t-70.5 -73.5t-53.5 -71.5t-21 -71.5q0 -13 1.5 -23.5t16.5 -16.5h7h9h9.5h5.5q17 0 29 1t22.5 3.5t24 8t34.5 14.5
q6 3 21 9.5t34.5 15t40 18t39.5 18t34 16t23 10.5h36q0 -6 -2.5 -10.5t-7.5 -7.5l-271 -131q-1 0 -7.5 -1t-15 -2.5t-16.5 -2.5t-13 -2h-14q-38 0 -60 22t-22 61z" />
    <glyph glyph-name="bracketleft" unicode="[" horiz-adv-x="628" 
d="M70 498q9 6 30 19t48 29t56.5 34.5t56 34.5t48 29.5t31.5 19.5q3 1 9 4t11.5 5.5t9.5 4.5t6 2q12 2 15 -3.5t3 -12.5q0 -17 -22 -36.5t-55 -39.5t-72.5 -39.5t-74 -37.5t-60 -33t-31.5 -24q-3 -6 -6.5 -22.5t-7.5 -34.5t-8 -34t-5 -23v-19v-51.5t3 -58t9 -57t19 -51
t33 -39t50 -21.5h19t29 -0.5t28.5 -0.5h19.5q42 0 83 7t81 16t80.5 16t82.5 7h11h11q-14 -18 -40.5 -32t-60.5 -24t-72 -16t-74.5 -10t-69 -5.5t-53.5 -1.5h-20.5t-30.5 0.5t-30.5 0.5h-20.5q-30 5 -53 23t-38 43.5t-22.5 56.5t-7.5 61v270q0 12 4 20t11.5 13t16.5 7t20 4z
" />
    <glyph glyph-name="backslash" unicode="\" horiz-adv-x="270" 
d="M248 61q8 -14 15.5 -33.5t7.5 -35.5q-16 0 -28.5 13.5t-22 31.5t-15.5 36.5t-9 29.5q-55 172 -108 343t-111 342v5q0 9 11.5 15.5t21.5 6.5q2 0 5.5 -0.5t3.5 -1.5z" />
    <glyph glyph-name="bracketright" unicode="]" horiz-adv-x="602" 
d="M4 90q3 0 11.5 -1t10.5 -1q42 -12 77.5 -20.5t70.5 -14t72 -8t81 -2.5h21.5h33h33h21.5q16 3 30.5 5t25 6.5t17 14t6.5 26.5q0 20 -1.5 37.5t-3.5 35t-5.5 36.5t-7.5 40v366q0 2 -3.5 5.5t-5.5 3.5q-45 15 -95 17t-97 2q-49 0 -97.5 -5t-98.5 -5h-8.5h-11.5h-11.5h-7.5
q-3 2 -10 8.5t-8 9.5q-1 0 -1 1v3q0 11 6.5 15.5t15.5 6t18 1t14 -0.5t22.5 0.5t41 2t49.5 2t49.5 1.5t40.5 1.5t23 0.5q5 0 21.5 -1t35.5 -3t36 -3t21 -1q7 0 23 -0.5t34 -0.5t34.5 0.5t22.5 0.5q4 -1 6 -4.5t2.5 -7t0.5 -7.5v-7q0 -38 -3 -76t-6.5 -76.5t-6.5 -77
t-3 -76.5v-33t0.5 -39.5t0.5 -34v-15.5q0 -5 4 -25.5t8.5 -44.5t8.5 -44.5t5 -25.5q0 -2 0.5 -8.5t0.5 -10.5q0 -23 -18 -35t-42 -17.5t-49.5 -6.5t-40.5 -1h-12.5t-17 0.5t-15 0.5h-7.5q-8 1 -33.5 3t-54.5 4.5t-56 5.5t-39 5q-5 1 -21 4.5t-35.5 9t-41 13t-39.5 15
t-30 15.5t-12 15z" />
    <glyph glyph-name="asciicircum" unicode="^" horiz-adv-x="402" 
d="M216 622q-2 0 -6.5 -6t-10.5 -13.5t-10.5 -14t-4.5 -7.5q-26 -31 -39.5 -41.5t-17.5 -7t-1 17.5t10.5 32.5t17.5 39t19.5 36.5t17 24.5t9.5 2.5q5 9 14 13.5t17 4.5h4l18 -45t9 -21.5t6 -9t6 -10t9.5 -24t18.5 -49.5q-15 -15 -24.5 -19.5t-16 -1t-11 13.5t-9 24t-10.5 30
t-15 31z" />
    <glyph glyph-name="underscore" unicode="_" horiz-adv-x="942" 
d="M8 8q7 11 16.5 21.5t20.5 18t24 11.5t27 2q68 3 132.5 7t127.5 9t126 11t128 16q33 5 68 12.5t70.5 14.5t70 12t67.5 5q3 0 9 -2t11.5 -6t9 -8.5t0.5 -9.5q-5 -13 -15 -20t-22.5 -9t-25.5 -1t-24 4l-524 -62h-35q-13 0 -34.5 -1.5t-42 -3t-36.5 -2.5t-18 -1l-18 -4.5
t-30 -8t-30.5 -8.5t-17.5 -5q-1 0 -4 -0.5t-5 -0.5q-8 0 -13 1.5t-13 7.5z" />
    <glyph glyph-name="grave" unicode="`" horiz-adv-x="145" 
d="M53 571q-7 6 -18.5 16.5t-21 23t-13 25t6.5 21.5q8 7 13 7t13 -6q10 -11 24.5 -25.5t20.5 -29.5l43 -62q-9 -10 -19 -8.5t-18.5 8t-16.5 15.5t-14 15z" />
    <glyph glyph-name="a" unicode="a" horiz-adv-x="458" 
d="M244 122q-15 -18 -34.5 -38t-42 -37t-47 -28.5t-50.5 -11.5q-53 0 -53 51q0 21 17.5 55.5t45.5 72.5t62 73.5t68 59t62.5 29.5t46.5 -17q0 -27 -4 -54t-8 -53.5t-8 -52.5t-4 -53q0 -6 1.5 -18.5t5 -25t9.5 -22t16 -9.5q24 0 39.5 6t27 14.5t20 19.5t18 22t21.5 21t31 16
v-3v-5q0 -25 -15 -49.5t-38 -43.5t-51.5 -30.5t-55.5 -11.5q-23 0 -37 13t-22.5 31t-12.5 39.5t-8 39.5zM262 253q10 33 7.5 45t-14.5 9.5t-31 -17t-41 -35t-44 -45.5t-41 -47.5t-31 -40.5t-15 -26q-6 -23 -1.5 -35t14 -16.5t21 -1.5t19.5 9q17 15 43 40.5t50.5 54.5
t42.5 57.5t21 48.5z" />
    <glyph glyph-name="b" unicode="b" horiz-adv-x="334" 
d="M37 8q-8 8 -9 15t-1 16q0 3 0.5 8l0.5 5q9 49 17.5 92t14.5 84.5t9 84.5t3 93v22.5t-0.5 36t-0.5 36v22.5q-1 9 -8.5 9.5t-12.5 0.5q-15 0 -25.5 -1.5t-18.5 -5t-14.5 -9.5t-14.5 -14q-3 0 -9.5 -0.5t-8.5 -0.5q-8 0 -17.5 1.5t-9.5 12.5q0 1 0.5 2.5l0.5 1.5
q15 19 28.5 32t28.5 20t34 10t44 3q17 0 26.5 -8t14 -20.5t5.5 -28t1 -30.5v-21.5v-32.5t-0.5 -38t-1 -38t-1 -32.5t-0.5 -21.5h12q3 4 13 14t22.5 21t26 19t25.5 8q16 0 30.5 -12.5t26 -33t21 -45.5t15.5 -49t9.5 -44t3.5 -32q0 -33 -18 -62t-45.5 -51t-61 -35t-63.5 -13
q-13 0 -23.5 0.5l-21 1t-22 2.5t-25.5 5zM202 331q-30 -26 -53 -61.5t-39 -75.5t-23.5 -82t-7.5 -81q28 0 62 7t63.5 22.5t49.5 41t20 63.5q0 20 -4 44.5t-12.5 48t-22 43.5t-33.5 30z" />
    <glyph glyph-name="c" unicode="c" horiz-adv-x="260" 
d="M17 100q0 8 2.5 32t7 54.5t11.5 64t17.5 61.5t23.5 46t30 18q21 0 33 -16t18.5 -37.5t9 -44t2.5 -35.5q-21 0 -27 7t-8.5 17t-5.5 20.5t-17 18.5q-23 -14 -35 -39.5t-18.5 -55.5t-7.5 -59t-1 -52q0 -28 10.5 -47t42.5 -19q25 0 48 10t44 25.5t39.5 34t34.5 35.5h19
l-0.5 -3.5t-1.5 -5.5q-14 -29 -35 -53t-46 -41t-54.5 -27t-61.5 -10q-23 0 -37.5 7.5t-22.5 21t-11 32t-3 40.5z" />
    <glyph glyph-name="d" unicode="d" horiz-adv-x="322" 
d="M78 61q-19 0 -32 12t-21.5 29t-13 36t-4.5 33q0 31 11.5 64.5t31 63.5t45 54.5t53.5 38.5q12 6 21.5 6.5t16.5 1t10.5 6t3.5 21.5v167q0 8 9 16.5t17 8.5q5 0 8.5 -4.5t5.5 -10.5t3 -13t1 -10q0 -113 -3 -222.5t-3 -225.5q8 0 16 3t17 7t17.5 8t16.5 6q0 -1 0.5 -4
t0.5 -5q0 -14 -9.5 -22.5t-22 -15.5t-24 -14t-15.5 -18q-1 -2 -2 -14t-4 -27t-9 -26.5t-15 -11.5q-14 0 -18.5 8t-3.5 19t3.5 21t2.5 14h-111zM42 171q0 -33 21 -54.5t54 -21.5h16.5t19.5 1.5t18 5.5t12 12q-2 27 -0.5 51.5t3.5 49l4 49t2 51.5q0 12 -4.5 19t-17.5 7
q-27 0 -50.5 -17.5t-41 -44t-27 -56t-9.5 -52.5z" />
    <glyph glyph-name="e" unicode="e" horiz-adv-x="358" 
d="M26 125q-7 -4 -11 -2t-5.5 6t-2 9.5t-0.5 7.5q0 20 5 24.5t13 6t17 4.5t17 19q12 25 21.5 52.5t23.5 51.5t35.5 39t59.5 15q6 0 13.5 -1t14 -3.5t11 -8t4.5 -14.5q0 -21 -10.5 -37.5t-26 -30t-33.5 -25.5t-33 -23t-25.5 -23t-10.5 -26v-96q0 -11 8.5 -17.5t19.5 -10.5
t23 -6t18 -2q24 0 48 8.5t46.5 21.5t42.5 28.5t38 29.5q6 5 10.5 10.5t9 10.5t10 8.5t14.5 5.5v-4v-5q0 -8 -1.5 -14t-7.5 -12q-22 -25 -47 -47t-53 -39t-59 -27t-66 -10t-54 10t-29.5 29t-14.5 45t-9 56zM155 280q0 2 -3.5 -0.5t-8 -6.5t-6.5 -7.5t0 -3.5q5 -1 12 6t6 12z
" />
    <glyph glyph-name="f" unicode="f" horiz-adv-x="450" 
d="M49 -232q0 34 3 70t7.5 72.5t11 72.5t13.5 69l-61 -60l-1 -1q-1 -1 -3 -1t-3 1l-2 1q-1 0 -4.5 4t-4.5 4t-6 -1t-11 -2.5t-11.5 -3l-5.5 -1.5h-5q-6 0 -8.5 2.5t-3.5 6.5t-1 9v9q0 10 1.5 19t16.5 14h5.5h11.5h11h6q13 3 33.5 19.5t39.5 39t31.5 47t9.5 42.5
q3 12 11.5 41.5t18 63.5t18.5 63.5t13 41.5q2 5 7.5 19.5t13.5 30t19.5 27.5t25.5 12q9 0 13.5 -5t6.5 -12t2 -15v-13v-14t-1 -13q-4 -11 -13.5 -40t-20.5 -60.5t-21 -60t-15 -40.5q-1 -3 -4.5 -10t-7.5 -15.5t-8.5 -16t-5.5 -10.5h4h5q4 1 17.5 6.5t30 11.5t30.5 11t18 7
q1 0 8.5 0.5t11.5 0.5q36 0 62.5 -14.5t43 -38t24.5 -54.5t8 -64q0 -13 -2 -36.5t-6.5 -53t-10.5 -61t-14 -59.5t-18 -50.5t-20 -33.5l-104 -104q-9 -9 -22 -14.5t-26.5 -8t-27.5 -3.5t-25 -1q-34 0 -55 12.5t-33 33.5t-16.5 48.5t-4.5 58.5zM83 -224q0 -25 1 -48t8.5 -40
t24 -27.5t46.5 -10.5q42 0 76 18.5t60 49.5t45 70.5t31.5 81.5t18 83t5.5 74q0 26 -2.5 52.5t-12.5 47.5t-28.5 34.5t-49.5 13.5q-52 0 -88.5 -19t-61.5 -50t-39 -72t-21.5 -85t-10 -89t-2.5 -84zM206 376q-2 0 -6 -8.5t-7.5 -21t-7.5 -27t-6 -27t-2.5 -20.5t1.5 -8q3 0 6 8
t7 20.5t7.5 27t6 27t3 21t-1.5 8.5z" />
    <glyph glyph-name="g" unicode="g" horiz-adv-x="306" 
d="M-27 -170q0 11 0.5 24t3 26t7.5 24t16 18q0 -8 1 -28t2.5 -42t2.5 -42.5t2 -27.5q2 -21 10.5 -43.5t19 -45t21.5 -43t19 -34.5q7 -11 20 -15t25 -4q22 0 39.5 17.5t30.5 44.5t23 60t16 64.5t9 57t3 37.5v11t0.5 23.5t0.5 27v21.5q0 47 -1.5 94.5t-16.5 92.5
q-1 0 -2.5 0.5l-1.5 0.5q-7 0 -23 -14t-38 -30.5t-47 -30t-51 -13.5q-17 0 -26.5 7t-14 18t-5.5 24.5t-1 26.5q0 31 14 66.5t37 66.5t54 51t65 20q13 0 23 -5t21 -5q6 0 9.5 3t7 6.5t7.5 6.5t10 3q18 0 20.5 -8t2.5 -25q0 -61 -2 -120.5l-4 -119t-3 -120t1 -123.5
q-4 -16 -9.5 -43t-14 -57t-20.5 -60t-27.5 -55t-36 -40.5t-45.5 -15.5q-24 0 -45 14.5t-38.5 37.5t-30.5 52t-22 58.5t-13.5 57t-4.5 47.5zM52 130q0 -18 4.5 -22.5t22.5 -4.5q21 0 46.5 14t48.5 35t38.5 45.5t15.5 45.5q0 25 -7 40t-34 15t-52 -16.5t-43.5 -42t-29 -55
t-10.5 -54.5z" />
    <glyph glyph-name="h" unicode="h" horiz-adv-x="325" 
d="M21 37q0 54 8 106.5t18.5 105t18.5 104.5t8 105v10t-0.5 14.5t-0.5 14.5v9q1 11 -4 15t-13 4q-1 0 -4 -1t-5 -1q-4 -5 -7 -7l-6 -4t-7 -4t-9 -6q-7 -6 -16.5 -8.5t-18.5 -2.5v28l64 57q6 6 13 7.5t14 1.5q17 0 26 -14.5t13.5 -34t4.5 -39v-28.5v-11v-13.5v-11.5v-6
q-1 -4 -3.5 -19.5t-6 -36t-7.5 -44t-8 -44t-6.5 -36t-3.5 -21.5v-3v-5q2 1 5 4t3 4q2 3 8.5 13.5t13.5 22.5t13.5 22t8.5 12q4 5 13.5 15t21 21t21 20.5t14.5 13.5q1 0 8 0.5t9 0.5q23 0 31.5 -21.5t10 -54t-1.5 -70t-2 -69.5t9 -53.5t32 -21.5q11 0 19 6t16 13t16.5 13
t20.5 6q0 -15 -8 -30t-20 -27t-27.5 -18.5t-29.5 -6.5q-29 0 -42.5 18t-18 43t-4.5 52t-1 46q-1 12 -2 31.5t-2.5 37.5t-2.5 31.5l-1 13.5l-9 8q-27 -24 -48 -50.5t-36 -56t-26.5 -62t-21.5 -67.5q-3 -12 -3.5 -22.5t-2.5 -20t-6 -18t-14 -17.5q-19 9 -22.5 16t-3.5 21z" />
    <glyph glyph-name="i" unicode="i" horiz-adv-x="237" 
d="M84 140q0 26 3 51.5t6.5 51t6.5 51t3 52.5q0 6 -2.5 13.5t-12.5 7.5q-13 0 -17 -2t-5.5 -5t-5 -7t-15.5 -8h-5q-21 0 -21 22q0 6 13.5 19t31.5 24.5t34 20t21 5.5q2 0 6 -3.5t8 -8t7.5 -8.5t4.5 -6v-8t0.5 -13t0.5 -13.5v-9.5q0 -29 -4 -57.5t-9.5 -57.5t-9.5 -58t-4 -58
q0 -5 1 -20t4.5 -31t10.5 -28.5t19 -12.5q24 0 36 6.5t21 14.5t19.5 14.5t29.5 6.5q0 -42 -31 -64t-79 -22q-25 0 -38 16t-19.5 38.5t-7.5 46.5t-1 40zM94 558q0 11 3.5 17t16.5 6q9 0 12.5 -6.5t3.5 -16.5q0 -9 -3.5 -15.5t-12.5 -6.5q-13 0 -16.5 5.5t-3.5 16.5z" />
    <glyph glyph-name="j" unicode="j" horiz-adv-x="226" 
d="M-281 -143q0 18 1 32t9 32q3 -54 13.5 -100.5t30.5 -86.5t49.5 -75.5t72.5 -68.5q21 -16 47.5 -26t52.5 -10q31 0 53.5 19.5t38 51t25 69.5t15 76.5t8 71.5t4.5 53q0 5 3 27t6 47t6 46.5t3 27.5v16.5t0.5 30t0.5 32.5v25v17t-0.5 22.5t-0.5 20.5v11l-9 17
q-12 -6 -26 -17.5t-28 -23.5t-28 -21t-26 -9q-8 0 -15.5 2t-7.5 13q0 15 16 31t38 29.5t45 22.5t36 9h6.5t9.5 -0.5t9 -0.5h6q7 -5 10.5 -12t6.5 -14q0 -5 0.5 -18t1 -27.5t0.5 -28v-18.5v-22.5t-0.5 -29.5t-1 -26t-0.5 -13q-1 -9 -4 -33.5t-8 -57.5t-10.5 -71.5t-11 -74
t-10.5 -65.5t-8 -47q-5 -29 -12.5 -61.5t-22 -60t-38 -45.5t-59.5 -18q-66 0 -120.5 27.5t-93.5 73.5t-61 106t-22 123zM143 410q0 11 4 17t16 6q9 0 12.5 -7t3.5 -16q0 -10 -3.5 -16t-12.5 -6q-12 0 -16 6t-4 16z" />
    <glyph glyph-name="k" unicode="k" horiz-adv-x="317" 
d="M26 8v15.5t-0.5 22.5t-0.5 22.5v14.5q0 107 6 211.5t3 211.5q1 3 3.5 10t5.5 16t5.5 16t3.5 10q1 2 4 5l5 5h2h1h1q7 0 9.5 -3t3.5 -7.5t1 -10v-9.5q0 -12 -0.5 -21.5t-1.5 -19.5t-3 -20.5t-4 -22.5q-1 -13 -1.5 -41t-1.5 -63.5t-2 -74.5t-2 -74t-1.5 -63.5t-0.5 -41.5
v-8v-10q25 45 43.5 86t37 81.5t40.5 81t53 83.5q6 8 11.5 12.5t11.5 7t13.5 3t18.5 0.5q0 -20 -6.5 -37t-17 -33.5t-22 -33.5t-21.5 -37t-17 -44.5t-7 -55.5q0 -21 1.5 -38.5t8 -31t19.5 -20.5t37 -7q21 0 37.5 4t30.5 11.5t28 17.5t31 20q2 0 5 -3.5t5 -5.5v-2v-1
q0 -1 1 -1q0 -1 -0.5 -2t-0.5 -3q-29 -34 -62 -56t-78 -22q-33 0 -51.5 11.5t-29 30t-17.5 42.5t-16 48q-6 -9 -12.5 -27t-14.5 -38t-16 -41.5t-18 -38.5t-21 -28.5t-23 -11.5q-5 0 -9.5 1t-7.5 8z" />
    <glyph glyph-name="l" unicode="l" horiz-adv-x="284" 
d="M-10 74q0 6 13 10t29.5 10t33 14.5t22.5 21.5q-2 48 1 91t10 85t17.5 84.5t23.5 89.5q-2 10 4.5 31t17.5 41t24.5 35.5t24.5 15.5q12 0 17.5 -13t7.5 -30t1 -34.5t-1 -26.5q0 -51 -6 -98.5t-18.5 -92.5t-30.5 -89t-41 -89l-0.5 -3t-0.5 -5q1 -36 21 -50.5t47.5 -16
t57 6.5t48.5 16l9 -8q-5 -9 -14.5 -18.5t-20.5 -17t-21.5 -12t-16.5 -4.5q-26 0 -45 2t-35 8t-31 18t-33 32h-8q-9 -8 -16.5 -12.5t-17.5 -6.5t-22.5 -2.5t-28.5 -0.5q-11 0 -16.5 3.5t-5.5 14.5zM201 514q-20 -27 -33.5 -61t-21.5 -70t-12 -73t-4 -71q0 -2 0.5 -9
t0.5 -14.5t0.5 -14.5t0.5 -9l4 4l4 4v10q15 33 26.5 64t19.5 62.5t12 64.5t4 71v8.5v13t-0.5 12.5t-0.5 8z" />
    <glyph glyph-name="m" unicode="m" horiz-adv-x="589" 
d="M104 270l-9 36l-18 -10l-104 -104q-1 -1 -7.5 2.5t-9.5 5.5l-5.5 5.5t-3.5 4.5v4q0 6 8.5 19t22.5 29t31.5 33.5t35 31t33.5 22.5t27 9q19 0 28.5 -17.5t13 -41t2.5 -47t-1 -34.5q3 5 13 17.5t21 27t21 26.5t14 17q3 3 13.5 14.5t23 24t26.5 22t24 9.5q18 0 26 -10.5
t10.5 -25.5t1.5 -31.5t-1 -27.5q0 -38 -5 -75t-5 -76v-8q21 24 36.5 53t31.5 57.5t34.5 54.5t45.5 44q2 1 6.5 1.5t6.5 0.5q11 0 16.5 -6.5t7 -16t0.5 -19.5t-1 -17q0 -43 -5 -84.5t-5 -84.5q0 -23 10.5 -30t33.5 -7q11 0 19.5 3.5t16.5 8t16.5 8t18.5 3.5q0 -15 -8 -27.5
t-20 -21t-27 -13t-28 -4.5q-11 0 -22.5 3t-21 9.5t-16 16.5t-6.5 24v192q-11 -8 -24.5 -29t-28 -48t-29 -57t-28.5 -54t-27 -40.5t-24 -16.5t-16 10t-6.5 22.5t-1.5 23.5v15q0 24 3 48t7 48.5t7 48.5t3 48v9t-1.5 11.5t-4.5 10t-8 4.5q-1 0 -1.5 -0.5t-1.5 -0.5q0 -1 -2 -1
q-1 0 -4 -3t-4 -5q-11 -14 -29 -36t-35 -43t-29 -36t-13 -15q-3 -6 -10.5 -29t-16 -49.5t-15.5 -50t-10 -29.5q-5 -16 -13 -22t-24 -6q0 34 3 67t7 66.5t7 67t3 68.5v3z" />
    <glyph glyph-name="n" unicode="n" horiz-adv-x="399" 
d="M78 70q2 8 6 26.5t8.5 41.5t9 49t9 49t7.5 42t4 28q1 4 0 12t-2 18t-2 18t-1 12q-3 0 -10 2t-14.5 3.5t-13.5 3t-9 1.5q-24 -9 -35.5 -22.5t-21 -26.5t-22.5 -22.5t-38 -9.5q-9 0 -13 7t-4 16v4q22 25 41.5 43t41.5 30.5t48 18.5t60 6q15 0 22.5 -5.5t11.5 -14t4.5 -19.5
t0.5 -24q0 -27 -5.5 -53.5t-12 -53t-12.5 -53t-6 -54.5v-4q3 8 13 26.5t21 39.5t21.5 39.5t14.5 25.5q1 1 7 8.5t14.5 17.5t17 19.5t14.5 15.5q6 8 14.5 17t18 17t20 13.5t21.5 5.5q9 0 13.5 -7t6.5 -17t2 -20.5v-17.5q0 -30 -7 -60t-15 -59.5t-15.5 -59.5t-7.5 -60
q0 -13 4 -22t18 -9q18 0 33 10t28.5 21.5t27 21.5t30.5 10v-19q0 -1 -5 -6l-12 -12t-14.5 -14t-12.5 -12q-8 -7 -18 -15t-20.5 -14.5t-22.5 -11t-23 -4.5q-15 0 -24.5 8.5t-14.5 21t-7 26.5t-2 25q0 30 5.5 59.5t11.5 58t11 57.5t5 59h-6q-1 0 -7 -6t-14.5 -14t-16.5 -17
t-14 -15q-5 -6 -11 -14.5t-12 -18.5t-11.5 -19.5t-9.5 -17.5q-3 -7 -10 -21t-15.5 -32t-18 -38t-18 -38t-15.5 -32t-10 -21q-1 -4 -8 -10.5t-9 -7.5l-2 -1h-3h-2q-1 0 -2 1q-2 1 -5.5 4t-3.5 4v62z" />
    <glyph glyph-name="o" unicode="o" horiz-adv-x="270" 
d="M8 34v10.5t-0.5 16t-0.5 16v11.5q0 28 4 60t12 62.5t21.5 59t34 50t47.5 34.5t62 13q23 0 35 -13.5t16.5 -33.5t5 -42t0.5 -39q0 -39 -8 -81.5t-26 -77.5t-49.5 -58t-78.5 -23q-14 0 -24 1t-18 5.5t-16 11t-17 17.5zM43 52q9 -9 21 -9h23q38 0 62 19.5t37.5 48.5t19 63.5
t5.5 64.5q0 14 0.5 30.5t-3 31t-12.5 24t-27 9.5q0 -16 -4 -24t-10.5 -11t-15 -3.5t-18 -3.5t-18.5 -9t-16 -21q-16 -45 -30.5 -86.5t-14.5 -87.5v-7.5t0.5 -10.5t0.5 -10.5v-7.5z" />
    <glyph glyph-name="p" unicode="p" horiz-adv-x="369" 
d="M-17 -231q18 55 30 95.5t19 75t12 67.5t10.5 73.5t13.5 92.5t22 124q0 22 -2.5 35t-10 16.5t-21 -1t-34.5 -16.5h-5q-8 0 -15 3.5t-7 13.5q0 7 1 10t8 8q15 10 36 23t40.5 17.5t34 -5.5t18.5 -43q11 13 23.5 27.5t26.5 26t30.5 18.5t36.5 7q31 0 51 -20t31 -49
t14.5 -61.5t3.5 -56.5q0 -58 -20 -103.5t-54.5 -77.5t-82.5 -49.5t-104 -19.5q-8 -26 -10.5 -38t-3.5 -20.5t-2 -18.5t-6.5 -30.5t-17.5 -57.5t-34 -99q-12 0 -22 11t-10 22zM97 52q-1 -6 2 -9.5t7 -5.5t9 -2.5t8 -0.5q26 0 55.5 12t55 31t43.5 44t21 53q15 37 16.5 74.5
t-6 68.5t-22.5 52t-35.5 25t-44 -12t-47.5 -60z" />
    <glyph glyph-name="q" unicode="q" horiz-adv-x="306" 
d="M173 -141q0 49 4.5 95.5t4.5 94.5q-13 0 -25.5 -6.5t-26.5 -14.5t-29.5 -14.5t-31.5 -6.5q-30 0 -41 18.5t-11 47.5q0 22 8.5 54t23 66.5t34 68.5t42 61.5t47 44.5t48.5 17q18 0 29.5 -13t18.5 -31t9.5 -37t2.5 -31q0 -51 -11 -99.5t-24 -97t-24.5 -97.5t-11.5 -101
v-29.5t3.5 -38.5t11.5 -32.5t25 -13.5h6h7q30 23 48.5 43.5t33 42.5t29.5 47.5t37 58.5q2 3 8.5 9.5l8.5 8.5q0 -2 0.5 -7t0.5 -7q0 -19 -9 -44.5t-24 -52.5t-35 -52.5t-42 -45.5t-44.5 -32.5t-42.5 -12.5q-21 0 -32.5 16.5t-17.5 39.5t-7 46t-1 37zM52 52q9 -6 13.5 -7.5
t13.5 -1.5q27 0 49 13.5t39.5 36t30.5 50.5t21.5 57t12.5 55t4 46q0 11 -4 21.5t-14 17.5q-33 -9 -63 -37.5t-53 -65t-36.5 -76t-13.5 -70.5v-7.5v-11.5v-11.5v-8.5z" />
    <glyph glyph-name="r" unicode="r" horiz-adv-x="370" 
d="M44 34q10 40 14.5 72.5t6 63.5t1 65t-0.5 77q-16 0 -23.5 -2t-10.5 -4.5t-4 -5.5t-3.5 -5.5t-9.5 -4.5t-22 -2q-9 0 -13 7t-4 16q0 8 10.5 17t25 18t30 15t26.5 6q4 0 11.5 -3.5t14.5 -9t11.5 -11.5t4.5 -12v-139q10 15 32 41t49 51.5t55 44.5t50 19q30 0 42 -19.5
t12 -48.5q-12 0 -19 4t-12.5 9t-11.5 8.5t-16 3.5q-32 -6 -60 -32t-51.5 -61t-42 -74t-32.5 -71t-22.5 -52t-10.5 -16q-10 0 -18.5 9.5t-8.5 22.5v3z" />
    <glyph glyph-name="s" unicode="s" horiz-adv-x="262" 
d="M17 170v6t0.5 9t0.5 9.5v5.5q1 3 7.5 7t9.5 3q6 -2 11 -14t10 -29t11.5 -37.5t17 -38t26 -31t37.5 -17.5q7 -1 11 0.5t5.5 5t1.5 8v7.5q-1 18 -14 37.5t-31 42t-36 48t-30 54t-15 61t12 69.5q0 9 9.5 24t23 28.5t28.5 23.5t26 10q16 0 30.5 -6t22.5 -20
q10 -13 23.5 -34.5t24 -42.5t13.5 -38t-9 -20q-14 0 -23.5 8t-15.5 20t-11 26.5t-11 26.5t-14 20.5t-21 8.5q-18 0 -31.5 -11t-22 -27t-12 -34.5t-3.5 -32.5q0 -25 9.5 -46.5t24 -41t32 -38.5t32 -38.5t24.5 -40.5t10 -45q0 -10 -4.5 -19.5t-12 -18t-17.5 -13.5t-20 -5
q-28 0 -53 17t-44.5 43t-31 55.5t-11.5 54.5z" />
    <glyph glyph-name="t" unicode="t" horiz-adv-x="306" 
d="M122 34v10.5t-0.5 16t-0.5 16v11.5q0 29 5 56.5t11.5 55t11.5 55.5t5 57q-12 0 -28.5 -11t-34.5 -25t-33.5 -28.5t-23.5 -21.5h-3h-5q-19 0 -19 18q0 12 12.5 25.5t31 27t40 25.5t40 22.5t31 18.5t12.5 13q9 42 8 70t-7.5 45t-18 23.5t-24 5.5t-25.5 -9t-22 -20
q-7 8 -9 13.5t-2 12.5q23 23 45.5 29t42.5 -0.5t36 -22.5t24.5 -37.5t8 -46t-12.5 -47.5l8 4t13 5.5t13.5 5t9.5 3.5h3h5q1 0 2.5 -6.5t4 -15t4.5 -15t2 -7.5l-74 -35q-1 -1 -6.5 -21.5t-12.5 -48t-14 -57t-10 -47.5q-2 -4 -3.5 -15.5t-2.5 -24t-2 -24t-1 -15.5q0 -6 1 -14
t3.5 -14.5t7.5 -11t13 -4.5q29 0 51.5 11.5t39.5 25.5t30.5 26t24.5 12q2 0 5.5 -0.5t3.5 -1.5q-3 -29 -16.5 -49.5t-33 -33.5t-45.5 -19t-56 -6q-9 0 -20 1t-20 5t-15.5 11t-8.5 18z" />
    <glyph glyph-name="u" unicode="u" horiz-adv-x="451" 
d="M82 410q-20 0 -28 -8t-12.5 -17l-8.5 -17t-15 -8q-12 0 -19.5 4.5t-7.5 17.5q1 13 10 25t22.5 21.5t28.5 14.5t30 3q14 0 26 -2t21 -8t14 -16.5t5 -27.5v-331l17 17q1 1 9.5 16.5t19.5 36.5t22.5 43t18.5 36q23 46 37 89.5t24 92.5q2 8 9.5 9.5t12.5 1.5q1 0 6 -0.5
t7 -0.5q0 -8 0.5 -24t1.5 -36t2 -41.5t2 -41.5t2 -35.5t1 -23.5q0 -6 1.5 -21.5t6 -32t12.5 -29.5t23 -13q14 8 28 19t28.5 22.5t29 21t30.5 14.5q8 -5 6 -15t-11 -23t-23 -26.5t-31 -25t-34.5 -18t-32.5 -4.5q-29 0 -44.5 18t-22 43.5t-7.5 53.5t-1 48q-11 0 -21.5 -17.5
t-21.5 -43.5t-23 -56t-26 -55.5t-29.5 -43t-33.5 -17.5q-13 0 -21 7t-12 18t-5 23t-1 23v314q0 3 -2 7.5t-5 8.5t-7 7t-8 3z" />
    <glyph glyph-name="v" unicode="v" horiz-adv-x="358" 
d="M122 34q-10 22 -26.5 57.5t-33.5 73t-31.5 71t-22.5 52.5q1 4 7.5 10.5t10.5 7.5q11 2 23 -13.5t24 -41t25 -56t24.5 -57t21.5 -44t17 -17.5q1 0 2 0.5t3 0.5q0 3 3 9.5t5.5 13.5t5 13t3.5 8t6.5 12.5t11.5 22.5t11 22.5t6 12.5q2 4 6.5 17t11 30t13.5 36t13 36
t10.5 29.5t6.5 17.5q7 32 21.5 52.5t25 25t11 -9.5t-22.5 -50q-2 -8 -8.5 -26.5t-13.5 -39.5t-13.5 -39.5t-8.5 -26.5q-4 -12 -10.5 -34.5t-15 -50t-18.5 -55.5t-21.5 -51.5t-23.5 -38.5t-24 -15q-6 0 -11.5 4t-10 9t-8 11.5t-5.5 10.5z" />
    <glyph glyph-name="w" unicode="w" horiz-adv-x="494" 
d="M220 324q-1 0 -1.5 -0.5t-1.5 -0.5q0 -1 -2 -1q-3 -1 -9.5 -8t-7.5 -8l-96 -202q0 -1 -5.5 -9t-13.5 -18t-16 -17.5t-13 -7.5h-2h-2q-2 1 -5.5 4.5l-4.5 4.5v9v12.5v13v8.5q0 30 3 59.5t6.5 59t6.5 58.5t3 59v10.5t-0.5 16t-0.5 15.5v10q3 14 -5 16.5t-16 2.5
q-20 0 -27 -3.5t-11.5 -7.5t-11.5 -7.5t-28 -3.5q-18 0 -18 20q0 13 13.5 23t31.5 16.5t36 10t28 3.5q12 0 24.5 -7.5t18.5 -18.5q0 -6 0.5 -20t0.5 -30v-30.5v-20.5q0 -42 -4.5 -81t-4.5 -80v-17q27 58 57 119t64 116q1 2 4.5 5.5l4.5 4.5h5q9 0 16 -5.5t11.5 -13t7 -17
t4.5 -17.5q0 -4 2 -18.5t5 -33t5.5 -40t5.5 -40t5 -33t3 -18.5q1 -7 5.5 -23t10.5 -34l11.5 -34.5l7.5 -22.5q6 3 14.5 7.5t11.5 10.5q7 12 17.5 31t20 37t16.5 31.5t7 14.5v16l44 184l-1 6.5t-1 14t2.5 14.5t8.5 8l9 -9v-6t0.5 -11t1 -12.5t0.5 -9.5q0 -60 -10 -114.5
t-27 -116.5q-6 -12 -17 -37t-25.5 -50t-31.5 -44t-35 -19q-24 0 -39.5 24t-25.5 60.5t-14.5 78.5t-8.5 78.5t-7.5 60.5t-9.5 24z" />
    <glyph glyph-name="x" unicode="x" horiz-adv-x="409" 
d="M247 210q-2 -1 -5.5 -4.5t-4.5 -5.5q-10 -12 -28 -32.5t-36 -41.5t-32 -37t-17 -19q-4 -5 -8 -12.5t-9.5 -14.5t-12 -12.5t-13.5 -5.5q-10 0 -15.5 4t-10.5 14q18 26 38 48t38 43.5t31 43.5t17.5 47t-3 55t-28.5 66q-27 0 -46 -9t-36 -19.5t-34.5 -19.5t-41.5 -9v37
q0 1 6.5 5.5t16 10.5t21 12.5t21.5 11.5q19 10 41.5 19t44.5 9q28 0 41 -16.5t13 -44.5q6 -17 9.5 -33.5t6.5 -30t7 -21t11 -4.5q10 12 18.5 28.5t17.5 31.5t21 26t30 11q3 0 7 0.5t8 -0.5t7 -3t5 -7q-24 -42 -39 -89.5t-15 -98.5q0 -11 1.5 -28.5t7.5 -35t16.5 -30.5
t28.5 -15q18 -1 33 3t30.5 9.5t31 10.5t33.5 5q0 -16 -13.5 -27.5t-32.5 -19.5t-38.5 -12t-31.5 -4q-42 0 -64.5 20.5t-32.5 52t-11 68.5t0 70z" />
    <glyph glyph-name="y" unicode="y" horiz-adv-x="417" 
d="M-55 -454q-6 38 -10 80t-7 97q0 9 0.5 29.5t2.5 46t6 53t9.5 52t13.5 43t20 26.5v-8q0 -30 -4.5 -59t-9 -58.5t-9 -59.5t-4.5 -60q0 -12 1.5 -34.5t4.5 -49.5t9 -55.5t16 -51.5t24 -37.5t33 -14.5q26 0 52.5 17t51 44.5t45.5 62t39 69.5t30 66.5t18 54.5q6 33 12 69.5
t11.5 75t9 76.5t3.5 76v6t-0.5 10.5t-0.5 10.5v7q-14 -15 -29.5 -33.5t-33.5 -34.5t-38.5 -27t-44.5 -11q-19 0 -32.5 12t-22 29.5t-13 37.5t-4.5 36q-1 9 -2 32.5t-2.5 50t-3 50t-1.5 33.5l-9 9q-7 -4 -18 -12t-23.5 -15t-24.5 -12.5t-21 -5.5q-12 0 -19.5 8.5t-7.5 18.5
q0 5 9.5 14t24 18.5t33 19.5t35.5 18t31 13.5t20 5.5q4 0 13 -1t9 -9v-236q0 -6 2 -17.5t6 -23.5t11 -20.5t16 -8.5q5 0 13 3t15.5 7t13.5 8.5t10 8.5q34 30 62.5 67t42.5 81q1 3 3.5 13.5t5 23t5.5 24t3 17.5q1 7 1.5 16t2.5 17.5t7 14.5t16 6q15 0 16.5 -9t1.5 -21
q0 -13 -2 -26t-4.5 -25.5t-3.5 -25t1 -25.5q-11 -188 -46.5 -336t-84 -249.5t-102 -153.5t-100.5 -47q-17 0 -33.5 7.5t-30.5 20.5t-24.5 28.5t-15.5 31.5z" />
    <glyph glyph-name="z" unicode="z" horiz-adv-x="314" 
d="M131 174q5 15 14 30.5t17.5 32t15 32.5t6.5 32q0 6 -2.5 15.5t-7 18.5t-11 16t-15.5 7h-113q-4 0 -6.5 4.5t-3.5 10.5q-2 8 -2 17q11 0 19.5 2t16.5 4.5t17 4.5t19 2q28 0 52 -4t42 -15t28 -31t10 -52q0 -36 -17 -73t-42.5 -71.5t-54 -63.5t-52.5 -50h6t9.5 -0.5t10 -0.5
h5.5q37 0 64.5 14t47.5 35t34 45t24.5 45t18 35t14.5 14q0 -65 -22 -110t-60 -72.5t-89.5 -39.5t-110.5 -12v14t1.5 18t4 18t7.5 15z" />
    <glyph glyph-name="braceleft" unicode="{" horiz-adv-x="314" 
d="M148 -14q0 46 13 87.5t29 79t29 72t13 67.5h-118q-5 0 -8.5 3t-6 8.5t-3.5 10.5t-1 9v5q0 2 1 3l88 92h-141l-6.5 8.5t-10.5 13.5q-1 3 -4.5 9.5t-3.5 7.5q0 38 18 70t44 60.5t54.5 54.5t49.5 51q10 13 10.5 22t2.5 14t11.5 7.5t38.5 2.5q0 -29 -13 -52t-32 -43.5
t-42.5 -39t-44 -38t-35.5 -42t-19 -49.5q0 -3 3 -10t6 -8h9t15 -0.5t14.5 -0.5h9.5q19 0 38 3t37 7t36.5 7t37.5 3q13 0 17.5 -5t4.5 -19q0 -10 -1 -12t-8 -9q-7 -6 -23 -19.5t-34 -28.5t-34.5 -28.5t-22.5 -19.5q3 -1 13 -5t13 -4q2 0 12.5 1.5t22 3t22 3t13.5 1.5
q19 0 32 -6t13 -24q0 -12 -4.5 -22t-11.5 -18t-15 -16.5t-14 -18.5q-18 -27 -32.5 -58t-25 -63.5t-16 -66t-5.5 -65.5q0 -29 17 -47t41.5 -27t52.5 -11.5t51 -2.5h8t10 0.5t9 0.5h4l209 52h16q0 -12 -16.5 -23t-43 -21t-58 -18t-62 -13.5t-55 -8.5t-36.5 -3q-33 0 -65.5 5
t-58.5 19t-42 38.5t-16 63.5z" />
    <glyph glyph-name="bar" unicode="|" horiz-adv-x="130" 
d="M70 43q-5 117 -11.5 232t-15.5 231q0 8 -2 32t-4.5 56.5t-5.5 69t-6 68.5t-4.5 56t-2.5 32v6q0 3 1.5 8t4.5 10.5t6.5 8.5t8.5 3h1.5h1.5h1q5 -3 11.5 -10t6.5 -8l44 -724q7 -22 8.5 -36.5t1.5 -34.5v-12.5t-1.5 -14.5t-5 -12t-11.5 -5q-9 0 -14 4.5t-7.5 11t-4 14.5
t-1.5 14z" />
    <glyph glyph-name="braceright" unicode="}" horiz-adv-x="314" 
d="M-158 -96q7 3 21 9.5t31.5 15t36.5 18t36 18.5t30.5 16t20.5 11q37 21 78.5 51t76.5 67.5t58 80.5t23 89q0 80 -33.5 122.5t-106.5 60.5q-7 1 -23 8t-32.5 16t-29.5 18.5t-13 17.5q0 12 10 22.5t25 21t32 21t32 23t24.5 27t9.5 33.5q0 14 -2.5 25.5t-19.5 11.5
q-11 0 -18 -5.5t-12.5 -13t-10.5 -13t-13 -5.5q-5 0 -9 4t-6.5 10t-4 12t-1.5 10q0 14 6.5 23t16.5 14.5t23 7t24 1.5q2 0 7 -0.5t10.5 -1t10.5 -0.5h7q18 -12 22.5 -30t4.5 -37v-12v-8q-5 -22 -9 -40t-9.5 -35t-14 -33t-21.5 -33v-1v-3v-2v-2q46 -21 77.5 -41t51.5 -45.5
t29 -62t9 -90.5q0 -44 -20 -84t-52 -75t-73 -66t-84 -56.5t-83.5 -46t-72.5 -35.5q-15 -8 -33.5 -12.5t-36.5 -4.5h-8z" />
    <glyph glyph-name="asciitilde" unicode="~" horiz-adv-x="278" 
d="M284 625q1 -12 -1 -33t-6.5 -43t-10.5 -38.5t-13 -17.5q-16 3 -33.5 16t-35.5 29.5t-36.5 33.5t-36.5 29t-36 15t-35 -7q-11 -41 -24.5 -63t-21 -19t-4.5 32t24 89q23 18 46 17t44.5 -12.5t41 -30t37 -36.5t32.5 -31.5t28 -13.5q2 0 4.5 11.5t4 26.5t2 30t-0.5 23z" />
    <glyph glyph-name="nonbreakingspace" unicode="&#xa0;" horiz-adv-x="384" 
 />
    <glyph glyph-name="exclamdown" unicode="&#xa1;" horiz-adv-x="190" 
d="M71.8105 74.8896v-26.8174q0 -18.7725 0.487305 -39.7803q0.487305 -21.0068 0.487305 -39.7793v-25.9238q2.92188 -7.15137 7.30371 -8.04492q4.38281 -0.893555 9.25293 -0.893555q4.86914 0 9.73926 0.893555t6.81738 8.04492q0 8.0459 -0.486328 25.0303
q-0.487305 16.9844 -0.487305 39.332v90.2861q0 21.4541 0.487305 38.4385q0.486328 16.9844 0.486328 25.0303q0.974609 34.8623 6.81738 72.4072l11.6875 73.3018q5.84375 36.6504 10.7139 72.8545q4.86914 36.2041 4.86914 71.0664q0 4.46973 -0.487305 8.49219
q-0.486328 4.02344 -7.30371 6.70508q-6.81836 -3.57617 -11.2002 -10.7275q-4.38281 -7.15137 -6.33105 -12.5146q-27.2705 -92.9678 -35.0615 -182.807q-7.79199 -89.8398 -7.79199 -184.595zM105.898 564.758q0 -12.5146 9.25293 -18.7725
q9.25195 -6.25684 21.9131 -6.25684q20.4531 0 20.4531 20.5596q0 3.57617 -1.46094 8.49219q-1.46094 4.91699 -4.38281 8.93945t-6.81738 7.15137q-3.89648 3.12891 -7.79199 3.12891q-11.6875 0 -21.4268 -6.7041q-9.73926 -6.70508 -9.73926 -16.5381z" />
    <glyph glyph-name="cent" unicode="&#xa2;" horiz-adv-x="260" 
d="M17 100q0 8 1.5 29.5t5.5 49.5t10 58t15.5 54.5t22.5 41t30 16.5h7q0 18 1 32q1 31 4.5 40t9.5 -18q5 -19 11 -57q13 -2 25 -6q24 -10 35 -25.5t10 -33t-17 -31.5q-8 5 -10.5 12t-3 15t-2 15.5t-7 12t-17.5 5.5h-7q0 -1 1 -3q10 -69 25 -193q6 -22 8 -37q1 -10 2 -22
q10 7 20 15q21 15 39.5 33.5t34.5 35.5h19l-0.5 -3.5t-1.5 -5.5q-14 -29 -35 -53t-46 -41q-14 -10 -30 -18q1 -13 -1 -27q-1 -17 -4 -29.5t-12 -12.5q-8 0 -13 12.5t-9 27.5q-2 8 -2 15q-22 -5 -45 -5t-37.5 7.5t-22.5 21t-11 32t-3 40.5zM132 43q-5 27 -9.5 72t-7.5 93.5
t-4 95.5q-20 -14 -32 -38q-12 -25 -18.5 -55t-7.5 -59t-1 -52q0 -28 10.5 -47t42.5 -19q14 0 28 3q-1 3 -1 6z" />
    <glyph glyph-name="sterling" unicode="&#xa3;" horiz-adv-x="485" 
d="M90 34q-4 33 -1.5 57.5t6 46.5t8 44.5t6.5 52.5q-22 0 -36.5 -9.5t-29.5 -23.5h-4h-5q-18 0 -18 18t18 30.5t39 21t39 14.5t18 12q-11 60 -1 106t32.5 77.5t53.5 48.5t62.5 19t60.5 -10.5t47 -39.5q-3 3 -9 -7t-11 -23t-9 -23t-4 -6q-6 29 -24.5 40.5t-42 8.5t-48.5 -18
t-43 -38.5t-25 -53.5t4 -63q2 0 8.5 3t13.5 6t13 5l9 3h9l2 -7t4.5 -14.5t4 -14.5t1.5 -8l-74 -34q-1 1 -6 -13t-10.5 -36.5t-10 -50.5t-5.5 -53t3 -44t15 -24q14 10 36.5 20t49.5 17t56.5 10.5t56.5 1.5t51 -11t40 -27q1 0 2.5 -5.5t3.5 -12t3 -12.5l2 -5q2 -2 -13 2t-40 9
t-57.5 9.5t-66 4t-65 -8.5t-55.5 -27q-9 0 -20 1t-20 5t-16 11t-8 18z" />
    <glyph glyph-name="currency" unicode="&#xa4;" horiz-adv-x="556" 
d="M212 88q-13 0 -23.5 1.5t-18 4.5t-15 9.5t-16.5 17.5q-2 -3 -9 -11t-15.5 -17t-16 -16t-10.5 -7q-10 0 -15.5 4t-11.5 14q6 7 16.5 20t21.5 27t21.5 27t15.5 19q0 27 4 57t11.5 59t19.5 55.5t29 48.5q-5 13 -15 29q-26 0 -43.5 -7.5t-28.5 -11t-16 3t-5 35.5
q20 9 42.5 18.5t44.5 9.5q24 0 37 -13.5t16 -34.5q17 12 38 19t47 7q18 0 29 -8.5t17 -23.5q3 0 17 8.5t29.5 18t28.5 16.5t14 4q15 -2 18.5 -8t-2 -13.5t-16.5 -16.5t-25.5 -16.5t-29 -12.5t-26.5 -7q3 -17 3 -36v-33q0 -40 -8.5 -84.5t-30.5 -81.5q6 -17 17 -29.5
t28 -14.5q18 -1 33.5 3t31 9.5t30.5 10.5t33 5q0 -16 -13.5 -28t-32 -19.5t-38 -11.5t-31.5 -4q-32 0 -52 12t-32 32q-18 -18 -41.5 -28.5t-55.5 -10.5zM169 133q9 -9 21 -9h24q38 0 62 19.5t37.5 49t18.5 64t5 64.5q0 54 -9 77.5t-22.5 27t-29 -8t-29 -27.5t-23.5 -30
t-10 -17q-16 -45 -30.5 -86.5t-14.5 -87.5v-8v-10v-11v-7z" />
    <glyph glyph-name="yen" unicode="&#xa5;" horiz-adv-x="458" 
d="M133 45h10q8 0 16 0.5t16 0.5h9q12 0 33 -1q17 -1 36 -2q3 8 4 15q5 26 9 51l3 20l-76 -4q-12 -6 -20.5 -12t-17.5 -11t-19 -8t-24 -3q-9 0 -19.5 5.5t-10.5 18.5q0 10 6 16.5t13.5 10t16 5t12.5 3.5q7 2 18 4l21 6q12 3 20.5 4.5t9.5 1.5h67q-51 11 -95 30
q-47 21 -81 54t-53.5 78.5t-19.5 106.5q0 9 -0.5 24.5t2.5 29.5t10.5 24.5t22.5 10.5q14 0 20.5 -3t6.5 -18q0 -13 -3 -25t-6 -23.5t-6 -24t-3 -24.5q0 -36 15 -70.5t40.5 -60.5t58.5 -42t69 -16h7q5 0 11 0.5t10 0.5h8q18 12 31.5 40t25.5 63.5t22.5 73.5t23 69t27.5 51
t35 20q1 0 4 -3t4 -6q1 -1 2 -7.5t2 -14.5t2.5 -17t2.5 -13v-4q-7 -48 -25 -91.5t-41 -84.5t-47 -82q-12 -22 -24 -46h95q1 0 6.5 -3t6.5 -5v-1l1 -3l-1 -2v-2q0 -2 -3 -5l-3 -3q-59 -11 -117 -12h-3q-18 -42 -27 -87v-3q18 0 37 -2q27 -2 49 -5.5t36 -7.5t14 -9l-0.5 -1
t-0.5 -2v-1q0 -2 -3 -5t-4 -3h-133q-1 -27 4 -57q0 -36 5.5 -70.5t5.5 -70.5q-13 0 -22 9t-14 23t-7.5 31.5t-3 34t0 30.5t0.5 21q0 25 3 49h-153q0 12 3 19t8.5 11t12.5 6.5t15 4.5z" />
    <glyph glyph-name="brokenbar" unicode="&#xa6;" horiz-adv-x="93" 
d="M20 333l2 238q0 10 8.5 19t18.5 9q1 0 4 -0.5t4 -0.5q11 -36 12.5 -100.5t-8.5 -167.5zM58 291q1 -59 3 -102.5t4 -73.5t4 -49.5t3.5 -32.5t2.5 -20t1 -13l-44 -4q-3 0 -5 13.5t-2.5 47.5t-0.5 91v144z" />
    <glyph glyph-name="section" unicode="&#xa7;" horiz-adv-x="340" 
d="M59 109q0 4 0.5 15.5t0.5 14.5q1 3 7.5 7t9.5 3q6 -1 12.5 -10.5t14 -23t17 -29.5t23 -30t30 -24.5t39.5 -14.5q7 -1 10.5 0.5t5.5 4.5t2 7v8q5 20 -8 42.5t-35.5 48t-49.5 53.5t-49 58.5t-34 63.5t-6 67q0 9 7.5 21.5t18.5 25.5v4q1 2 5.5 4.5t7.5 4.5q15 15 31 21
q-16 32 -21 68t11 78q0 10 9.5 24.5t23 28.5t29 23.5t26.5 9.5q16 0 30 -6t23 -19q9 -14 23 -35.5t24 -42.5t13 -37.5t-9 -20.5q-14 0 -23 8t-15.5 20t-11.5 27t-10.5 27t-14 20t-21.5 8q-18 0 -31 -11t-21.5 -27.5t-12.5 -34.5t-4 -33q0 -20 7.5 -38t17.5 -35
q37 -18 58.5 -39t32 -44.5t13.5 -46.5t3 -46q0 -9 -4.5 -19t-12 -18t-17 -13.5t-19.5 -5.5q-6 0 -17 4t-25 8.5t-28.5 10t-25.5 8.5q22 -19 49.5 -44.5t51 -54.5t39.5 -60.5t16 -63.5q0 -10 -4.5 -19.5t-12 -18t-17 -13.5t-19.5 -5q-29 0 -57.5 12t-52 31.5t-38.5 44
t-15 48.5zM205 265q22 9 30 23t6 29.5t-11.5 31t-23 27.5t-29 20t-29.5 9h-2l-1 1q-18 0 -33 -13q-18 -14 -16.5 -34.5t16.5 -39.5t39.5 -34.5t53.5 -19.5z" />
    <glyph glyph-name="dieresis" unicode="&#xa8;" horiz-adv-x="380" 
d="M84 546q0 10 4.5 20t17.5 10q12 0 21.5 -8t9.5 -19q0 -14 -9 -20.5t-21 -6.5q-13 0 -18 5t-5 19zM227 546q0 10 5 20t18 10q11 0 21 -8t10 -19q0 -14 -9.5 -20.5t-20.5 -6.5q-14 0 -19 5t-5 19z" />
    <glyph glyph-name="copyright" unicode="&#xa9;" horiz-adv-x="479" 
d="M14 178q0 30 6.5 65.5t19.5 72t32 70.5t44.5 60.5t57 42.5t68.5 16q32 0 59 -14t49 -37t39.5 -53t29.5 -61t18.5 -62t6.5 -55q0 -54 -26 -94.5t-66.5 -67.5t-90 -40.5t-96.5 -13.5q-43 0 -72 12t-46.5 34.5t-25 54t-7.5 70.5zM49 156q0 -29 9 -49t25.5 -32.5t38.5 -18
t49 -5.5q42 0 84.5 9.5t77 30.5t55.5 54.5t21 81.5q0 21 -5 47t-14.5 53.5t-23.5 53t-32 45.5t-40.5 32.5t-46.5 12.5q-17 0 -28.5 -1.5t-28.5 -8.5v-8q0 -2 1.5 -5.5t3 -8t3 -8.5t1.5 -5q0 -10 -5 -14t-12 -6t-14.5 -2.5t-12.5 -3.5q-33 -14 -53.5 -42.5t-32 -63t-16 -71
t-4.5 -67.5zM131 168q0 5 1.5 20.5t5.5 35t9 41t12.5 39.5t17.5 29.5t22 11.5q15 0 24 -10.5t14.5 -24.5t7 -28.5t1.5 -22.5q-16 0 -21 4.5t-6.5 11t-3.5 13.5t-13 11q-16 -9 -25.5 -25t-14 -35t-5 -38t-0.5 -33q0 -19 7.5 -30.5t31.5 -11.5q19 0 36.5 6.5t32.5 16.5
t29 21.5t25 22.5h14q0 -3 -2 -6q-21 -37 -59 -60.5t-86 -23.5q-17 0 -27.5 5t-16.5 13.5t-8.5 20.5t-2.5 26z" />
    <glyph glyph-name="ordfeminine" unicode="&#xaa;" horiz-adv-x="317" 
d="M142.85 213.507q-9.21289 -9.5166 -21.1885 -20.0918t-25.793 -19.5635q-13.8184 -8.98926 -28.8652 -15.0693q-15.0459 -6.08105 -31.0137 -6.08105q-32.5488 0 -32.5488 26.9658q0 11.1045 10.7471 29.3457q10.748 18.2422 27.9434 38.334
q17.1953 20.0928 38.0762 38.8633t41.7617 31.1963t38.3828 15.5977q17.5029 3.17285 28.5576 -8.98828q0 -14.2764 -2.45605 -28.5527q-2.45703 -14.2764 -4.91309 -28.2881q-2.45703 -14.0117 -4.91309 -27.7588q-2.45703 -13.748 -2.45703 -28.0234
q0 -3.17285 0.920898 -9.78223q0.921875 -6.60938 3.07129 -13.2188t5.83398 -11.6328q3.68457 -5.02246 9.82617 -5.02246q14.7393 0 24.2588 3.17188q9.51855 3.17285 16.5811 7.66699q7.0625 4.49512 12.2832 10.3105q5.21973 5.81641 11.0547 11.6328
q5.83398 5.81641 13.2031 11.1035q7.37012 5.28809 19.0391 8.45996v-1.58594v-2.64355q0 -13.2188 -9.21289 -26.1738q-9.21191 -12.9541 -23.3369 -23t-31.6279 -16.127q-17.5029 -6.08008 -34.084 -6.08008q-14.126 0 -22.7236 6.87305
q-8.59766 6.87402 -13.8184 16.3916q-5.21973 9.51758 -7.67676 20.8857q-2.45605 11.3682 -4.91211 20.8848zM153.903 282.773q6.1416 17.4482 4.60645 23.793q-1.53516 6.3457 -8.90527 5.02344q-7.36914 -1.32227 -19.0381 -8.98828q-11.6689 -7.66699 -25.1797 -18.5068
q-13.5107 -10.8389 -27.0215 -24.0576q-13.5117 -13.2188 -25.1797 -25.1152q-11.6689 -11.8975 -19.0381 -21.415q-7.37012 -9.5166 -9.21191 -13.7471q-3.68555 -12.1611 -0.921875 -18.5059q2.76367 -6.3457 8.59766 -8.72461q5.83496 -2.37891 12.8975 -0.792969
t11.9756 4.75879q10.4404 7.93066 26.4082 21.4141q15.9668 13.4834 31.0137 28.8164q15.0459 15.334 26.1006 30.4033t12.8965 25.6445z" />
    <glyph glyph-name="guillemotleft" unicode="&#xab;" horiz-adv-x="612" 
d="M205 197q4 11 29 28.5t60 36.5t76 38t78 33t65.5 21.5t38.5 3.5l-11 -30q-12 -5 -42 -19t-64.5 -30t-64.5 -30t-42 -20q-3 -2 -11 -7t-17.5 -10.5t-17.5 -10.5t-11 -7l-2 -2t-1 -2v-4q1 -2 6.5 -8t6.5 -7q53 -33 111 -63.5t116 -54.5q1 -1 3 -5.5t1 -5.5v-5l-1 -1
q-1 -1 -1 -2q-2 -1 -5 -3l-6 -3l-14 3.5t-20.5 4.5t-20.5 4.5t-14 2.5q-1 0 -3.5 1.5t-4.5 2.5q-10 4 -31 13t-46.5 21.5t-52 28t-47 31t-32.5 30t-8 26.5zM19 207q4 11 28.5 28.5t59.5 36.5t75.5 37.5t78 32.5t65.5 21.5t38 3.5l-11 -28q-8 -4 -24.5 -12t-37.5 -18t-44 -21
t-44 -20.5t-37 -17.5l-24 -12q-4 -2 -12.5 -6.5t-17.5 -10t-17.5 -11t-11.5 -8.5l-1 -2l-1 -1q-1 0 -1 -3q0 -1 1 -2t6 -6.5t7 -6.5q52 -33 110 -64t116 -55q2 -1 3.5 -5t1.5 -5v-2q0 -1 -0.5 -2t-0.5 -2l-1 -2l-1 -1q-1 -2 -5 -3.5t-6 -2.5l-14 3.5t-21 5t-20 4.5t-13 3
q-1 1 -4.5 2t-4.5 2q-10 3 -31 12.5t-46.5 22t-51.5 27.5t-47 30.5t-32 30.5t-7 27z" />
    <glyph glyph-name="logicalnot" unicode="&#xac;" horiz-adv-x="492" 
d="M427 211l-48 6l2 123q-2 1 -9.5 3.5t-8.5 2.5q-32 6 -65.5 8t-67.5 3t-67.5 2.5t-64.5 4.5q-1 1 -1 2v1.5v2.5v2v1q0 1 -1.5 5.5t-3 9.5t-3 9t-0.5 4q10 7 41 9.5t72.5 1.5t86 -5.5t81 -12t57.5 -17.5t15 -22z" />
    <glyph glyph-name="uni00AD" unicode="&#xad;" horiz-adv-x="352" 
d="M40 330q0 10 3 15.5t15 10.5q32 -2 60.5 -3t57.5 0.5t59 4.5t66 8h4q8 0 19 -6t11 -15q0 -11 -2 -21.5t-14 -10.5q-9 0 -16.5 5t-15.5 5h-4q-30 -7 -47 -10t-29 -4.5t-20.5 -1t-21 1.5t-31.5 2t-49 1h-8q-4 0 -10 0.5t-11 0.5h-7q-7 3 -8 7.5t-1 9.5z" />
    <glyph glyph-name="registered" unicode="&#xae;" horiz-adv-x="527" 
d="M53 216q0 29 6.5 64.5t19 72t32 70.5t45 61t56.5 43t68 16q32 0 59 -14.5t49.5 -37t39.5 -52.5t29 -61.5t18.5 -62t6.5 -55.5q0 -53 -26 -93.5t-66.5 -67.5t-90 -41t-96.5 -14q-43 0 -71.5 12t-46 34.5t-25 54t-7.5 71.5zM88 193q0 -28 9 -48t25 -32.5t38.5 -18.5
t49.5 -6q49 0 97.5 13.5t83.5 43.5q-26 -5 -51.5 -1t-48 15t-40.5 28t-28 38h-3q-1 0 -2.5 -8.5t-2.5 -14.5q-1 -5 -0.5 -15.5t0.5 -21.5t-1 -21t-4 -12l-15 -1h-3q-2 1 -5 3.5t-3 4.5q-1 3 -1.5 16.5t-1 28.5t-0.5 28t-1 17v3q0 5 -1 21.5t-2 36t-1.5 36.5t-0.5 21v2
q0 18 6.5 38t19 37.5t29.5 29.5t38 12q12 0 25.5 -7t25.5 -17t19.5 -22t7.5 -23q5 -17 0.5 -32t-14.5 -28t-23.5 -24.5t-27.5 -21t-25.5 -17.5t-17.5 -14q0 -10 10.5 -21.5t24 -22.5t28.5 -20t24 -13q3 -1 9 -3.5t13 -6t13.5 -6.5t9.5 -4q6 -2 17 -2.5t19 -3.5
q19 21 30.5 47.5t11.5 60.5q0 21 -5.5 46.5t-15 53t-23.5 53.5t-32 46t-40 32t-47 12q-17 0 -28.5 -1.5t-28.5 -7.5v-9q-26 -23 -51.5 -54t-45 -68.5t-31.5 -81.5t-12 -93zM211 375q0 -19 -1.5 -40t10.5 -38q6 4 22.5 16t33 27t29 30t12.5 24q0 20 -15.5 26.5t-35.5 6.5
q-28 0 -41.5 -14.5t-13.5 -37.5z" />
    <glyph glyph-name="macron" unicode="&#xaf;" horiz-adv-x="352" 
d="M35 533q0 11 3.5 16t15.5 10q31 -2 59.5 -2.5t57.5 0.5t59.5 4t65.5 8h5q7 0 18.5 -6t11.5 -15q0 -10 -2.5 -20.5t-14.5 -10.5q-9 0 -16 4.5t-15 4.5h-4q-29 -6 -47 -9.5t-30 -5t-20.5 -1t-21 1.5t-31 2t-49.5 1h-7q-5 0 -10.5 0.5t-10.5 0.5h-7q-8 3 -9 7.5t-1 9.5z" />
    <glyph glyph-name="degree" unicode="&#xb0;" horiz-adv-x="165" 
d="M1.10547 151.687v4.84375q0 3.46094 -0.319336 7.38184q-0.319336 3.92188 -0.319336 7.38184v5.30566q0 12.9189 2.55273 27.6826t7.65723 28.835q5.10547 14.0713 13.7197 27.2207q8.61426 13.1484 21.6963 23.0684q13.0811 9.91895 30.3105 15.917t39.5635 5.99805
q14.6768 0 22.335 -6.22852q7.65723 -6.22852 10.5283 -15.4561q2.87207 -9.22754 3.19043 -19.377q0.319336 -10.1504 0.319336 -17.9932q0 -17.9932 -5.10449 -37.6016q-5.10547 -19.6084 -16.5918 -35.7559t-31.5869 -26.7588t-50.0928 -10.6113
q-8.93359 0 -15.3145 0.460938q-6.38184 0.460938 -11.4863 2.53711q-5.10547 2.07617 -10.21 5.0752q-5.10547 2.99902 -10.8477 8.07422zM23.4395 159.991q5.74316 -4.15234 13.4004 -4.15234h14.6768q24.249 0 39.5635 8.99609q15.3154 8.99707 23.9297 22.377
q8.61523 13.3789 12.124 29.2959q3.50977 15.917 3.50977 29.7588q0 6.45898 0.319336 14.0713t-1.91406 14.3018q-2.2334 6.69043 -7.97656 11.0732t-17.2295 4.38281q0 -7.38184 -2.55273 -11.0723q-2.55273 -3.69141 -6.7002 -5.0752t-9.57129 -1.61523
q-5.4248 -0.230469 -11.4863 -1.61426q-6.0625 -1.38477 -11.8057 -4.15234q-5.74316 -2.76855 -10.21 -9.68848q-10.21 -20.7617 -19.4629 -39.9082t-9.25293 -40.3701v-3.45996t0.319336 -4.84375q0.319336 -2.76855 0.319336 -4.84473v-3.45996z" />
    <glyph glyph-name="plusminus" unicode="&#xb1;" horiz-adv-x="331" 
d="M53 129q0 10 3.5 15.5t14.5 10.5q30 -2 57.5 -3t54.5 0l-17 144h-7q-3 0 -6 0.5t-5 0.5q-29 0 -56.5 -5t-56.5 -12q-5 3 -11 11.5t-6 14.5q0 1 3.5 4.5t4.5 3.5q7 2 24 5t37 7.5t37.5 8t23.5 5.5q3 1 9.5 4t8.5 5q-1 10 -0.5 23t4 25.5t11 23t20.5 15.5l13 -9v-78h104
q0 -8 -7.5 -12t-13.5 -6q-5 -1 -15.5 -3.5t-23.5 -5.5t-24 -5t-16 -3q-2 -12 -4 -20.5t-2.5 -16.5t-1 -15.5t-0.5 -17.5q0 -22 3 -44.5t5 -45.5q23 2 46.5 4.5t49.5 6.5h4q7 0 19 -6t12 -16t-2.5 -20.5t-15.5 -10.5q-9 0 -15.5 5t-15.5 5h-4q-29 -7 -46.5 -10t-29.5 -4.5
t-21 -1.5t-21 1t-31 2t-50 1h-7q-5 0 -10.5 0.5t-10.5 0.5h-7q-7 4 -8 8.5t-1 9.5z" />
    <glyph glyph-name="twosuperior" unicode="&#xb2;" horiz-adv-x="229" 
d="M39.8516 153.006q0 5.64941 0.259766 8.70898q0.259766 3.06055 4.93652 8.23828q14.0293 17.8896 30.1367 36.9551q16.1064 19.0664 29.6162 39.5449q13.5098 20.4775 22.3428 42.6035t8.83301 45.6641q0 22.5967 -13.5098 31.7764q-13.5088 9.18066 -35.8516 9.18066
q-15.0684 0 -23.1221 -5.41406t-13.7686 -11.5342q-5.71582 -6.11914 -11.4316 -11.2979t-16.1074 -5.17871q-6.23535 0 -7.79395 2.8252q-1.55859 2.82422 -1.55859 8.00293q0 11.7686 8.83301 20.0068t21.0439 13.417q12.21 5.17871 25.7197 7.29688
q13.5088 2.11816 23.3818 2.11816q13.5088 0 25.46 -4.23633q11.9502 -4.2373 21.3027 -12.0049t14.5488 -18.5947q5.19629 -10.8281 5.19629 -24.4805q0 -24.9502 -9.09375 -47.3115q-9.09277 -22.3613 -22.3418 -43.3105q-13.25 -20.9482 -29.3574 -40.9561
t-30.1357 -39.3086q-0.519531 -0.941406 -2.0791 -4.2373q-1.55859 -3.29492 -2.07812 -4.23633q4.15723 -2.8252 6.49512 -3.53125t6.49512 -0.706055h2.85742h1.81836l104.438 20.7139h20.7832q0 -5.17871 -9.35254 -9.65039q-9.35254 -4.47266 -23.3818 -8.47461
q-14.0283 -4.00098 -30.915 -7.53223q-16.8867 -3.53027 -31.9551 -6.11914q-15.0684 -2.58984 -26.2393 -4.00195q-11.1719 -1.41211 -14.2891 -1.41211h-4.67676q-2.59766 0 -5.71484 0.235352q-3.11816 0.235352 -6.23535 0.235352h-3.63672
q-7.79395 1.88281 -8.83398 6.35547q-1.03906 4.47168 -1.03906 9.65039z" />
    <glyph glyph-name="threesuperior" unicode="&#xb3;" horiz-adv-x="271" 
d="M12.6641 184.182q0 0.978516 0.254883 2.44727t0.254883 2.44727q12.2314 -4.89453 21.9141 -9.79004q9.68359 -4.89551 19.3672 -8.56641q9.68262 -3.6709 20.3857 -5.87402q10.7021 -2.20312 24.9717 -2.20312q17.3281 0 37.2041 4.40625
q19.876 4.40527 36.6943 13.9502q16.8184 9.5459 28.0312 23.9863q11.2119 14.4404 11.2119 34.999q0 10.7695 -3.56738 20.0693q-3.56836 9.30078 -10.1934 16.1533q-6.625 6.85352 -15.7988 11.0146q-9.17383 4.16016 -19.876 4.16016q-10.1934 0 -18.6025 -4.16016
q-8.4082 -4.16113 -16.3086 -9.05566q-7.89941 -4.89551 -16.0537 -8.81152t-17.3271 -3.91602q-3.56836 0 -7.39062 0.734375t-3.82227 5.62891q0 5.38477 6.88086 11.748q6.87988 6.36426 16.8184 14.4404q9.9375 8.07715 21.4043 17.1328t21.4053 20.0693
t16.5635 23.4961t6.625 26.1885q0 9.30078 -3.3125 14.6855q-3.3125 5.38379 -8.66406 8.07617q-5.35059 2.69238 -12.7412 3.18164q-7.38965 0.490234 -15.5439 0.490234q-20.8955 0 -35.6748 -7.83203t-22.9336 -26.4336q-7.64551 0.978516 -10.4482 6.85352
q-2.80273 5.87305 -2.80273 12.2373q0 11.748 10.7021 18.6006q10.7031 6.85352 24.9727 10.7695q14.2705 3.91602 28.54 5.13965q14.2705 1.22363 20.8955 1.22363q22.9336 0 35.9297 -12.9717t12.9961 -34.0205q0 -9.30078 -2.29297 -18.1113
q-2.29395 -8.81152 -6.11621 -16.8877q-3.82227 -8.07715 -8.66406 -16.1543q-4.8418 -8.07617 -9.9375 -16.8877q13.7598 -4.40527 25.9912 -12.4824q12.2314 -8.07617 21.1504 -19.0898t14.2705 -24.2305q5.35059 -13.2168 5.35059 -27.4121q0 -22.0273 -12.9961 -38.4258
q-12.9951 -16.3984 -32.1074 -27.4121q-19.1113 -11.0137 -41.2812 -16.6436q-22.1689 -5.62891 -40.5166 -5.62891q-8.1543 0 -23.9531 2.44727t-31.8525 7.09766t-28.0303 11.9932q-11.9766 7.3418 -11.9766 17.1328z" />
    <glyph glyph-name="acute" unicode="&#xb4;" horiz-adv-x="145" 
d="M73 568q-6 -6 -12 -15t-13.5 -16t-15.5 -8.5t-16 8.5l36 62q5 15 16.5 29.5t21.5 24.5q10 14 21 -1q8 -9 5 -21t-11 -24t-17.5 -22.5t-14.5 -16.5z" />
    <glyph glyph-name="mu" unicode="&#xb5;" horiz-adv-x="435" 
d="M93 527q-5 -112 -1 -181.5t13.5 -105t24 -41t31.5 10.5t34 49t33 74t30 87t22 87q2 8 9 9t12 1q2 0 7 -0.5t7 -0.5q0 -8 0.5 -23.5t1.5 -35.5t2 -41.5t2 -41.5t1.5 -36t1.5 -23q-1 -59 1.5 -91.5t5.5 -47.5q1 -12 3 -15q-3 2 -10 3q-8 1 -23 -9q-9 10 -9 32.5t1 50t0 57
t-11 51.5q2 -12 -4 -34.5t-18.5 -48.5t-31 -52.5t-41 -46t-47.5 -29t-52 -1.5q-14 -121 -27.5 -173.5t-21 -41.5t-6.5 84t16 202v314z" />
    <glyph glyph-name="paragraph" unicode="&#xb6;" horiz-adv-x="379" 
d="M88 311q-24 0 -38.5 5.5t-23 16.5t-11.5 27.5t-3 38.5q0 38 15.5 64t41.5 42.5t58.5 24.5t66 11.5t64.5 3.5h53q2 0 5 -0.5l3 -0.5q4 -12 6.5 -25.5t3.5 -34.5t1 -52.5t-1.5 -79t-4 -114t-5.5 -156.5q2 -4 5 -14t6.5 -21.5t6 -23t2.5 -20.5h-20l-3.5 6t-7.5 14l-8.5 17
t-6.5 15q-1 3 -2.5 8t-2.5 10.5t-2 10.5t-1 7v405q-8 -6 -17 -12t-19 -12v-16q0 -8 -0.5 -23t-1 -39.5t-2 -66t-3 -102t-4.5 -147.5q2 -4 5.5 -13.5t6.5 -21t5.5 -23t2.5 -20.5h-20l-3 6l-8 14q-4 8 -8 17t-6 15q-1 3 -2.5 8t-3 10.5t-2.5 10.5t-1 7v279
q-15 -25 -43.5 -40.5t-72.5 -15.5z" />
    <glyph glyph-name="periodcentered" unicode="&#xb7;" horiz-adv-x="178" 
d="M39 221q0 8 2 16.5t6.5 15t12 11t17.5 4.5t19.5 -3t17 -9t12.5 -13.5t5 -16.5q0 -22 -16 -32t-36 -10q-23 0 -31.5 7.5t-8.5 29.5z" />
    <glyph glyph-name="cedilla" unicode="&#xb8;" horiz-adv-x="262" 
d="M46 -151v6v9v10v5q2 3 8.5 7t9.5 3q10 -2 14.5 -11t13 -20t25 -21.5t50.5 -15.5q14 -3 16.5 4.5t2.5 16.5q-2 17 -15.5 27t-32.5 18.5t-39 17t-33 22.5t-16.5 37t11.5 60q1 15 7 19.5t14 2t15.5 -9.5t10.5 -16.5t-1 -19t-17 -15.5q0 -25 10.5 -39t26 -23t33.5 -15
t33 -14.5t25.5 -22.5t10.5 -38q0 -9 -4.5 -19t-12 -18t-16.5 -13.5t-19 -5.5q-29 0 -53 2t-41.5 9.5t-27 21.5t-9.5 39z" />
    <glyph glyph-name="onesuperior" unicode="&#xb9;" horiz-adv-x="96" 
d="M50.7715 367.908q1.91504 0 4.78613 -0.216797q2.87207 -0.21582 3.8291 -0.21582q5.74219 -9.10254 7.17871 -15.1699q1.43555 -6.06738 1.43555 -14.7354v-9.10254q0 -3.90039 -0.957031 -7.80078q-0.958008 -3.90137 -2.87207 -8.01855t-4.78516 -9.75195v-136.091
q0.957031 -1.7334 3.82812 -5.85059t6.22168 -9.10156q3.34961 -4.98438 5.26465 -9.96875q1.91406 -4.98438 1.91406 -8.88477h-17.2285q-0.957031 0 -4.30762 2.60059q-3.34961 2.60059 -7.17871 6.06738q-3.82812 3.46777 -7.65723 7.36816
q-3.82812 3.90039 -6.7002 6.50098q0 1.30078 -1.43555 3.46777t-2.87109 4.55078t-2.39355 4.55078q-0.957031 2.16699 -0.957031 3.03418v184.633q0 4.33398 8.13574 8.23438t16.75 3.90039z" />
    <glyph glyph-name="ordmasculine" unicode="&#xba;" horiz-adv-x="165" 
d="M1.10547 151.687v4.84375q0 3.46094 -0.319336 7.38184q-0.319336 3.92188 -0.319336 7.38184v5.30566q0 12.9189 2.55273 27.6826t7.65723 28.835q5.10547 14.0713 13.7197 27.2207q8.61426 13.1484 21.6963 23.0684q13.0811 9.91895 30.3105 15.917t39.5635 5.99805
q14.6768 0 22.335 -6.22852q7.65723 -6.22852 10.5283 -15.4561q2.87207 -9.22754 3.19043 -19.377q0.319336 -10.1504 0.319336 -17.9932q0 -17.9932 -5.10449 -37.6016q-5.10547 -19.6084 -16.5918 -35.7559t-31.5869 -26.7588t-50.0928 -10.6113
q-8.93359 0 -15.3145 0.460938q-6.38184 0.460938 -11.4863 2.53711q-5.10547 2.07617 -10.21 5.0752q-5.10547 2.99902 -10.8477 8.07422zM23.4395 159.991q5.74316 -4.15234 13.4004 -4.15234h14.6768q24.249 0 39.5635 8.99609q15.3154 8.99707 23.9297 22.377
q8.61523 13.3789 12.124 29.2959q3.50977 15.917 3.50977 29.7588q0 6.45898 0.319336 14.0713t-1.91406 14.3018q-2.2334 6.69043 -7.97656 11.0732t-17.2295 4.38281q0 -7.38184 -2.55273 -11.0723q-2.55273 -3.69141 -6.7002 -5.0752t-9.57129 -1.61523
q-5.4248 -0.230469 -11.4863 -1.61426q-6.0625 -1.38477 -11.8057 -4.15234q-5.74316 -2.76855 -10.21 -9.68848q-10.21 -20.7617 -19.4629 -39.9082t-9.25293 -40.3701v-3.45996t0.319336 -4.84375q0.319336 -2.76855 0.319336 -4.84473v-3.45996z" />
    <glyph glyph-name="guillemotright" unicode="&#xbb;" horiz-adv-x="556" 
d="M277 127q0 3 10 18.5t23 33.5t24.5 34t14.5 20q4 5 18.5 25t31.5 43.5t31.5 43.5t18.5 25q4 6 9.5 14t11 16.5t8.5 14.5l4 6v25q0 1 -17 7.5t-41 14.5l-49.5 16.5t-41.5 13.5l-45 9q-15 3 -28 5t-16 2q-14 3 -21 8.5t-7 27.5q0 12 6.5 14.5t12.5 2.5q2 0 5.5 -0.5
l3.5 -0.5l256 -85q2 -1 6.5 -3t9 -4.5t8 -7t3.5 -10.5q0 -13 -3 -23t-8 -21q-5 -8 -16.5 -26.5t-24.5 -38.5t-25 -38t-17 -25q-6 -7 -21 -27.5t-33 -43.5t-34 -44t-23 -30l-6 -6q-3 -3 -7.5 -6.5t-8.5 -7.5t-6 -5h-5q-3 1 -7 4t-5 4v2v3zM136 91q0 3 10 18.5t23 33.5
t24.5 34t15.5 20q4 5 18.5 25t31.5 43.5t31.5 43t18.5 25.5q4 5 9.5 13.5t10.5 17t9 14.5l4 6v25q0 1 -17.5 7.5t-41 14.5t-49 16.5t-41.5 12.5q-4 2 -18 4l-27 6q-15 3 -28.5 5t-16.5 2q-13 3 -20.5 8.5t-7.5 27.5q0 12 7 14.5t13 2.5q2 0 5 -0.5l3 -0.5l256 -85q2 -1 7 -3
t9.5 -4.5t8 -7t3.5 -10.5q0 -13 -3 -23t-8 -21q-5 -8 -16.5 -26.5t-25.5 -38.5l-25 -38q-12 -18 -17 -25q-6 -7 -21 -27.5t-32.5 -43.5t-34 -44t-23.5 -30l-5 -6q-3 -3 -7.5 -6.5t-8.5 -7.5l-6 -6h-6q-2 2 -6.5 5t-5.5 4v2v3z" />
    <glyph glyph-name="onequarter" unicode="&#xbc;" horiz-adv-x="553" 
d="M81 462.775q2 0 5 -0.28125q3 -0.280273 4 -0.280273q6 -11.8096 7.5 -19.6816t1.5 -19.1182v-11.8096q0 -5.06055 -1 -10.1211q-1 -5.06152 -3 -10.4033t-5 -12.6523v-176.567q1 -2.24902 4 -7.59082t6.5 -11.8086t5.5 -12.9336t2 -11.5273h-18q-1 0 -4.5 3.37402
t-7.5 7.87207q-4 4.49902 -8 9.55957t-7 8.43457q0 1.6875 -1.5 4.49902t-3 5.9043t-2.5 5.9043t-1 3.93652v239.547q0 5.62305 8.5 10.6836t17.5 5.06055zM33 -89q11 54 25 106t37 103l226 525l62 60h20q0 -16 -7 -36.5t-19 -43.5t-26 -47t-28 -47t-26.5 -43t-18.5 -35
q-57 -126 -110 -252t-100 -255v-11q0 -8 -1.5 -18t-5 -19.5t-10.5 -12.5q-1 -1 -2 -1h-5q-1 0 -2 1t-4 7.5t-5 10.5v8zM388.15 188.33q1.51367 2.40137 -1.13672 6.60449q-2.65039 4.20215 -4.92188 4.20215q-4.54395 1.20117 -18.9316 -3.60254
q-14.3877 -4.80273 -34.0771 -12.3076q-19.6885 -7.50488 -42.0273 -16.5117q-22.3398 -9.00586 -42.7861 -17.1113q-20.4453 -8.10547 -36.7266 -13.5088t-23.8545 -5.40332q-10.6016 0 -12.4941 3.90234q-1.89355 3.90234 -1.89355 9.90625t3.0293 11.1074
t6.81543 9.90723q3.78613 4.80273 8.70801 9.00586q4.92285 4.20312 8.70898 9.00586q3.78613 5.40332 10.9805 15.0098q7.19336 9.60645 14.7666 19.5137q7.57227 9.90625 13.6309 18.0117q6.05762 8.10547 6.81543 9.90723q2.27148 3.60156 8.70801 14.1094
q6.43652 10.5068 14.7666 25.2168t18.5527 31.5215q10.2236 16.8105 19.6895 33.3223q9.46582 16.5107 17.7949 30.6201q8.33008 14.1094 12.874 22.5146q3.78613 6.60449 6.43652 14.1104q2.65039 7.50488 6.43652 13.8086q3.78613 6.30469 10.2236 10.5068
q6.43652 4.20312 17.0381 4.20312q1.51465 0 6.81543 -0.299805q5.30078 -0.300781 6.05859 -0.300781q12.1152 -12.0078 22.7178 -24.6162q10.6016 -12.6084 18.9316 -26.418q8.3291 -13.8086 13.252 -28.5186q4.92188 -14.71 4.92188 -29.7197
q0 -10.8076 -2.65039 -19.8135q-2.65039 -9.00684 -5.67969 -18.0127l-6.81543 -18.0117q-3.78613 -8.40527 -4.54297 -18.0117q-2.27246 -16.2109 -3.4082 -30.6211q-1.13574 -14.4092 -2.27148 -28.2188t-1.13574 -27.9189v-29.1191v-24.0166
q0 -9.60645 0.756836 -18.9121q0.757812 -9.30664 1.89355 -19.8135t4.16504 -26.1182q1.51465 -8.40527 4.92188 -16.21q3.4082 -7.80566 7.19434 -15.9111t6.81543 -15.9102q3.02832 -7.80566 3.02832 -15.6113q-15.9023 0 -26.125 10.8076
q-10.2236 10.8076 -16.6602 25.2168q-6.43652 14.4102 -9.08691 29.7197q-2.65039 15.3105 -3.4082 24.3164q-0.756836 6.00391 -1.89258 21.0146q-1.13574 15.0098 -2.27148 31.5205q-1.13672 16.5117 -1.89355 31.5215t-0.756836 20.4141zM229.882 178.724h6.81543
q0.756836 0 12.873 3.60254q12.1162 3.60156 28.7764 8.40527q16.6602 4.80273 34.4551 10.207q17.7959 5.40332 29.1553 9.00586q6.81543 1.80078 14.0088 5.10352q7.19434 3.30176 13.2529 7.50488q6.05762 4.20312 9.84375 9.90625q3.78613 5.7041 3.78613 12.3086
q0 2.40137 -0.37793 6.9043q-0.378906 4.50293 -0.378906 5.10352q-0.756836 3.60254 -1.51465 11.708q-0.756836 8.10547 -1.51465 16.2109q-0.756836 8.10547 -1.89258 15.3105q-1.13672 7.2041 -1.89355 9.00586q-1.51465 5.40332 -3.40723 14.4092
q-1.89355 9.00684 -3.78711 17.1123q-1.89258 8.10547 -3.78613 14.4092l-1.89258 6.30469l-6.81543 5.40332q-1.51465 -0.600586 -4.16504 -3.60254t-6.05859 -6.30371q-3.40723 -3.30273 -6.05762 -6.60449q-2.65039 -3.30273 -4.16504 -4.50391
q-1.51465 -2.40137 -6.05859 -9.90625q-4.54297 -7.50488 -10.6016 -17.7119q-6.05762 -10.207 -12.873 -21.6143q-6.81543 -11.4082 -12.4951 -21.915t-10.2227 -18.3125q-4.54395 -7.80469 -6.81543 -10.2061q-2.27246 -3.60254 -9.08691 -12.6084
q-6.81543 -9.00684 -14.0098 -18.9131t-13.6309 -18.9131q-6.43652 -9.00586 -9.46582 -12.0078v-4.80273zM401.023 355.242q0 -5.4043 -0.757812 -15.0107q-0.756836 -9.60645 -0.37793 -19.5127q0.37793 -9.90723 3.40723 -17.7119q3.0293 -7.80566 11.3594 -9.00586
q6.05762 6.60449 9.84375 16.2109q3.78711 9.60645 3.78711 17.4111v2.40137q-0.757812 3.00195 -2.65039 9.30664q-1.89355 6.30371 -4.16504 13.209q-2.27246 6.9043 -4.54395 12.3076q-2.27148 5.4043 -2.27148 7.20508q-0.757812 1.80176 -3.0293 5.4043
q-2.27148 3.60156 -3.78613 5.40332q-6.81543 -5.40332 -6.81543 -13.8096v-13.8086z" />
    <glyph glyph-name="onehalf" unicode="&#xbd;" horiz-adv-x="567" 
d="M55.4561 483.37q2.1709 0 5.42871 -0.334961q3.25684 -0.333984 4.34277 -0.333984q6.51367 -14.04 8.14258 -23.4004q1.62793 -9.35938 1.62793 -22.7314v-14.04t-1.08496 -12.0342q-1.08594 -6.01758 -3.25684 -12.3691q-2.17188 -6.35156 -5.42871 -15.043v-209.934
q1.08496 -2.6748 4.34277 -9.02637q3.25684 -6.35156 7.05664 -14.04t5.97168 -15.377q2.1709 -7.68848 2.1709 -13.7061h-19.542q-1.08594 0 -4.88574 4.01172t-8.14258 9.35938q-4.34277 5.34961 -8.68555 11.3662q-4.34277 6.01758 -7.59961 10.0283
q0 2.00586 -1.62891 5.34961q-1.62891 3.34277 -3.25684 7.01953q-1.62891 3.67773 -2.71484 7.02051q-1.08496 3.34277 -1.08496 4.67969v284.814q0 6.68652 9.22754 12.7031q9.22852 6.01758 19 6.01758zM16 -128q11 54 25 106t37 103l226 525l62 60h20q0 -16 -7 -36.5
t-19 -43.5t-26 -47t-28 -47t-26.5 -43t-18.5 -35q-57 -126 -110 -252t-100 -255v-11q0 -8 -1.5 -18t-5 -19.5t-10.5 -12.5q-1 -1 -2 -1h-5q-1 0 -2 1t-4 7.5t-5 10.5v8zM240.328 14.793q0 6.98633 0.422852 10.7705q0.422852 3.7832 8.03027 10.1875
q22.8242 22.1221 49.0303 45.6992q26.2051 23.5771 48.1836 48.9004q21.9795 25.3232 36.3496 52.6846q14.3711 27.3613 14.3711 56.4688q0 27.9434 -21.9795 39.2959q-21.9785 11.3516 -58.3281 11.3516q-24.5146 0 -37.6172 -6.69434q-13.1025 -6.69531 -22.4014 -14.2627
q-9.29883 -7.56836 -18.5977 -13.9717q-9.29883 -6.4043 -26.2051 -6.4043q-10.1445 0 -12.6807 3.49316q-2.53516 3.49316 -2.53516 9.89648q0 14.5537 14.3701 24.7422q14.3711 10.1875 34.2363 16.5908q19.8652 6.4043 41.8447 9.02344q21.9785 2.62012 38.04 2.62012
q21.9785 0 41.4209 -5.23926q19.4434 -5.24023 34.6592 -14.8457t23.6689 -22.9941q8.4541 -13.3896 8.4541 -30.2725q0 -30.8545 -14.7939 -58.5068q-14.793 -27.6523 -36.3496 -53.5576q-21.5557 -25.9062 -47.7617 -50.6475q-26.2051 -24.7412 -49.0293 -48.6094
q-0.844727 -1.16504 -3.38086 -5.24023q-2.53613 -4.07422 -3.38184 -5.23926q6.7627 -3.49219 10.5674 -4.36621q3.80371 -0.873047 10.5664 -0.873047h4.64941h2.95801l169.913 25.6152h33.8135q0 -6.4043 -15.2158 -11.9346t-38.04 -10.4785t-50.2979 -9.31445
t-51.9883 -7.56836q-24.5146 -3.20117 -42.6895 -4.94824q-18.1748 -1.74609 -23.2471 -1.74609h-7.60742q-4.22656 0 -9.29883 0.291016t-10.1445 0.291016h-5.91699q-12.6797 2.32812 -14.3711 7.85938q-1.69043 5.53027 -1.69043 11.9336z" />
    <glyph glyph-name="threequarters" unicode="&#xbe;" horiz-adv-x="799" 
d="M15.9209 185.521q0 1.24414 0.350586 3.11035t0.350586 3.11035q16.8301 -6.2207 30.1533 -12.4414t26.6465 -10.8867q13.3232 -4.66504 28.0498 -7.46484q14.7256 -2.79883 34.3604 -2.79883q23.8418 0 51.1895 5.59863q27.3486 5.59863 50.4893 17.7295
q23.1406 12.1299 38.5674 30.4805q15.4277 18.3516 15.4277 44.4785q0 13.6855 -4.90918 25.5049q-4.9082 11.8193 -14.0244 20.5283t-21.7383 13.9961q-12.6221 5.28809 -27.3477 5.28809q-14.0254 0 -25.5957 -5.28809q-11.5703 -5.28711 -22.4395 -11.5078
t-22.0889 -11.1973t-23.8418 -4.97656q-4.9082 0 -10.168 0.933594q-5.25879 0.932617 -5.25879 7.15332q0 6.84277 9.4668 14.9297t23.1406 18.3506q13.6738 10.2646 29.4512 21.7734q15.7783 11.5078 29.4521 25.5039q13.6738 13.9971 22.79 29.8594
q9.11621 15.8633 9.11621 33.2812q0 11.8193 -4.55859 18.6621q-4.55762 6.84277 -11.9209 10.2637q-7.3623 3.42188 -17.5303 4.04395t-21.3877 0.62207q-28.751 0 -49.0859 -9.95312q-20.3359 -9.95312 -31.5557 -33.5918q-10.5186 1.24414 -14.376 8.70898
q-3.85645 7.46484 -3.85645 15.5518q0 14.9297 14.7256 23.6387q14.7266 8.70898 34.3604 13.6855q19.6348 4.97656 39.2695 6.53223q19.6348 1.55469 28.751 1.55469q31.5547 0 49.4365 -16.4844q17.8818 -16.4854 17.8818 -43.2344q0 -11.8193 -3.15625 -23.0166
q-3.15527 -11.1973 -8.41504 -21.4619q-5.25879 -10.2637 -11.9209 -20.5273q-6.66113 -10.2646 -13.6738 -21.4619q18.9336 -5.59863 35.7627 -15.8623q16.8301 -10.2646 29.1016 -24.2617q12.2715 -13.9961 19.6348 -30.792q7.3623 -16.7959 7.3623 -34.8359
q0 -27.9932 -17.8809 -48.833q-17.8818 -20.8389 -44.1777 -34.8359q-26.2969 -13.9961 -56.7998 -21.1504q-30.5039 -7.15332 -55.748 -7.15332q-11.2197 0 -32.958 3.11035t-43.8271 9.01953q-22.0889 5.91016 -38.5674 15.2412q-16.4795 9.33105 -16.4795 21.7725z
M232 -83q11 54 25 106t37 103l226 525l62 60h20q0 -16 -7 -36.5t-19 -43.5t-26 -47t-28 -47t-26.5 -43t-18.5 -35q-57 -126 -110 -252t-100 -255v-11q0 -8 -1.5 -18t-5 -19.5t-10.5 -12.5q-1 -1 -2 -1h-5q-1 0 -2 1t-4 7.5t-5 10.5v8zM621.705 204.322
q1.73535 2.67383 -1.30078 7.35547q-3.03516 4.68066 -5.63672 4.68066q-5.20312 1.33691 -21.6816 -4.0127q-16.4775 -5.34961 -39.0254 -13.708q-22.5488 -8.3584 -48.1328 -18.3896q-25.584 -10.0303 -48.999 -19.0576q-23.416 -9.02734 -42.0615 -15.0459
q-18.6465 -6.01758 -27.3184 -6.01758q-12.1416 0 -14.3096 4.3457q-2.16895 4.34668 -2.16895 11.0342q0 6.68652 3.46973 12.3711q3.46875 5.68359 7.80469 11.0332q4.33691 5.34961 9.97363 10.0303q5.63672 4.68164 9.97363 10.0312q4.33594 6.01758 12.5752 16.7168
q8.23828 10.6992 16.9111 21.7334q8.67188 11.0332 15.6104 20.0605q6.9375 9.02734 7.80469 11.0342q2.60254 4.01172 9.97363 15.7139q7.37207 11.7021 16.9111 28.0859q9.54004 16.3828 21.248 35.1064t22.5488 37.1133q10.8398 18.3887 20.3799 34.1035t14.7432 25.0762
q4.33594 7.35547 7.37207 15.7148q3.03516 8.3584 7.37109 15.3799q4.33691 7.02148 11.708 11.7021q7.37207 4.68066 19.5127 4.68066q1.73535 0 7.80566 -0.333984q6.07031 -0.334961 6.9375 -0.334961q13.877 -13.373 26.0176 -27.416q12.1416 -14.043 21.6816 -29.4229
t15.1768 -31.7637q5.63672 -16.3828 5.63672 -33.1006q0 -12.0371 -3.03516 -22.0674t-6.50391 -20.0605l-7.80566 -20.0615q-4.33594 -9.36133 -5.20312 -20.0605q-2.60156 -18.0547 -3.90234 -34.1035q-1.30176 -16.0488 -2.60254 -31.4297
q-1.30078 -15.3799 -1.30078 -31.0947v-32.4316v-26.748q0 -10.6992 0.867188 -21.0645q0.867188 -10.3643 2.16797 -22.0664q1.30176 -11.7021 4.77051 -29.0889q1.73438 -9.36133 5.63672 -18.0547t8.23926 -17.7207q4.33594 -9.02734 7.80469 -17.7207
q3.46973 -8.69336 3.46973 -17.3867q-18.2129 0 -29.9209 12.0371q-11.707 12.0371 -19.0791 28.0859q-7.37109 16.0488 -10.4072 33.1006q-3.03516 17.0518 -3.90234 27.082q-0.867188 6.68652 -2.16797 23.4043t-2.60156 35.1074q-1.30078 18.3887 -2.16797 35.1064
q-0.868164 16.7178 -0.868164 22.7363zM440.45 193.623h7.80566q0.867188 0 14.7432 4.01172t32.9551 9.36133q19.0801 5.34961 39.46 11.3682q20.3809 6.01855 33.3896 10.0303q7.80469 2.00684 16.0439 5.68457q8.23828 3.67773 15.1768 8.3584
q6.9375 4.68164 11.2744 11.0342q4.33594 6.35254 4.33594 13.708q0 2.6748 -0.433594 7.69043q-0.433594 5.01465 -0.433594 5.68359q-0.867188 4.0127 -1.73438 13.04l-1.73438 18.0547t-2.16797 17.0518t-2.16895 10.0303q-1.73438 6.01855 -3.90234 16.0488
q-2.16797 10.0312 -4.33594 19.0586t-4.33594 16.0488l-2.16895 7.02148l-7.80469 6.01758q-1.73438 -0.667969 -4.77051 -4.01172q-3.03516 -3.34375 -6.9375 -7.02148t-6.93848 -7.35547q-3.03516 -3.67773 -4.76953 -5.01562q-1.73438 -2.6748 -6.9375 -11.0332
q-5.2041 -8.35938 -12.1416 -19.7266q-6.93848 -11.3682 -14.7432 -24.0742q-7.80566 -12.7051 -14.3096 -24.4072q-6.50488 -11.7021 -11.708 -20.3955q-5.2041 -8.69336 -7.80566 -11.3672q-2.60156 -4.0127 -10.4072 -14.043q-7.80469 -10.0312 -16.0439 -21.0645
q-8.23828 -11.0332 -15.6104 -21.0645q-7.37109 -10.0303 -10.8408 -13.373v-5.34961zM636.449 390.221q0 -6.01855 -0.867188 -16.7178q-0.868164 -10.6992 -0.43457 -21.7324q0.43457 -11.0342 3.90332 -19.7266q3.46875 -8.69336 13.0088 -10.0303
q6.9375 7.35547 11.2744 18.0547q4.33594 10.6992 4.33594 19.3926v2.67383q-0.867188 3.34375 -3.03516 10.3652q-2.16895 7.02148 -4.77051 14.7119q-2.60156 7.68945 -5.20312 13.708t-2.60156 8.02441q-0.867188 2.00586 -3.46973 6.01855
q-2.60156 4.01172 -4.33594 6.01758q-7.80469 -6.01758 -7.80469 -15.3799v-15.3799z" />
    <glyph glyph-name="questiondown" unicode="&#xbf;" horiz-adv-x="392" 
d="M168.201 512.837q0 -5.83301 4.89551 -12.498q4.89551 -6.66602 12.2393 -12.915q7.34277 -6.24805 15.666 -9.99805q8.32227 -3.74902 15.1758 -3.74902q9.79199 0 11.75 8.33203t1.95801 14.1641q0 14.1641 -13.2178 25.4121q-13.2188 11.248 -30.8428 11.248
q-10.7705 0 -14.1973 -5.41602q-3.42676 -5.41504 -3.42676 -14.5801zM133.932 266.212q0 -24.9951 13.708 -45.8252q13.707 -20.8301 33.29 -39.9932q19.582 -19.1631 43.5713 -37.0771q23.9883 -17.9141 43.5713 -37.4932q19.582 -19.5801 33.29 -41.2432t13.708 -47.4922
q0 -23.3291 -8.8125 -38.7432t-23.9883 -24.9961q-15.1768 -9.58105 -36.7178 -13.7471t-46.0186 -4.16602q-29.374 0 -59.7266 1.66602q-30.3535 1.66602 -55.8105 13.3311q-2.9375 0.833008 -12.7285 6.66602q-9.79102 5.83203 -12.7285 8.33105
q-0.979492 0.833984 -3.42676 2.91699q-2.44824 2.08301 -5.38574 4.58203q-2.9375 2.5 -5.38477 4.16602q-2.44824 1.66699 -3.42773 1.66699q-5.87402 1.66602 -13.707 0.833008t-14.6875 -3.75q-6.85352 -2.91602 -11.2598 -7.49805q-4.40625 -4.58301 -4.40625 -12.082
q0 -9.16504 14.1973 -17.0801t35.7383 -14.1641t47.4883 -11.248q25.9463 -4.99902 49.9346 -8.33203q23.9893 -3.33301 42.5928 -4.99902t25.457 -1.66602q34.2695 0 61.1953 9.16504t45.5293 26.2451t28.8838 39.9932q10.2812 22.9131 10.2812 51.2412
q0 23.3291 -14.1973 46.2422t-35.249 44.5752q-21.0508 21.6631 -45.5293 42.0762q-24.4775 20.4131 -45.5293 39.5771q-21.0508 19.1631 -34.7588 37.4932t-13.708 34.9941q0 13.3311 4.89648 25.8291q4.89551 12.498 4.89551 27.4951q-12.7295 0 -21.541 -5.41602
q-8.8125 -5.41504 -14.1973 -13.7471q-5.38574 -8.33203 -7.34375 -18.3301q-1.95801 -9.99902 -1.95801 -19.9971z" />
    <glyph glyph-name="Agrave" unicode="&#xc0;" horiz-adv-x="672" 
d="M87 26q0 2 0.5 5l0.5 3q15 29 31.5 56t34 53.5t34 54t30.5 55.5q-4 9 -20 16t-38.5 15t-47.5 18.5t-46 25t-35 34t-14 45.5q0 27 18 47.5t44 34t55 20.5t50 7q44 0 77.5 -15t69.5 -39q12 9 20.5 20t15.5 24q3 7 13.5 25.5t21 39.5t21 39.5t13.5 26.5q8 6 13 7.5t14 1.5
h4.5h4.5q10 -42 15 -86t7.5 -88t4.5 -88t7 -88q3 0 11 -0.5t12 -0.5q14 0 28 3t28 6.5t28.5 6.5t29.5 3h3l4 -4t5 -4q-6 -11 -19.5 -17.5t-30 -10.5t-34.5 -7.5t-32 -8t-23.5 -10.5t-9.5 -17q0 -20 2.5 -40t6 -40.5t6.5 -41t3 -41.5q0 -5 -0.5 -14t-2 -18t-6 -16t-13.5 -7
q-10 0 -18 15t-13 38t-8.5 50.5t-6 53t-5.5 45t-6 25.5q-8 1 -29.5 2t-45 2.5t-44.5 3t-29 1.5h-10q-20 0 -37.5 -18.5t-32 -47t-28.5 -61t-27 -61t-27 -47.5t-30 -19q-11 0 -14.5 8.5t-3.5 18.5zM288 296q8 -5 19.5 -7.5t23.5 -2.5h22.5h18.5q4 0 10 0.5t12 0.5t10.5 0.5
t5.5 0.5l9 8q2 2 -7 18t-22.5 33.5t-26.5 32t-18 14.5q-1 0 -2 -1t-3 -1q-15 -22 -28 -46t-24 -50zM61 408q0 -26 18 -45.5t44 -32.5t55 -19t51 -6q14 0 29 14.5t27.5 33.5t21 39t8.5 31q0 12 -16 22.5t-37.5 18.5t-42.5 12.5t-31 4.5q-15 0 -36.5 -4.5t-42 -13.5
t-34.5 -22.5t-14 -32.5zM375 441q0 -13 10 -32t24 -37t29.5 -31t27.5 -13q0 5 -0.5 15t-1 22t-1 22t-0.5 15q-2 14 -4.5 37t-5 45t-5 39t-3.5 18l-9 17q-1 -1 -4.5 -4t-4.5 -4q-3 -6 -10 -19.5t-15.5 -28.5t-15.5 -29t-10 -19q0 -2 -0.5 -7t-0.5 -6zM416 748
q-7 6 -18.5 16.5t-21 23t-13 25t6.5 21.5q8 7 13 7t13 -6q10 -11 24.5 -25.5t20.5 -29.5l43 -62q-9 -10 -19 -8.5t-18.5 8t-16.5 15.5t-14 15z" />
    <glyph glyph-name="Aacute" unicode="&#xc1;" horiz-adv-x="672" 
d="M87 26q0 2 0.5 5l0.5 3q15 29 31.5 56t34 53.5t34 54t30.5 55.5q-4 9 -20 16t-38.5 15t-47.5 18.5t-46 25t-35 34t-14 45.5q0 27 18 47.5t44 34t55 20.5t50 7q44 0 77.5 -15t69.5 -39q12 9 20.5 20t15.5 24q3 7 13.5 25.5t21 39.5t21 39.5t13.5 26.5q8 6 13 7.5t14 1.5
h4.5h4.5q10 -42 15 -86t7.5 -88t4.5 -88t7 -88q3 0 11 -0.5t12 -0.5q14 0 28 3t28 6.5t28.5 6.5t29.5 3h3l4 -4t5 -4q-6 -11 -19.5 -17.5t-30 -10.5t-34.5 -7.5t-32 -8t-23.5 -10.5t-9.5 -17q0 -20 2.5 -40t6 -40.5t6.5 -41t3 -41.5q0 -5 -0.5 -14t-2 -18t-6 -16t-13.5 -7
q-10 0 -18 15t-13 38t-8.5 50.5t-6 53t-5.5 45t-6 25.5q-8 1 -29.5 2t-45 2.5t-44.5 3t-29 1.5h-10q-20 0 -37.5 -18.5t-32 -47t-28.5 -61t-27 -61t-27 -47.5t-30 -19q-11 0 -14.5 8.5t-3.5 18.5zM288 296q8 -5 19.5 -7.5t23.5 -2.5h22.5h18.5q4 0 10 0.5t12 0.5t10.5 0.5
t5.5 0.5l9 8q2 2 -7 18t-22.5 33.5t-26.5 32t-18 14.5q-1 0 -2 -1t-3 -1q-15 -22 -28 -46t-24 -50zM61 408q0 -26 18 -45.5t44 -32.5t55 -19t51 -6q14 0 29 14.5t27.5 33.5t21 39t8.5 31q0 12 -16 22.5t-37.5 18.5t-42.5 12.5t-31 4.5q-15 0 -36.5 -4.5t-42 -13.5
t-34.5 -22.5t-14 -32.5zM375 441q0 -13 10 -32t24 -37t29.5 -31t27.5 -13q0 5 -0.5 15t-1 22t-1 22t-0.5 15q-2 14 -4.5 37t-5 45t-5 39t-3.5 18l-9 17q-1 -1 -4.5 -4t-4.5 -4q-3 -6 -10 -19.5t-15.5 -28.5t-15.5 -29t-10 -19q0 -2 -0.5 -7t-0.5 -6zM479 753q-6 -6 -12 -15
t-13.5 -16t-15.5 -8.5t-16 8.5l36 62q5 15 16.5 29.5t21.5 24.5q10 14 21 -1q8 -9 5 -21t-11 -24t-17.5 -22.5t-14.5 -16.5z" />
    <glyph glyph-name="Acircumflex" unicode="&#xc2;" horiz-adv-x="672" 
d="M87 26q0 2 0.5 5l0.5 3q15 29 31.5 56t34 53.5t34 54t30.5 55.5q-4 9 -20 16t-38.5 15t-47.5 18.5t-46 25t-35 34t-14 45.5q0 27 18 47.5t44 34t55 20.5t50 7q44 0 77.5 -15t69.5 -39q12 9 20.5 20t15.5 24q3 7 13.5 25.5t21 39.5t21 39.5t13.5 26.5q8 6 13 7.5t14 1.5
h4.5h4.5q10 -42 15 -86t7.5 -88t4.5 -88t7 -88q3 0 11 -0.5t12 -0.5q14 0 28 3t28 6.5t28.5 6.5t29.5 3h3l4 -4t5 -4q-6 -11 -19.5 -17.5t-30 -10.5t-34.5 -7.5t-32 -8t-23.5 -10.5t-9.5 -17q0 -20 2.5 -40t6 -40.5t6.5 -41t3 -41.5q0 -5 -0.5 -14t-2 -18t-6 -16t-13.5 -7
q-10 0 -18 15t-13 38t-8.5 50.5t-6 53t-5.5 45t-6 25.5q-8 1 -29.5 2t-45 2.5t-44.5 3t-29 1.5h-10q-20 0 -37.5 -18.5t-32 -47t-28.5 -61t-27 -61t-27 -47.5t-30 -19q-11 0 -14.5 8.5t-3.5 18.5zM288 296q8 -5 19.5 -7.5t23.5 -2.5h22.5h18.5q4 0 10 0.5t12 0.5t10.5 0.5
t5.5 0.5l9 8q2 2 -7 18t-22.5 33.5t-26.5 32t-18 14.5q-1 0 -2 -1t-3 -1q-15 -22 -28 -46t-24 -50zM61 408q0 -26 18 -45.5t44 -32.5t55 -19t51 -6q14 0 29 14.5t27.5 33.5t21 39t8.5 31q0 12 -16 22.5t-37.5 18.5t-42.5 12.5t-31 4.5q-15 0 -36.5 -4.5t-42 -13.5
t-34.5 -22.5t-14 -32.5zM375 441q0 -13 10 -32t24 -37t29.5 -31t27.5 -13q0 5 -0.5 15t-1 22t-1 22t-0.5 15q-2 14 -4.5 37t-5 45t-5 39t-3.5 18l-9 17q-1 -1 -4.5 -4t-4.5 -4q-3 -6 -10 -19.5t-15.5 -28.5t-15.5 -29t-10 -19q0 -2 -0.5 -7t-0.5 -6zM447 776q-2 0 -6.5 -6
t-10.5 -13.5t-10.5 -14t-4.5 -7.5q-26 -31 -39.5 -41.5t-17.5 -7t-1 17.5t10.5 32.5t17.5 39t19.5 36.5t17 24.5t9.5 2.5q5 9 14 13.5t17 4.5h4l18 -45t9 -21.5t6 -9t6 -10t9.5 -24t18.5 -49.5q-15 -15 -24.5 -19.5t-16 -1t-11 13.5t-9 24t-10.5 30t-15 31z" />
    <glyph glyph-name="Atilde" unicode="&#xc3;" horiz-adv-x="672" 
d="M87 26q0 2 0.5 5l0.5 3q15 29 31.5 56t34 53.5t34 54t30.5 55.5q-4 9 -20 16t-38.5 15t-47.5 18.5t-46 25t-35 34t-14 45.5q0 27 18 47.5t44 34t55 20.5t50 7q44 0 77.5 -15t69.5 -39q12 9 20.5 20t15.5 24q3 7 13.5 25.5t21 39.5t21 39.5t13.5 26.5q8 6 13 7.5t14 1.5
h4.5h4.5q10 -42 15 -86t7.5 -88t4.5 -88t7 -88q3 0 11 -0.5t12 -0.5q14 0 28 3t28 6.5t28.5 6.5t29.5 3h3l4 -4t5 -4q-6 -11 -19.5 -17.5t-30 -10.5t-34.5 -7.5t-32 -8t-23.5 -10.5t-9.5 -17q0 -20 2.5 -40t6 -40.5t6.5 -41t3 -41.5q0 -5 -0.5 -14t-2 -18t-6 -16t-13.5 -7
q-10 0 -18 15t-13 38t-8.5 50.5t-6 53t-5.5 45t-6 25.5q-8 1 -29.5 2t-45 2.5t-44.5 3t-29 1.5h-10q-20 0 -37.5 -18.5t-32 -47t-28.5 -61t-27 -61t-27 -47.5t-30 -19q-11 0 -14.5 8.5t-3.5 18.5zM288 296q8 -5 19.5 -7.5t23.5 -2.5h22.5h18.5q4 0 10 0.5t12 0.5t10.5 0.5
t5.5 0.5l9 8q2 2 -7 18t-22.5 33.5t-26.5 32t-18 14.5q-1 0 -2 -1t-3 -1q-15 -22 -28 -46t-24 -50zM61 408q0 -26 18 -45.5t44 -32.5t55 -19t51 -6q14 0 29 14.5t27.5 33.5t21 39t8.5 31q0 12 -16 22.5t-37.5 18.5t-42.5 12.5t-31 4.5q-15 0 -36.5 -4.5t-42 -13.5
t-34.5 -22.5t-14 -32.5zM375 441q0 -13 10 -32t24 -37t29.5 -31t27.5 -13q0 5 -0.5 15t-1 22t-1 22t-0.5 15q-2 14 -4.5 37t-5 45t-5 39t-3.5 18l-9 17q-1 -1 -4.5 -4t-4.5 -4q-3 -6 -10 -19.5t-15.5 -28.5t-15.5 -29t-10 -19q0 -2 -0.5 -7t-0.5 -6zM603 786q1 -12 -1 -33
t-6.5 -43t-10.5 -38.5t-13 -17.5q-16 3 -33.5 16t-35.5 29.5t-36.5 33.5t-36.5 29t-36 15t-35 -7q-11 -41 -24.5 -63t-21 -19t-4.5 32t24 89q23 18 46 17t44.5 -12.5t41 -30t37 -36.5t32.5 -31.5t28 -13.5q2 0 4.5 11.5t4 26.5t2 30t-0.5 23z" />
    <glyph glyph-name="Adieresis" unicode="&#xc4;" horiz-adv-x="672" 
d="M87 26q0 2 0.5 5l0.5 3q15 29 31.5 56t34 53.5t34 54t30.5 55.5q-4 9 -20 16t-38.5 15t-47.5 18.5t-46 25t-35 34t-14 45.5q0 27 18 47.5t44 34t55 20.5t50 7q44 0 77.5 -15t69.5 -39q12 9 20.5 20t15.5 24q3 7 13.5 25.5t21 39.5t21 39.5t13.5 26.5q8 6 13 7.5t14 1.5
h4.5h4.5q10 -42 15 -86t7.5 -88t4.5 -88t7 -88q3 0 11 -0.5t12 -0.5q14 0 28 3t28 6.5t28.5 6.5t29.5 3h3l4 -4t5 -4q-6 -11 -19.5 -17.5t-30 -10.5t-34.5 -7.5t-32 -8t-23.5 -10.5t-9.5 -17q0 -20 2.5 -40t6 -40.5t6.5 -41t3 -41.5q0 -5 -0.5 -14t-2 -18t-6 -16t-13.5 -7
q-10 0 -18 15t-13 38t-8.5 50.5t-6 53t-5.5 45t-6 25.5q-8 1 -29.5 2t-45 2.5t-44.5 3t-29 1.5h-10q-20 0 -37.5 -18.5t-32 -47t-28.5 -61t-27 -61t-27 -47.5t-30 -19q-11 0 -14.5 8.5t-3.5 18.5zM288 296q8 -5 19.5 -7.5t23.5 -2.5h22.5h18.5q4 0 10 0.5t12 0.5t10.5 0.5
t5.5 0.5l9 8q2 2 -7 18t-22.5 33.5t-26.5 32t-18 14.5q-1 0 -2 -1t-3 -1q-15 -22 -28 -46t-24 -50zM61 408q0 -26 18 -45.5t44 -32.5t55 -19t51 -6q14 0 29 14.5t27.5 33.5t21 39t8.5 31q0 12 -16 22.5t-37.5 18.5t-42.5 12.5t-31 4.5q-15 0 -36.5 -4.5t-42 -13.5
t-34.5 -22.5t-14 -32.5zM375 441q0 -13 10 -32t24 -37t29.5 -31t27.5 -13q0 5 -0.5 15t-1 22t-1 22t-0.5 15q-2 14 -4.5 37t-5 45t-5 39t-3.5 18l-9 17q-1 -1 -4.5 -4t-4.5 -4q-3 -6 -10 -19.5t-15.5 -28.5t-15.5 -29t-10 -19q0 -2 -0.5 -7t-0.5 -6zM351 708q0 10 4.5 20
t17.5 10q12 0 21.5 -8t9.5 -19q0 -14 -9 -20.5t-21 -6.5q-13 0 -18 5t-5 19zM494 708q0 10 5 20t18 10q11 0 21 -8t10 -19q0 -14 -9.5 -20.5t-20.5 -6.5q-14 0 -19 5t-5 19z" />
    <glyph glyph-name="Aring" unicode="&#xc5;" horiz-adv-x="672" 
d="M373 634v12v12q0 18 5.5 39.5t19.5 39.5t36.5 30t57.5 12q15 0 23 -6t11 -14.5t3 -18.5v-16q0 -17 -4.5 -35.5t-17 -33.5t-32.5 -25q8 -35 12 -71q5 -43 7.5 -87t4.5 -88t7 -88q3 0 11 -0.5t12 -0.5q14 0 28 3t28 6.5t28.5 6.5t29.5 3h3l4 -4l5 -4q-6 -11 -19.5 -17.5
t-30 -10.5t-34.5 -7.5t-32 -8t-23.5 -10.5t-9.5 -17q0 -20 2.5 -40t6 -40.5t6.5 -41t3 -41.5q0 -5 -0.5 -14t-2 -18t-6 -16t-13.5 -7q-10 0 -18 15t-13 38t-8.5 50.5t-6 53t-5.5 45t-6 25.5q-8 1 -29.5 2t-45 2.5t-44.5 3t-29 1.5h-10q-20 0 -37.5 -18.5t-32 -47t-28.5 -61
t-27 -61t-27 -47.5t-30 -19q-11 0 -14.5 8.5t-3.5 18.5q0 2 0.5 5l0.5 3q15 29 31.5 56t34 53.5t34 54t30.5 55.5q-4 9 -20 16t-38.5 15t-47.5 18.5t-46 25t-35 34t-14 45.5q0 27 18 47.5t44 34t55 20.5t50 7q44 0 77.5 -15t69.5 -39q12 9 20.5 20t15.5 24q3 7 13.5 25.5
t21 39.5t20.5 39q3 5 5 9h-4q-19 0 -28.5 3t-21.5 12zM61 408q0 -26 18 -45.5t44 -32.5t55 -19t51 -6q14 0 29 14.5t27.5 33.5t21 39t8.5 31q0 12 -16 22.5t-37.5 18.5t-42.5 12.5t-31 4.5q-15 0 -36.5 -4.5t-42 -13.5t-34.5 -22.5t-14 -32.5zM375 441q0 -13 10 -32t24 -37
t29.5 -31t27.5 -13q0 5 -0.5 15t-1 22t-1 22t-0.5 15q-2 14 -4.5 37t-5 45t-5 39t-3.5 18l-9 17q-1 -1 -4.5 -4t-4.5 -4q-3 -6 -10 -19.5t-15.5 -28.5t-15.5 -29t-10 -19q0 -2 -0.5 -7t-0.5 -6zM396 642q6 -4 14 -4h28q6 5 11 6.5t14 1.5h2h1q16 9 25 21.5t12.5 27.5t3.5 29
q0 6 0.5 13t-1.5 13.5t-8 10.5t-19 4q0 -11 -5.5 -14t-14 -3.5t-17.5 -2.5t-17 -12q-10 -19 -19.5 -37t-9.5 -38v-16zM288 296q8 -5 19.5 -7.5t23.5 -2.5h22.5h18.5q4 0 10 0.5t12 0.5t10.5 0.5t5.5 0.5l9 8q2 2 -7 18t-22.5 33.5t-26.5 32t-18 14.5q-1 0 -2 -1t-3 -1
q-15 -22 -28 -46t-24 -50z" />
    <glyph glyph-name="AE" unicode="&#xc6;" horiz-adv-x="994" 
d="M87 26q0 2 0.5 5l0.5 3q15 29 31.5 56t34 53.5t34 54t30.5 55.5q-4 9 -20 16t-38.5 15t-47.5 18.5t-46 25t-35 34t-14 45.5q0 27 18 47.5t44 34t55 20.5t50 7q44 0 77.5 -15t69.5 -39q12 9 20.5 20t15.5 24q3 7 13.5 25.5t21 39.5t21 39.5t13.5 26.5q8 6 13 7.5t14 1.5
h4.5h4.5q9 -37 13.5 -75t7.5 -76q31 11 70.5 19.5t77 13.5t69 7.5t48.5 2.5h23q9 0 23.5 -1.5t28.5 -3t24 -2.5l11 -1l9 -9l-9 -9q-45 -1 -86 -4t-81.5 -7.5t-81.5 -12t-83 -19.5q-1 -2 -2 -8.5t-2.5 -13t-2.5 -13t-2 -9.5v-7q0 -3 1 -8.5t1 -9.5v-6q82 0 162 7.5t162 7.5
h12q6 0 10.5 -1.5t7.5 -6t3 -12.5q0 -5 -22.5 -13.5t-56.5 -19t-75 -23.5t-77 -27q-9 -14 -28.5 -21.5t-43.5 -11.5q-14 -10 -22 -18.5t-8 -17.5v-2v-2q1 -1 5 -4t4 -5q0 -1 1 -1v-2l1 -1l-1 -2q-1 -1 -1 -2l-9 -9q-1 -3 -4.5 -9.5t-3.5 -7.5q0 -33 11.5 -56.5t30.5 -38
t44.5 -21.5t53.5 -7q39 0 71 11t60 30t53.5 44.5t50.5 54.5q1 1 3.5 5.5t5.5 10.5l5.5 11t2.5 8q0 1 0.5 4.5t0.5 5.5q0 6 -3.5 9.5t-8.5 5t-10.5 2t-11.5 0.5q0 14 13 19.5t25 5.5q15 0 23 -10t8 -25q0 -28 -15 -56.5t-39 -55t-55.5 -49t-64.5 -39t-65 -26.5t-58 -10
q-37 0 -63.5 10.5t-45.5 29t-31.5 43t-21.5 54.5q3 -22 6.5 -44t3.5 -44q0 -5 -0.5 -14t-2 -18t-6 -16t-13.5 -7q-10 0 -18 15t-13 38t-8.5 50.5t-6 53t-5.5 45t-6 25.5l-148 9h-10q-20 0 -37.5 -18.5t-32 -47t-28.5 -61t-27 -61t-27 -47.5t-30 -19q-11 0 -14.5 8.5
t-3.5 18.5zM61 408q0 -26 18 -45.5t44 -32.5t55 -19t51 -6q14 0 29 14.5t27.5 33.5t21 39t8.5 31q0 12 -16 22.5t-37.5 18.5t-42.5 12.5t-31 4.5q-15 0 -36.5 -4.5t-42 -13.5t-34.5 -22.5t-14 -32.5zM375 441q0 -13 10 -32t24 -37t29.5 -31t27.5 -13q0 5 -0.5 15t-1 22
t-1 22t-0.5 15q-3 1 -2.5 13t1.5 28.5t2.5 36t-1 36t-8.5 28.5t-19 14q-1 -1 -4.5 -4t-4.5 -4l-51 -96q0 -2 -0.5 -7t-0.5 -6zM288 296q8 -5 19.5 -7.5t23.5 -2.5h22.5h18.5q4 0 10 0.5t12 0.5t10.5 0.5t5.5 0.5l9 8q2 2 -7 18t-22.5 33.5t-26.5 32t-18 14.5q-1 0 -2 -1
t-3 -1q-15 -22 -28 -46t-24 -50zM526 376q0 -21 1 -37q2 -14 3.5 -25t5.5 -11h9q1 0 13 5t28.5 11.5t34 14t28.5 12.5l35 18q-17 5 -38 7t-43 3.5t-42 1.5h-35z" />
    <glyph glyph-name="Ccedilla" unicode="&#xc7;" horiz-adv-x="462" 
d="M160 -151v6q0 4 0.5 9t0.5 10v5q2 3 8.5 7t9.5 3q10 -2 14.5 -11t12.5 -20t25 -21.5t51 -15.5q14 -3 16.5 4.5t2.5 16.5q-2 17 -16 27t-32.5 18.5t-38.5 17t-33 22.5t-17 38q-2 15 5 39q-16 3 -31 8q-35 13 -60.5 37t-39 59t-13.5 80q0 23 3 59.5t10.5 79t20.5 85
t31.5 77.5t43.5 57t58 22q40 0 68.5 -23t47 -56.5t28.5 -71.5t13 -68q-2 -12 -11 -19.5t-19 -7.5h-5l-4 5l-4 4q0 3 -0.5 7.5t-0.5 10.5t-0.5 10.5t-0.5 6.5q0 19 5 34t5 31v5q-12 14 -24 29.5t-25.5 28.5t-29.5 21.5t-36 8.5q-25 0 -45.5 -18.5t-35.5 -47t-26 -64t-18 -70
t-10 -64t-3 -46.5q0 -39 9 -72t29 -57t49 -38q15 -7 30 -10q2 4 5 6q6 5 14 2.5t15 -9.5l2 -2h5q21 0 44 4t45.5 11t44 17t39.5 22q2 0 7 4t10.5 8.5t11 8t6.5 5.5q1 0 4.5 0.5t4.5 0.5q2 0 5 -0.5t4 -0.5q-5 -21 -19 -37.5t-33.5 -29.5t-43.5 -22t-48 -15t-45 -9
q-20 -1 -35 -2q-4 -8 -16 -14q0 -25 10.5 -39t25.5 -23t33 -15t33.5 -14.5t26 -22.5t10.5 -38q0 -9 -4.5 -19t-12 -18t-17 -13.5t-18.5 -5.5q-29 0 -53 2t-41.5 9.5t-27.5 21.5t-10 39z" />
    <glyph glyph-name="Egrave" unicode="&#xc8;" horiz-adv-x="584" 
d="M88 184q-14 7 -20.5 14t-6.5 20q0 7 2.5 12t6 9.5t6.5 9.5t3 12q0 12 0.5 28t-1.5 32.5t-7.5 31t-18.5 23.5q3 1 9.5 7.5l8.5 8.5v2v1v2q0 13 -6.5 18t-15 7t-17.5 4t-13 10q11 15 36 26t56.5 19.5t66 14.5t67.5 10.5t59 6t41 1.5h23q9 0 23.5 -1.5t28.5 -3t24.5 -2.5
l10.5 -1l9 -8l-9 -10q-87 -3 -167.5 -11.5t-164.5 -31.5q-1 -2 -2 -8t-2.5 -13t-2.5 -13.5t-1 -8.5v-6.5t0.5 -9.5t0.5 -9v-7q82 0 162 7.5t162 7.5h12t10.5 -1.5t7.5 -6t3 -12.5q0 -5 -24.5 -14t-61.5 -20.5t-80.5 -25.5t-80.5 -29t-61.5 -31t-24.5 -31v-3v-1q1 -1 5 -4.5
t4 -5.5q0 -1 1 -1v-2q0 -1 1 -1l-0.5 -0.5t-0.5 -1.5q-1 -1 -1 -2t-4 -4.5t-5 -3.5q-1 -3 -4.5 -10t-3.5 -8q0 -33 11.5 -56.5t30.5 -38t44.5 -21.5t53.5 -7q39 0 71 11t60 30t53.5 44.5t50.5 55.5q1 0 3.5 5t5.5 10.5t5.5 11t2.5 7.5q0 1 0.5 4.5t0.5 5.5q0 6 -3.5 9.5
t-8.5 5.5t-10.5 2.5t-11.5 0.5q0 14 13 19t26 5q15 0 22.5 -10t7.5 -25q0 -28 -15 -56.5t-39 -55t-55.5 -49t-64.5 -39t-65 -26.5t-58 -10q-44 0 -73 14.5t-49 40t-31.5 59t-20.5 71.5zM112 352q0 -21 2 -36q1 -14 2.5 -25t5.5 -11h9q1 0 13 4.5t28.5 11.5t34 14.5
t28.5 11.5q3 1 7.5 4t10.5 5.5t10.5 5.5t7.5 3q-18 5 -39 7.5t-42.5 3.5t-42 1h-35.5zM294 725q-7 6 -18.5 16.5t-21 23t-13 25t6.5 21.5q8 7 13 7t13 -6q10 -11 24.5 -25.5t20.5 -29.5l43 -62q-9 -10 -19 -8.5t-18.5 8t-16.5 15.5t-14 15z" />
    <glyph glyph-name="Eacute" unicode="&#xc9;" horiz-adv-x="584" 
d="M88 184q-14 7 -20.5 14t-6.5 20q0 7 2.5 12t6 9.5t6.5 9.5t3 12q0 12 0.5 28t-1.5 32.5t-7.5 31t-18.5 23.5q3 1 9.5 7.5l8.5 8.5v2v1v2q0 13 -6.5 18t-15 7t-17.5 4t-13 10q11 15 36 26t56.5 19.5t66 14.5t67.5 10.5t59 6t41 1.5h23q9 0 23.5 -1.5t28.5 -3t24.5 -2.5
l10.5 -1l9 -8l-9 -10q-87 -3 -167.5 -11.5t-164.5 -31.5q-1 -2 -2 -8t-2.5 -13t-2.5 -13.5t-1 -8.5v-6.5t0.5 -9.5t0.5 -9v-7q82 0 162 7.5t162 7.5h12t10.5 -1.5t7.5 -6t3 -12.5q0 -5 -24.5 -14t-61.5 -20.5t-80.5 -25.5t-80.5 -29t-61.5 -31t-24.5 -31v-3v-1q1 -1 5 -4.5
t4 -5.5q0 -1 1 -1v-2q0 -1 1 -1l-0.5 -0.5t-0.5 -1.5q-1 -1 -1 -2t-4 -4.5t-5 -3.5q-1 -3 -4.5 -10t-3.5 -8q0 -33 11.5 -56.5t30.5 -38t44.5 -21.5t53.5 -7q39 0 71 11t60 30t53.5 44.5t50.5 55.5q1 0 3.5 5t5.5 10.5t5.5 11t2.5 7.5q0 1 0.5 4.5t0.5 5.5q0 6 -3.5 9.5
t-8.5 5.5t-10.5 2.5t-11.5 0.5q0 14 13 19t26 5q15 0 22.5 -10t7.5 -25q0 -28 -15 -56.5t-39 -55t-55.5 -49t-64.5 -39t-65 -26.5t-58 -10q-44 0 -73 14.5t-49 40t-31.5 59t-20.5 71.5zM112 352q0 -21 2 -36q1 -14 2.5 -25t5.5 -11h9q1 0 13 4.5t28.5 11.5t34 14.5
t28.5 11.5q3 1 7.5 4t10.5 5.5t10.5 5.5t7.5 3q-18 5 -39 7.5t-42.5 3.5t-42 1h-35.5zM290 722q-6 -6 -12 -15t-13.5 -16t-15.5 -8.5t-16 8.5l36 62q5 15 16.5 29.5t21.5 24.5q10 14 21 -1q8 -9 5 -21t-11 -24t-17.5 -22.5t-14.5 -16.5z" />
    <glyph glyph-name="Ecircumflex" unicode="&#xca;" horiz-adv-x="584" 
d="M88 184q-14 7 -20.5 14t-6.5 20q0 7 2.5 12t6 9.5t6.5 9.5t3 12q0 12 0.5 28t-1.5 32.5t-7.5 31t-18.5 23.5q3 1 9.5 7.5l8.5 8.5v2v1v2q0 13 -6.5 18t-15 7t-17.5 4t-13 10q11 15 36 26t56.5 19.5t66 14.5t67.5 10.5t59 6t41 1.5h23q9 0 23.5 -1.5t28.5 -3t24.5 -2.5
l10.5 -1l9 -8l-9 -10q-87 -3 -167.5 -11.5t-164.5 -31.5q-1 -2 -2 -8t-2.5 -13t-2.5 -13.5t-1 -8.5v-6.5t0.5 -9.5t0.5 -9v-7q82 0 162 7.5t162 7.5h12t10.5 -1.5t7.5 -6t3 -12.5q0 -5 -24.5 -14t-61.5 -20.5t-80.5 -25.5t-80.5 -29t-61.5 -31t-24.5 -31v-3v-1q1 -1 5 -4.5
t4 -5.5q0 -1 1 -1v-2q0 -1 1 -1l-0.5 -0.5t-0.5 -1.5q-1 -1 -1 -2t-4 -4.5t-5 -3.5q-1 -3 -4.5 -10t-3.5 -8q0 -33 11.5 -56.5t30.5 -38t44.5 -21.5t53.5 -7q39 0 71 11t60 30t53.5 44.5t50.5 55.5q1 0 3.5 5t5.5 10.5t5.5 11t2.5 7.5q0 1 0.5 4.5t0.5 5.5q0 6 -3.5 9.5
t-8.5 5.5t-10.5 2.5t-11.5 0.5q0 14 13 19t26 5q15 0 22.5 -10t7.5 -25q0 -28 -15 -56.5t-39 -55t-55.5 -49t-64.5 -39t-65 -26.5t-58 -10q-44 0 -73 14.5t-49 40t-31.5 59t-20.5 71.5zM112 352q0 -21 2 -36q1 -14 2.5 -25t5.5 -11h9q1 0 13 4.5t28.5 11.5t34 14.5
t28.5 11.5q3 1 7.5 4t10.5 5.5t10.5 5.5t7.5 3q-18 5 -39 7.5t-42.5 3.5t-42 1h-35.5zM333 776q-2 0 -6.5 -6t-10.5 -13.5t-10.5 -14t-4.5 -7.5q-26 -31 -39.5 -41.5t-17.5 -7t-1 17.5t10.5 32.5t17.5 39t19.5 36.5t17 24.5t9.5 2.5q5 9 14 13.5t17 4.5h4l18 -45t9 -21.5
t6 -9t6 -10t9.5 -24t18.5 -49.5q-15 -15 -24.5 -19.5t-16 -1t-11 13.5t-9 24t-10.5 30t-15 31z" />
    <glyph glyph-name="Edieresis" unicode="&#xcb;" horiz-adv-x="584" 
d="M88 184q-14 7 -20.5 14t-6.5 20q0 7 2.5 12t6 9.5t6.5 9.5t3 12q0 12 0.5 28t-1.5 32.5t-7.5 31t-18.5 23.5q3 1 9.5 7.5l8.5 8.5v2v1v2q0 13 -6.5 18t-15 7t-17.5 4t-13 10q11 15 36 26t56.5 19.5t66 14.5t67.5 10.5t59 6t41 1.5h23q9 0 23.5 -1.5t28.5 -3t24.5 -2.5
l10.5 -1l9 -8l-9 -10q-87 -3 -167.5 -11.5t-164.5 -31.5q-1 -2 -2 -8t-2.5 -13t-2.5 -13.5t-1 -8.5v-6.5t0.5 -9.5t0.5 -9v-7q82 0 162 7.5t162 7.5h12t10.5 -1.5t7.5 -6t3 -12.5q0 -5 -24.5 -14t-61.5 -20.5t-80.5 -25.5t-80.5 -29t-61.5 -31t-24.5 -31v-3v-1q1 -1 5 -4.5
t4 -5.5q0 -1 1 -1v-2q0 -1 1 -1l-0.5 -0.5t-0.5 -1.5q-1 -1 -1 -2t-4 -4.5t-5 -3.5q-1 -3 -4.5 -10t-3.5 -8q0 -33 11.5 -56.5t30.5 -38t44.5 -21.5t53.5 -7q39 0 71 11t60 30t53.5 44.5t50.5 55.5q1 0 3.5 5t5.5 10.5t5.5 11t2.5 7.5q0 1 0.5 4.5t0.5 5.5q0 6 -3.5 9.5
t-8.5 5.5t-10.5 2.5t-11.5 0.5q0 14 13 19t26 5q15 0 22.5 -10t7.5 -25q0 -28 -15 -56.5t-39 -55t-55.5 -49t-64.5 -39t-65 -26.5t-58 -10q-44 0 -73 14.5t-49 40t-31.5 59t-20.5 71.5zM112 352q0 -21 2 -36q1 -14 2.5 -25t5.5 -11h9q1 0 13 4.5t28.5 11.5t34 14.5
t28.5 11.5q3 1 7.5 4t10.5 5.5t10.5 5.5t7.5 3q-18 5 -39 7.5t-42.5 3.5t-42 1h-35.5zM193 700q0 10 4.5 20t17.5 10q12 0 21.5 -8t9.5 -19q0 -14 -9 -20.5t-21 -6.5q-13 0 -18 5t-5 19zM336 700q0 10 5 20t18 10q11 0 21 -8t10 -19q0 -14 -9.5 -20.5t-20.5 -6.5
q-14 0 -19 5t-5 19z" />
    <glyph glyph-name="Igrave" unicode="&#xcc;" horiz-adv-x="130" 
d="M35 166q-7 96 -12.5 186t-5.5 185v9t0.5 14.5t0.5 14.5v9q1 7 7 17.5t14 10.5q7 0 11.5 -6t6.5 -14t3 -15t1 -9q1 -8 2.5 -24.5t2.5 -34.5t2.5 -34t1.5 -21v-27v-47v-57.5v-57.5v-46.5v-26.5q0 -26 7.5 -50.5t15.5 -49t15 -49t7 -49.5q-12 0 -22.5 11t-19 27.5t-15 36.5
t-11.5 39t-8 34.5t-4 23.5zM66 725q-7 6 -18.5 16.5t-21 23t-13 25t6.5 21.5q8 7 13 7t13 -6q10 -11 24.5 -25.5t20.5 -29.5l43 -62q-9 -10 -19 -8.5t-18.5 8t-16.5 15.5t-14 15z" />
    <glyph glyph-name="Iacute" unicode="&#xcd;" horiz-adv-x="130" 
d="M35 166q-7 96 -12.5 186t-5.5 185v9t0.5 14.5t0.5 14.5v9q1 7 7 17.5t14 10.5q7 0 11.5 -6t6.5 -14t3 -15t1 -9q1 -8 2.5 -24.5t2.5 -34.5t2.5 -34t1.5 -21v-27v-47v-57.5v-57.5v-46.5v-26.5q0 -26 7.5 -50.5t15.5 -49t15 -49t7 -49.5q-12 0 -22.5 11t-19 27.5t-15 36.5
t-11.5 39t-8 34.5t-4 23.5zM66 722q-6 -6 -12 -15t-13.5 -16t-15.5 -8.5t-16 8.5l36 62q5 15 16.5 29.5t21.5 24.5q10 14 21 -1q8 -9 5 -21t-11 -24t-17.5 -22.5t-14.5 -16.5z" />
    <glyph glyph-name="Icircumflex" unicode="&#xce;" horiz-adv-x="130" 
d="M35 166q-7 96 -12.5 186t-5.5 185v9t0.5 14.5t0.5 14.5v9q1 7 7 17.5t14 10.5q7 0 11.5 -6t6.5 -14t3 -15t1 -9q1 -8 2.5 -24.5t2.5 -34.5t2.5 -34t1.5 -21v-27v-47v-57.5v-57.5v-46.5v-26.5q0 -26 7.5 -50.5t15.5 -49t15 -49t7 -49.5q-12 0 -22.5 11t-19 27.5t-15 36.5
t-11.5 39t-8 34.5t-4 23.5zM108 776q-2 0 -6.5 -6t-10.5 -13.5t-10.5 -14t-4.5 -7.5q-26 -31 -39.5 -41.5t-17.5 -7t-1 17.5t10.5 32.5t17.5 39t19.5 36.5t17 24.5t9.5 2.5q5 9 14 13.5t17 4.5h4l18 -45t9 -21.5t6 -9t6 -10t9.5 -24t18.5 -49.5q-15 -15 -24.5 -19.5t-16 -1
t-11 13.5t-9 24t-10.5 30t-15 31z" />
    <glyph glyph-name="Idieresis" unicode="&#xcf;" horiz-adv-x="130" 
d="M35 166q-7 96 -12.5 186t-5.5 185v9t0.5 14.5t0.5 14.5v9q1 7 7 17.5t14 10.5q7 0 11.5 -6t6.5 -14t3 -15t1 -9q1 -8 2.5 -24.5t2.5 -34.5t2.5 -34t1.5 -21v-27v-47v-57.5v-57.5v-46.5v-26.5q0 -26 7.5 -50.5t15.5 -49t15 -49t7 -49.5q-12 0 -22.5 11t-19 27.5t-15 36.5
t-11.5 39t-8 34.5t-4 23.5zM-31 700q0 10 4.5 20t17.5 10q12 0 21.5 -8t9.5 -19q0 -14 -9 -20.5t-21 -6.5q-13 0 -18 5t-5 19zM112 700q0 10 5 20t18 10q11 0 21 -8t10 -19q0 -14 -9.5 -20.5t-20.5 -6.5q-14 0 -19 5t-5 19z" />
    <glyph glyph-name="Eth" unicode="&#xd0;" 
d="M13 288q0 10 3.5 15.5t14.5 10.5q5 0 13 0.5t18.5 1t22.5 0.5l24 2v8v18t-1 39t-1.5 50t-0.5 50.5t-0.5 39.5t-0.5 18q0 4 1 14t2 21t2.5 21t3.5 13q15 13 23 16t23 3q42 0 83 -15.5t78 -42.5t67.5 -63t53 -76t35.5 -82.5t13 -81.5q0 -45 -18.5 -93t-50.5 -87t-74.5 -64
t-90.5 -25q-14 0 -27 2t-26.5 4t-27 3.5t-27.5 -0.5q-6 5 -22.5 17.5t-34.5 27t-34 26.5t-22 17q-9 7 -14.5 12.5t-5.5 18.5q15 0 26 -7.5t21.5 -16t22 -15.5t26.5 -7q3 38 3 67.5t-1 52t-3 38.5t-2 29q-9 0 -21.5 0.5t-28.5 0.5h-8q-4 0 -10 0.5t-11 0.5h-7q-7 4 -8 8.5
t-1 9.5zM139 561v-43v-64t1 -71t5 -63l17 2q16 3 25.5 1.5t17.5 -3t17.5 -2.5t26.5 3h4q7 0 18.5 -6t11.5 -16t-2 -20.5t-15 -10.5q-9 0 -15.5 5t-15.5 5h-4q-35 -8 -51 -11.5t-25 -3.5l20 -211q0 -1 3 -4.5t6 -4.5q2 -1 8.5 -3.5t15 -5.5t16.5 -5t11 -3h6q25 0 51 12.5
t50 32.5t44 46.5t35 54.5t24 56t9 52q0 29 -12 63t-32.5 68t-47.5 65.5t-57.5 55.5t-62 38.5t-61.5 14.5q-7 0 -14 -0.5t-13 -2.5t-10.5 -7t-4.5 -14z" />
    <glyph glyph-name="Ntilde" unicode="&#xd1;" horiz-adv-x="576" 
d="M114 392l-2.5 -17t-5 -41t-5.5 -48.5t-5 -41.5v-9q-2 -9 -5.5 -32.5t-7.5 -50t-8 -50t-5 -32.5q-3 -12 -11.5 -19.5t-20.5 -7.5q-6 0 -8.5 4.5t-3.5 11.5t-1 13.5v9.5q0 54 5 112.5t14 117.5t22 117t30 112q1 5 4.5 7t8 2h9h6.5h4.5h4.5h6l1.5 -4.5t3 -10.5t3 -11.5
t1.5 -9.5q6 -27 18 -72t30.5 -97.5t42 -106.5t52 -97.5t60.5 -70.5t67 -27q17 0 31 12t24.5 31.5t18 43.5t13 46.5t8 42t2.5 29.5q0 79 -16.5 153.5t-44.5 148.5q-6 8 -18 15t-18 11q3 7 8 8t11 1q19 0 34.5 -23t28 -58t22.5 -77t16 -81t9 -70t3 -42q0 -32 -5.5 -72.5
t-20.5 -76.5t-41.5 -61t-68.5 -25q-38 0 -70.5 24.5t-60 63t-51 86t-43.5 93t-36.5 84t-30.5 60.5zM449 779q1 -12 -1 -33t-6.5 -43t-10.5 -38.5t-13 -17.5q-16 3 -33.5 16t-35.5 29.5t-36.5 33.5t-36.5 29t-36 15t-35 -7q-11 -41 -24.5 -63t-21 -19t-4.5 32t24 89
q23 18 46 17t44.5 -12.5t41 -30t37 -36.5t32.5 -31.5t28 -13.5q2 0 4.5 11.5t4 26.5t2 30t-0.5 23z" />
    <glyph glyph-name="Ograve" unicode="&#xd2;" horiz-adv-x="472" 
d="M17 170q0 29 6.5 65t19 72.5t32 70.5t45 61t56.5 43t68 16q32 0 59 -14.5t49.5 -37t39.5 -52.5t29 -61.5t18.5 -62t6.5 -55.5q0 -35 -12 -65t-32.5 -54t-48 -42t-58.5 -30.5t-63.5 -18.5t-64.5 -6q-43 0 -71.5 12t-46 34.5t-25 54t-7.5 70.5zM52 148q0 -28 9 -48.5
t25 -33t38 -18t49 -5.5q42 0 85 9.5t77 31t55.5 55t21.5 81.5q0 30 -11.5 72t-32.5 80t-51.5 64.5t-67.5 26.5q-17 0 -28.5 -1.5t-28.5 -7.5v-5v-4q0 -1 1.5 -5t3.5 -8.5t3 -8.5t1 -5q0 -9 -5 -13.5t-11.5 -6.5t-14 -3t-13.5 -3q-33 -14 -53.5 -42t-32 -62.5t-15.5 -71.5
t-4 -68zM245 583q-7 6 -18.5 16.5t-21 23t-13 25t6.5 21.5q8 7 13 7t13 -6q10 -11 24.5 -25.5t20.5 -29.5l43 -62q-9 -10 -19 -8.5t-18.5 8t-16.5 15.5t-14 15z" />
    <glyph glyph-name="Oacute" unicode="&#xd3;" horiz-adv-x="472" 
d="M17 170q0 29 6.5 65t19 72.5t32 70.5t45 61t56.5 43t68 16q32 0 59 -14.5t49.5 -37t39.5 -52.5t29 -61.5t18.5 -62t6.5 -55.5q0 -35 -12 -65t-32.5 -54t-48 -42t-58.5 -30.5t-63.5 -18.5t-64.5 -6q-43 0 -71.5 12t-46 34.5t-25 54t-7.5 70.5zM52 148q0 -28 9 -48.5
t25 -33t38 -18t49 -5.5q42 0 85 9.5t77 31t55.5 55t21.5 81.5q0 30 -11.5 72t-32.5 80t-51.5 64.5t-67.5 26.5q-17 0 -28.5 -1.5t-28.5 -7.5v-5v-4q0 -1 1.5 -5t3.5 -8.5t3 -8.5t1 -5q0 -9 -5 -13.5t-11.5 -6.5t-14 -3t-13.5 -3q-33 -14 -53.5 -42t-32 -62.5t-15.5 -71.5
t-4 -68zM218 588q-6 -6 -12 -15t-13.5 -16t-15.5 -8.5t-16 8.5l36 62q5 15 16.5 29.5t21.5 24.5q10 14 21 -1q8 -9 5 -21t-11 -24t-17.5 -22.5t-14.5 -16.5z" />
    <glyph glyph-name="Ocircumflex" unicode="&#xd4;" horiz-adv-x="472" 
d="M17 170q0 29 6.5 65t19 72.5t32 70.5t45 61t56.5 43t68 16q32 0 59 -14.5t49.5 -37t39.5 -52.5t29 -61.5t18.5 -62t6.5 -55.5q0 -35 -12 -65t-32.5 -54t-48 -42t-58.5 -30.5t-63.5 -18.5t-64.5 -6q-43 0 -71.5 12t-46 34.5t-25 54t-7.5 70.5zM52 148q0 -28 9 -48.5
t25 -33t38 -18t49 -5.5q42 0 85 9.5t77 31t55.5 55t21.5 81.5q0 30 -11.5 72t-32.5 80t-51.5 64.5t-67.5 26.5q-17 0 -28.5 -1.5t-28.5 -7.5v-5v-4q0 -1 1.5 -5t3.5 -8.5t3 -8.5t1 -5q0 -9 -5 -13.5t-11.5 -6.5t-14 -3t-13.5 -3q-33 -14 -53.5 -42t-32 -62.5t-15.5 -71.5
t-4 -68zM245 647q-2 0 -6.5 -6t-10.5 -13.5t-10.5 -14t-4.5 -7.5q-26 -31 -39.5 -41.5t-17.5 -7t-1 17.5t10.5 32.5t17.5 39t19.5 36.5t17 24.5t9.5 2.5q5 9 14 13.5t17 4.5h4l18 -45t9 -21.5t6 -9t6 -10t9.5 -24t18.5 -49.5q-15 -15 -24.5 -19.5t-16 -1t-11 13.5t-9 24
t-10.5 30t-15 31z" />
    <glyph glyph-name="Otilde" unicode="&#xd5;" horiz-adv-x="472" 
d="M17 170q0 29 6.5 65t19 72.5t32 70.5t45 61t56.5 43t68 16q32 0 59 -14.5t49.5 -37t39.5 -52.5t29 -61.5t18.5 -62t6.5 -55.5q0 -35 -12 -65t-32.5 -54t-48 -42t-58.5 -30.5t-63.5 -18.5t-64.5 -6q-43 0 -71.5 12t-46 34.5t-25 54t-7.5 70.5zM52 148q0 -28 9 -48.5
t25 -33t38 -18t49 -5.5q42 0 85 9.5t77 31t55.5 55t21.5 81.5q0 30 -11.5 72t-32.5 80t-51.5 64.5t-67.5 26.5q-17 0 -28.5 -1.5t-28.5 -7.5v-5v-4q0 -1 1.5 -5t3.5 -8.5t3 -8.5t1 -5q0 -9 -5 -13.5t-11.5 -6.5t-14 -3t-13.5 -3q-33 -14 -53.5 -42t-32 -62.5t-15.5 -71.5
t-4 -68zM384 626q1 -12 -1 -33t-6.5 -43t-10.5 -38.5t-13 -17.5q-16 3 -33.5 16t-35.5 29.5t-36.5 33.5t-36.5 29t-36 15t-35 -7q-11 -41 -24.5 -63t-21 -19t-4.5 32t24 89q23 18 46 17t44.5 -12.5t41 -30t37 -36.5t32.5 -31.5t28 -13.5q2 0 4.5 11.5t4 26.5t2 30t-0.5 23z
" />
    <glyph glyph-name="Odieresis" unicode="&#xd6;" horiz-adv-x="472" 
d="M17 170q0 29 6.5 65t19 72.5t32 70.5t45 61t56.5 43t68 16q32 0 59 -14.5t49.5 -37t39.5 -52.5t29 -61.5t18.5 -62t6.5 -55.5q0 -35 -12 -65t-32.5 -54t-48 -42t-58.5 -30.5t-63.5 -18.5t-64.5 -6q-43 0 -71.5 12t-46 34.5t-25 54t-7.5 70.5zM52 148q0 -28 9 -48.5
t25 -33t38 -18t49 -5.5q42 0 85 9.5t77 31t55.5 55t21.5 81.5q0 30 -11.5 72t-32.5 80t-51.5 64.5t-67.5 26.5q-17 0 -28.5 -1.5t-28.5 -7.5v-5v-4q0 -1 1.5 -5t3.5 -8.5t3 -8.5t1 -5q0 -9 -5 -13.5t-11.5 -6.5t-14 -3t-13.5 -3q-33 -14 -53.5 -42t-32 -62.5t-15.5 -71.5
t-4 -68zM137 555q0 10 4.5 20t17.5 10q12 0 21.5 -8t9.5 -19q0 -14 -9 -20.5t-21 -6.5q-13 0 -18 5t-5 19zM280 555q0 10 5 20t18 10q11 0 21 -8t10 -19q0 -14 -9.5 -20.5t-20.5 -6.5q-14 0 -19 5t-5 19z" />
    <glyph glyph-name="multiply" unicode="&#xd7;" horiz-adv-x="327" 
d="M142 206q-21 -19 -37 -42.5t-31 -48.5q-6 -2 -16.5 0t-14.5 6q-1 1 -1 5t1 6l14 21t20.5 32t20 31.5t13.5 20.5q1 1 4 8.5t3 10.5q-8 6 -17 16t-15 21.5t-8 24t4 25.5l14 3l56 -57l74 74q5 -5 2.5 -13t-5.5 -13t-9 -14.5t-12.5 -20.5t-13 -21t-8.5 -13q13 -20 20.5 -31
t22.5 -24q21 -22 47 -40.5t49 -40.5q-10 -9 -22.5 -12t-23.5 7l-118 92l-5 -5z" />
    <glyph glyph-name="Oslash" unicode="&#xd8;" horiz-adv-x="472" 
d="M73 -57q9 36 18 70q-25 12 -42 33q-17 22 -24.5 53.5t-7.5 70.5q0 29 6.5 65t19 72.5t32 70.5t45 61t56.5 43t68 16q32 0 59 -14l3 -2l7 14l51 46h16q0 -13 -6 -28t-16 -33q-6 -12 -15 -26l9 -9q23 -22 40 -52t29 -61.5t18.5 -62t6.5 -55.5q0 -35 -12 -65t-32.5 -54
t-48 -42t-58.5 -30.5t-63.5 -18.5t-64.5 -6q-28 0 -51 5l-14 -34v-8q0 -7 -1 -14.5t-4 -14.5t-9 -10h-1h-5h-1q-1 2 -3.5 6.5t-4.5 7.5v6zM173 43q42 0 85 9.5t77 31t55.5 55t21.5 81.5q0 30 -11.5 72t-32.5 80q-18 32 -43 56q-6 -9 -12 -17q-11 -17 -21 -32.5t-15 -26.5
q-48 -95 -92 -190l-52 -116q19 -3 40 -3zM52 148q0 -28 9 -48.5t24 -32.5q9 -7 19 -12q9 23 20 46l168 352q-21 10 -43 10q-17 0 -28.5 -1.5t-28.5 -7.5v-9q0 -1 1.5 -5t3.5 -8.5t3 -8.5t1 -5q0 -9 -5 -13.5t-11.5 -6.5t-14 -3t-13.5 -3q-33 -14 -53.5 -42t-32 -62.5
t-15.5 -71.5t-4 -68z" />
    <glyph glyph-name="Ugrave" unicode="&#xd9;" horiz-adv-x="392" 
d="M39 446q5 0 9.5 -4.5t7 -10.5t4 -12t1.5 -9v-226q0 -23 9 -47.5t24 -45.5t35 -34.5t44 -13.5q31 0 55 15t42.5 39t32 55.5t22 63t12 61.5t3.5 54v29.5t-2.5 46t-6.5 52.5t-12 48t-19.5 33.5t-28.5 9.5l-1 1.5t-1 2.5q0 11 9.5 17t18.5 6q13 0 23 -9t18 -22.5t13 -31
t8.5 -34t5 -30.5t2.5 -23v-12.5v-26.5v-31v-26v-19.5v-28.5v-28.5v-19.5q-9 -35 -24 -76t-38.5 -76.5t-56.5 -59t-78 -23.5q-32 0 -60 17.5t-48.5 44.5t-32 59.5t-11.5 62.5v243q0 2 6.5 8.5t10.5 9.5h2l0.5 0.5t1.5 0.5zM198 725q-7 6 -18.5 16.5t-21 23t-13 25t6.5 21.5
q8 7 13 7t13 -6q10 -11 24.5 -25.5t20.5 -29.5l43 -62q-9 -10 -19 -8.5t-18.5 8t-16.5 15.5t-14 15z" />
    <glyph glyph-name="Uacute" unicode="&#xda;" horiz-adv-x="392" 
d="M39 446q5 0 9.5 -4.5t7 -10.5t4 -12t1.5 -9v-226q0 -23 9 -47.5t24 -45.5t35 -34.5t44 -13.5q31 0 55 15t42.5 39t32 55.5t22 63t12 61.5t3.5 54v29.5t-2.5 46t-6.5 52.5t-12 48t-19.5 33.5t-28.5 9.5l-1 1.5t-1 2.5q0 11 9.5 17t18.5 6q13 0 23 -9t18 -22.5t13 -31
t8.5 -34t5 -30.5t2.5 -23v-12.5v-26.5v-31v-26v-19.5v-28.5v-28.5v-19.5q-9 -35 -24 -76t-38.5 -76.5t-56.5 -59t-78 -23.5q-32 0 -60 17.5t-48.5 44.5t-32 59.5t-11.5 62.5v243q0 2 6.5 8.5t10.5 9.5h2l0.5 0.5t1.5 0.5zM194 722q-6 -6 -12 -15t-13.5 -16t-15.5 -8.5
t-16 8.5l36 62q5 15 16.5 29.5t21.5 24.5q10 14 21 -1q8 -9 5 -21t-11 -24t-17.5 -22.5t-14.5 -16.5z" />
    <glyph glyph-name="Ucircumflex" unicode="&#xdb;" horiz-adv-x="392" 
d="M39 446q5 0 9.5 -4.5t7 -10.5t4 -12t1.5 -9v-226q0 -23 9 -47.5t24 -45.5t35 -34.5t44 -13.5q31 0 55 15t42.5 39t32 55.5t22 63t12 61.5t3.5 54v29.5t-2.5 46t-6.5 52.5t-12 48t-19.5 33.5t-28.5 9.5l-1 1.5t-1 2.5q0 11 9.5 17t18.5 6q13 0 23 -9t18 -22.5t13 -31
t8.5 -34t5 -30.5t2.5 -23v-12.5v-26.5v-31v-26v-19.5v-28.5v-28.5v-19.5q-9 -35 -24 -76t-38.5 -76.5t-56.5 -59t-78 -23.5q-32 0 -60 17.5t-48.5 44.5t-32 59.5t-11.5 62.5v243q0 2 6.5 8.5t10.5 9.5h2l0.5 0.5t1.5 0.5zM176 720q-2 0 -6.5 -6t-10.5 -13.5t-10.5 -14
t-4.5 -7.5q-26 -31 -39.5 -41.5t-17.5 -7t-1 17.5t10.5 32.5t17.5 39t19.5 36.5t17 24.5t9.5 2.5q5 9 14 13.5t17 4.5h4l18 -45t9 -21.5t6 -9t6 -10t9.5 -24t18.5 -49.5q-15 -15 -24.5 -19.5t-16 -1t-11 13.5t-9 24t-10.5 30t-15 31z" />
    <glyph glyph-name="Udieresis" unicode="&#xdc;" horiz-adv-x="392" 
d="M39 446q5 0 9.5 -4.5t7 -10.5t4 -12t1.5 -9v-226q0 -23 9 -47.5t24 -45.5t35 -34.5t44 -13.5q31 0 55 15t42.5 39t32 55.5t22 63t12 61.5t3.5 54v29.5t-2.5 46t-6.5 52.5t-12 48t-19.5 33.5t-28.5 9.5l-1 1.5t-1 2.5q0 11 9.5 17t18.5 6q13 0 23 -9t18 -22.5t13 -31
t8.5 -34t5 -30.5t2.5 -23v-12.5v-26.5v-31v-26v-19.5v-28.5v-28.5v-19.5q-9 -35 -24 -76t-38.5 -76.5t-56.5 -59t-78 -23.5q-32 0 -60 17.5t-48.5 44.5t-32 59.5t-11.5 62.5v243q0 2 6.5 8.5t10.5 9.5h2l0.5 0.5t1.5 0.5zM97 700q0 10 4.5 20t17.5 10q12 0 21.5 -8t9.5 -19
q0 -14 -9 -20.5t-21 -6.5q-13 0 -18 5t-5 19zM240 700q0 10 5 20t18 10q11 0 21 -8t10 -19q0 -14 -9.5 -20.5t-20.5 -6.5q-14 0 -19 5t-5 19z" />
    <glyph glyph-name="Yacute" unicode="&#xdd;" horiz-adv-x="445" 
d="M244 -45q0 26 4 52t9 51.5t9.5 51t4.5 51.5v5q-54 10 -100.5 30.5t-80.5 53.5t-53.5 78.5t-19.5 106.5q0 9 -0.5 24.5t2.5 29.5t10.5 24.5t22.5 10.5q14 0 20.5 -3t6.5 -18q0 -13 -3 -25t-6 -23.5t-6 -24t-3 -24.5q0 -36 15 -70.5t40.5 -60.5t58.5 -42t69 -16h7.5
t10.5 0.5t10.5 0.5h7.5q18 12 28.5 41.5t17.5 66t12 76.5t13 72.5t19.5 54t31.5 21.5q1 0 4 -3.5t4 -5.5q1 -1 2 -7.5t2 -15t2.5 -17t2.5 -13.5v-4q0 -48 -10.5 -93.5t-26 -89t-33.5 -86t-33.5 -86t-26 -88.5t-10.5 -94q0 -36 5.5 -70.5t5.5 -70.5q-13 0 -22 9t-14 23
t-7.5 31.5t-3 34t0 30.5t0.5 21zM221 722q-6 -6 -12 -15t-13.5 -16t-15.5 -8.5t-16 8.5l36 62q5 15 16.5 29.5t21.5 24.5q10 14 21 -1q8 -9 5 -21t-11 -24t-17.5 -22.5t-14.5 -16.5z" />
    <glyph glyph-name="Thorn" unicode="&#xde;" horiz-adv-x="334" 
d="M77 100q-13 -69 -26.5 -97.5t-22.5 -20t-11.5 51.5t5.5 118q10 49 16 93.5t9 88.5t4 89t1 94q-3 55 8.5 89.5t24.5 46t22 -2t2 -52.5v-22v-32t-0.5 -38t-1 -38t-1 -32.5t-0.5 -21.5h12l14 14t22 21t25.5 19t25.5 8q17 0 31 -12.5t26 -33t21 -45.5t15.5 -49t10 -44.5
t3.5 -31.5q0 -33 -18.5 -62t-46 -51.5t-60.5 -35t-63 -12.5q-13 0 -16.5 -1t-5.5 -1.5t-6 0t-19 3.5zM197 431q-30 -26 -53 -61.5t-39 -75.5t-24 -82t-8 -81q29 0 62.5 7t63 22.5t49.5 41t20 63.5q0 20 -4 44.5t-12 48.5t-21.5 43.5t-33.5 29.5z" />
    <glyph glyph-name="germandbls" unicode="&#xdf;" horiz-adv-x="576" 
d="M157 410q-3 -18 -4.5 -55t-2.5 -85.5t-3 -103t-3.5 -106.5t-4.5 -96.5t-6 -73.5q-1 -6 -3 -15t-5 -17.5t-7.5 -16t-11.5 -11.5q-9 3 -13.5 33.5t-7 75t-2.5 95.5t1 96.5t2 78t1 40.5q0 10 0.5 33t2 54t5 67.5t9.5 73t15 70t22 60t30.5 42t39.5 15.5q26 0 46.5 -12
t35 -30.5t23 -42t8.5 -47.5q0 -19 -7 -36.5t-14.5 -33.5t-14.5 -32t-7 -33q24 0 54 -1t61 -5t60.5 -13.5t52.5 -26t36.5 -41.5t13.5 -61t-13 -68.5t-35.5 -60.5t-52 -50t-63 -38t-68 -24.5t-66.5 -8.5l-8 35q45 0 90 16.5t81.5 46t59.5 70.5t23 89q0 27 -13 47.5t-33.5 34.5
t-46 21.5t-50.5 7.5q-14 0 -34 -3.5t-43 -9.5t-46.5 -14.5t-44.5 -17.5l-9 57q18 15 35.5 32t30 36.5t20.5 41.5t8 48q0 14 -3 29t-9.5 27t-18 19.5t-27.5 7.5q-13 0 -23 -13t-17.5 -33.5t-12 -45t-8 -48t-4.5 -42.5t-1 -28z" />
    <glyph glyph-name="agrave" unicode="&#xe0;" horiz-adv-x="458" 
d="M244 122q-15 -18 -34.5 -38t-42 -37t-47 -28.5t-50.5 -11.5q-53 0 -53 51q0 21 17.5 55.5t45.5 72.5t62 73.5t68 59t62.5 29.5t46.5 -17q0 -27 -4 -54t-8 -53.5t-8 -52.5t-4 -53q0 -6 1.5 -18.5t5 -25t9.5 -22t16 -9.5q24 0 39.5 6t27 14.5t20 19.5t18 22t21.5 21t31 16
v-3v-5q0 -25 -15 -49.5t-38 -43.5t-51.5 -30.5t-55.5 -11.5q-23 0 -37 13t-22.5 31t-12.5 39.5t-8 39.5zM262 253q10 33 7.5 45t-14.5 9.5t-31 -17t-41 -35t-44 -45.5t-41 -47.5t-31 -40.5t-15 -26q-6 -23 -1.5 -35t14 -16.5t21 -1.5t19.5 9q17 15 43 40.5t50.5 54.5
t42.5 57.5t21 48.5zM251 459q-7 6 -18.5 16.5t-21 23t-13 25t6.5 21.5q8 7 13 7t13 -6q10 -11 24.5 -25.5t20.5 -29.5l43 -62q-9 -10 -19 -8.5t-18.5 8t-16.5 15.5t-14 15z" />
    <glyph glyph-name="aacute" unicode="&#xe1;" horiz-adv-x="458" 
d="M244 122q-15 -18 -34.5 -38t-42 -37t-47 -28.5t-50.5 -11.5q-53 0 -53 51q0 21 17.5 55.5t45.5 72.5t62 73.5t68 59t62.5 29.5t46.5 -17q0 -27 -4 -54t-8 -53.5t-8 -52.5t-4 -53q0 -6 1.5 -18.5t5 -25t9.5 -22t16 -9.5q24 0 39.5 6t27 14.5t20 19.5t18 22t21.5 21t31 16
v-3v-5q0 -25 -15 -49.5t-38 -43.5t-51.5 -30.5t-55.5 -11.5q-23 0 -37 13t-22.5 31t-12.5 39.5t-8 39.5zM262 253q10 33 7.5 45t-14.5 9.5t-31 -17t-41 -35t-44 -45.5t-41 -47.5t-31 -40.5t-15 -26q-6 -23 -1.5 -35t14 -16.5t21 -1.5t19.5 9q17 15 43 40.5t50.5 54.5
t42.5 57.5t21 48.5zM227 448q-6 -6 -12 -15t-13.5 -16t-15.5 -8.5t-16 8.5l36 62q5 15 16.5 29.5t21.5 24.5q10 14 21 -1q8 -9 5 -21t-11 -24t-17.5 -22.5t-14.5 -16.5z" />
    <glyph glyph-name="acircumflex" unicode="&#xe2;" horiz-adv-x="458" 
d="M244 122q-15 -18 -34.5 -38t-42 -37t-47 -28.5t-50.5 -11.5q-53 0 -53 51q0 21 17.5 55.5t45.5 72.5t62 73.5t68 59t62.5 29.5t46.5 -17q0 -27 -4 -54t-8 -53.5t-8 -52.5t-4 -53q0 -6 1.5 -18.5t5 -25t9.5 -22t16 -9.5q24 0 39.5 6t27 14.5t20 19.5t18 22t21.5 21t31 16
v-3v-5q0 -25 -15 -49.5t-38 -43.5t-51.5 -30.5t-55.5 -11.5q-23 0 -37 13t-22.5 31t-12.5 39.5t-8 39.5zM262 253q10 33 7.5 45t-14.5 9.5t-31 -17t-41 -35t-44 -45.5t-41 -47.5t-31 -40.5t-15 -26q-6 -23 -1.5 -35t14 -16.5t21 -1.5t19.5 9q17 15 43 40.5t50.5 54.5
t42.5 57.5t21 48.5zM266 491q-2 0 -6.5 -6t-10.5 -13.5t-10.5 -14t-4.5 -7.5q-26 -31 -39.5 -41.5t-17.5 -7t-1 17.5t10.5 32.5t17.5 39t19.5 36.5t17 24.5t9.5 2.5q5 9 14 13.5t17 4.5h4l18 -45t9 -21.5t6 -9t6 -10t9.5 -24t18.5 -49.5q-15 -15 -24.5 -19.5t-16 -1
t-11 13.5t-9 24t-10.5 30t-15 31z" />
    <glyph glyph-name="atilde" unicode="&#xe3;" horiz-adv-x="458" 
d="M244 122q-15 -18 -34.5 -38t-42 -37t-47 -28.5t-50.5 -11.5q-53 0 -53 51q0 21 17.5 55.5t45.5 72.5t62 73.5t68 59t62.5 29.5t46.5 -17q0 -27 -4 -54t-8 -53.5t-8 -52.5t-4 -53q0 -6 1.5 -18.5t5 -25t9.5 -22t16 -9.5q24 0 39.5 6t27 14.5t20 19.5t18 22t21.5 21t31 16
v-3v-5q0 -25 -15 -49.5t-38 -43.5t-51.5 -30.5t-55.5 -11.5q-23 0 -37 13t-22.5 31t-12.5 39.5t-8 39.5zM262 253q10 33 7.5 45t-14.5 9.5t-31 -17t-41 -35t-44 -45.5t-41 -47.5t-31 -40.5t-15 -26q-6 -23 -1.5 -35t14 -16.5t21 -1.5t19.5 9q17 15 43 40.5t50.5 54.5
t42.5 57.5t21 48.5zM399 477q1 -12 -1 -33t-6.5 -43t-10.5 -38.5t-13 -17.5q-16 3 -33.5 16t-35.5 29.5t-36.5 33.5t-36.5 29t-36 15t-35 -7q-11 -41 -24.5 -63t-21 -19t-4.5 32t24 89q23 18 46 17t44.5 -12.5t41 -30t37 -36.5t32.5 -31.5t28 -13.5q2 0 4.5 11.5t4 26.5
t2 30t-0.5 23z" />
    <glyph glyph-name="adieresis" unicode="&#xe4;" horiz-adv-x="458" 
d="M244 122q-15 -18 -34.5 -38t-42 -37t-47 -28.5t-50.5 -11.5q-53 0 -53 51q0 21 17.5 55.5t45.5 72.5t62 73.5t68 59t62.5 29.5t46.5 -17q0 -27 -4 -54t-8 -53.5t-8 -52.5t-4 -53q0 -6 1.5 -18.5t5 -25t9.5 -22t16 -9.5q24 0 39.5 6t27 14.5t20 19.5t18 22t21.5 21t31 16
v-3v-5q0 -25 -15 -49.5t-38 -43.5t-51.5 -30.5t-55.5 -11.5q-23 0 -37 13t-22.5 31t-12.5 39.5t-8 39.5zM262 253q10 33 7.5 45t-14.5 9.5t-31 -17t-41 -35t-44 -45.5t-41 -47.5t-31 -40.5t-15 -26q-6 -23 -1.5 -35t14 -16.5t21 -1.5t19.5 9q17 15 43 40.5t50.5 54.5
t42.5 57.5t21 48.5zM139 422q0 10 4.5 20t17.5 10q12 0 21.5 -8t9.5 -19q0 -14 -9 -20.5t-21 -6.5q-13 0 -18 5t-5 19zM282 422q0 10 5 20t18 10q11 0 21 -8t10 -19q0 -14 -9.5 -20.5t-20.5 -6.5q-14 0 -19 5t-5 19z" />
    <glyph glyph-name="aring" unicode="&#xe5;" horiz-adv-x="458" 
d="M181 348q0 3 -0.5 11.5t-0.5 11.5q0 19 5.5 40.5t19.5 39.5t37 30t57 12q15 0 23 -6t11.5 -15t3.5 -18v-17q0 -16 -5 -34.5t-18 -34.5q-9 -11 -22 -19q15 -3 27 -18q0 -27 -4 -54t-8 -53.5t-8 -52.5t-4 -53q0 -6 1.5 -18.5t5 -25t9.5 -22t16 -9.5q24 0 39.5 6t27 14.5
t20 19.5t18 22t21.5 21t31 16v-3v-5q0 -25 -15 -49.5t-38 -43.5t-51.5 -30.5t-55.5 -11.5q-23 0 -37 13t-22.5 31t-12.5 39.5t-8 39.5q-15 -18 -34.5 -38t-42 -37t-47 -28.5t-50.5 -11.5q-53 0 -53 51q0 21 17.5 55.5t45.5 72.5t62 73.5t68 59.5q11 8 22 14h-2
q-19 0 -28 2.5t-21 12.5zM262 253q10 33 7.5 45t-14.5 9.5t-31 -17t-41 -35t-44 -45.5t-41 -47.5t-31 -40.5t-15 -26q-6 -23 -1.5 -35t14 -16.5t21 -1.5t19.5 9q17 15 43 40.5t50.5 54.5t42.5 57.5t21 48.5zM203 355q6 -3 14 -3h15q25 0 41 8t25 21t12.5 28t3.5 28
q0 6 0.5 13t-1.5 13.5t-8 10.5t-19 4q0 -11 -5.5 -13.5t-13.5 -3.5t-17.5 -2.5t-17.5 -11.5q-10 -20 -19.5 -38t-9.5 -38v-16z" />
    <glyph glyph-name="ae" unicode="&#xe6;" horiz-adv-x="634" 
d="M244 122q-15 -18 -34.5 -38t-42 -37t-47 -28.5t-50.5 -11.5q-53 0 -53 51q0 21 17.5 55.5t45.5 72.5t62 73.5t68 59t62.5 29.5t46.5 -17q0 -8 -0.5 -15t-1.5 -15q7 14 15.5 26t20.5 20.5t28 13.5t37 5q6 0 13.5 -1t14 -4t11 -8t4.5 -13q0 -21 -10 -37.5t-26 -30.5
t-33.5 -26t-33 -23.5t-26 -23.5t-10.5 -26v-96q0 -9 6.5 -15t16.5 -10.5t20.5 -6.5t18.5 -3h7q25 0 48.5 8t46 21.5t43 28.5t38.5 30q6 5 10.5 10l9 10t10 9t13.5 6q0 -2 0.5 -5t0.5 -4q0 -8 -2 -14t-8 -12q-22 -26 -39.5 -45.5t-33.5 -33.5t-34 -24.5t-41 -16.5t-54.5 -8.5
t-74.5 -2.5q-23 0 -37 13t-22.5 31t-12.5 39.5t-8 39.5zM262 253q10 33 7.5 45t-14.5 9.5t-31 -17t-41 -35t-44 -45.5t-41 -47.5t-31 -40.5t-15 -26q-6 -23 -1.5 -35t14 -16.5t21 -1.5t19.5 9q17 15 43 40.5t50.5 54.5t42.5 57.5t21 48.5zM375 287q0 2 -4 0t-8 -6t-6 -8
t0 -4q4 -1 11.5 6.5t6.5 11.5z" />
    <glyph glyph-name="ccedilla" unicode="&#xe7;" horiz-adv-x="260" 
d="M64 -173v6v8.5v9.5v6q2 3 8.5 6.5t9.5 2.5q10 -2 14.5 -11t13 -20t25 -21.5t50.5 -15.5q14 -3 16.5 5t2.5 16q-2 17 -15.5 27.5t-32.5 18.5t-39 16.5t-33 23t-17 37.5q-3 22 12 58q-15 1 -26 7q-14 7 -22 20.5t-11 32t-3 40.5q0 8 2.5 32t7 54.5t11.5 64t17.5 61.5
t23.5 46t30 18q21 0 33 -16t18.5 -37.5t9 -44t2.5 -35.5q-21 0 -27 7t-8.5 17t-5.5 20.5t-17 18.5q-23 -14 -35 -39.5t-18.5 -55.5t-7.5 -59t-1 -52q0 -28 10.5 -47t42.5 -19q25 0 48 10t44 25.5t39.5 34t34.5 35.5h19l-0.5 -3.5t-1.5 -5.5q-14 -29 -35 -53t-46 -41t-55 -27
q-13 -5 -28 -8q1 -1 2 -3q3 -10 -1 -20t-17 -16q0 -24 10.5 -38.5t26 -23.5t33.5 -14.5t33 -14t25.5 -22.5t10.5 -38q0 -10 -4.5 -19.5t-12 -18t-16.5 -13.5t-19 -5q-29 0 -53 1.5t-41.5 9t-27 22t-9.5 39.5z" />
    <glyph glyph-name="egrave" unicode="&#xe8;" horiz-adv-x="358" 
d="M26 125q-7 -4 -11 -2t-5.5 6t-2 9.5t-0.5 7.5q0 20 5 24.5t13 6t17 4.5t17 19q12 25 21.5 52.5t23.5 51.5t35.5 39t59.5 15q6 0 13.5 -1t14 -3.5t11 -8t4.5 -14.5q0 -21 -10.5 -37.5t-26 -30t-33.5 -25.5t-33 -23t-25.5 -23t-10.5 -26v-96q0 -11 8.5 -17.5t19.5 -10.5
t23 -6t18 -2q24 0 48 8.5t46.5 21.5t42.5 28.5t38 29.5q6 5 10.5 10.5t9 10.5t10 8.5t14.5 5.5v-4v-5q0 -8 -1.5 -14t-7.5 -12q-22 -25 -47 -47t-53 -39t-59 -27t-66 -10t-54 10t-29.5 29t-14.5 45t-9 56zM155 280q0 2 -3.5 -0.5t-8 -6.5t-6.5 -7.5t0 -3.5q5 -1 12 6t6 12z
M126 463q-7 6 -18.5 16.5t-21 23t-13 25t6.5 21.5q8 7 13 7t13 -6q10 -11 24.5 -25.5t20.5 -29.5l43 -62q-9 -10 -19 -8.5t-18.5 8t-16.5 15.5t-14 15z" />
    <glyph glyph-name="eacute" unicode="&#xe9;" horiz-adv-x="358" 
d="M26 125q-7 -4 -11 -2t-5.5 6t-2 9.5t-0.5 7.5q0 20 5 24.5t13 6t17 4.5t17 19q12 25 21.5 52.5t23.5 51.5t35.5 39t59.5 15q6 0 13.5 -1t14 -3.5t11 -8t4.5 -14.5q0 -21 -10.5 -37.5t-26 -30t-33.5 -25.5t-33 -23t-25.5 -23t-10.5 -26v-96q0 -11 8.5 -17.5t19.5 -10.5
t23 -6t18 -2q24 0 48 8.5t46.5 21.5t42.5 28.5t38 29.5q6 5 10.5 10.5t9 10.5t10 8.5t14.5 5.5v-4v-5q0 -8 -1.5 -14t-7.5 -12q-22 -25 -47 -47t-53 -39t-59 -27t-66 -10t-54 10t-29.5 29t-14.5 45t-9 56zM155 280q0 2 -3.5 -0.5t-8 -6.5t-6.5 -7.5t0 -3.5q5 -1 12 6t6 12z
M155 448q-6 -6 -12 -15t-13.5 -16t-15.5 -8.5t-16 8.5l36 62q5 15 16.5 29.5t21.5 24.5q10 14 21 -1q8 -9 5 -21t-11 -24t-17.5 -22.5t-14.5 -16.5z" />
    <glyph glyph-name="ecircumflex" unicode="&#xea;" horiz-adv-x="358" 
d="M26 125q-7 -4 -11 -2t-5.5 6t-2 9.5t-0.5 7.5q0 20 5 24.5t13 6t17 4.5t17 19q12 25 21.5 52.5t23.5 51.5t35.5 39t59.5 15q6 0 13.5 -1t14 -3.5t11 -8t4.5 -14.5q0 -21 -10.5 -37.5t-26 -30t-33.5 -25.5t-33 -23t-25.5 -23t-10.5 -26v-96q0 -11 8.5 -17.5t19.5 -10.5
t23 -6t18 -2q24 0 48 8.5t46.5 21.5t42.5 28.5t38 29.5q6 5 10.5 10.5t9 10.5t10 8.5t14.5 5.5v-4v-5q0 -8 -1.5 -14t-7.5 -12q-22 -25 -47 -47t-53 -39t-59 -27t-66 -10t-54 10t-29.5 29t-14.5 45t-9 56zM155 280q0 2 -3.5 -0.5t-8 -6.5t-6.5 -7.5t0 -3.5q5 -1 12 6t6 12z
M190 510q-2 0 -6.5 -6t-10.5 -13.5t-10.5 -14t-4.5 -7.5q-26 -31 -39.5 -41.5t-17.5 -7t-1 17.5t10.5 32.5t17.5 39t19.5 36.5t17 24.5t9.5 2.5q5 9 14 13.5t17 4.5h4l18 -45t9 -21.5t6 -9t6 -10t9.5 -24t18.5 -49.5q-15 -15 -24.5 -19.5t-16 -1t-11 13.5t-9 24t-10.5 30
t-15 31z" />
    <glyph glyph-name="edieresis" unicode="&#xeb;" horiz-adv-x="358" 
d="M26 125q-7 -4 -11 -2t-5.5 6t-2 9.5t-0.5 7.5q0 20 5 24.5t13 6t17 4.5t17 19q12 25 21.5 52.5t23.5 51.5t35.5 39t59.5 15q6 0 13.5 -1t14 -3.5t11 -8t4.5 -14.5q0 -21 -10.5 -37.5t-26 -30t-33.5 -25.5t-33 -23t-25.5 -23t-10.5 -26v-96q0 -11 8.5 -17.5t19.5 -10.5
t23 -6t18 -2q24 0 48 8.5t46.5 21.5t42.5 28.5t38 29.5q6 5 10.5 10.5t9 10.5t10 8.5t14.5 5.5v-4v-5q0 -8 -1.5 -14t-7.5 -12q-22 -25 -47 -47t-53 -39t-59 -27t-66 -10t-54 10t-29.5 29t-14.5 45t-9 56zM155 280q0 2 -3.5 -0.5t-8 -6.5t-6.5 -7.5t0 -3.5q5 -1 12 6t6 12z
M74 458q0 10 4.5 20t17.5 10q12 0 21.5 -8t9.5 -19q0 -14 -9 -20.5t-21 -6.5q-13 0 -18 5t-5 19zM217 458q0 10 5 20t18 10q11 0 21 -8t10 -19q0 -14 -9.5 -20.5t-20.5 -6.5q-14 0 -19 5t-5 19z" />
    <glyph glyph-name="igrave" unicode="&#xec;" horiz-adv-x="237" 
d="M84 140q0 26 3 51.5t6.5 51t6.5 51t3 52.5q0 6 -2.5 13.5t-12.5 7.5q-13 0 -17 -2t-5.5 -5t-5 -7t-15.5 -8h-5q-21 0 -21 22q0 6 13.5 19t31.5 24.5t34 20t21 5.5q2 0 6 -3.5t8 -8t7.5 -8.5t4.5 -6v-8q0 -6 0.5 -13t0.5 -14v-9q0 -29 -4 -57.5t-9.5 -57.5t-9.5 -58
t-4 -58q0 -5 1 -20t4.5 -31t10.5 -28.5t19 -12.5q24 0 36 6.5t21 14.5t19.5 14.5t29.5 6.5q0 -42 -31 -64t-79 -22q-25 0 -38 16t-19.5 38.5t-7.5 46.5t-1 40zM113 533q-7 6 -18.5 16.5t-21 23t-13 25t6.5 21.5q8 7 13 7t13 -7l24.5 -24.5t20.5 -29.5l43 -63q-9 -9 -19 -7.5
t-18.5 8t-16.5 15.5t-14 15z" />
    <glyph glyph-name="iacute" unicode="&#xed;" horiz-adv-x="237" 
d="M84 140q0 26 3 51.5t6.5 51t6.5 51t3 52.5q0 6 -2.5 13.5t-12.5 7.5q-13 0 -17 -2t-5.5 -5t-5 -7t-15.5 -8h-5q-21 0 -21 22q0 6 13.5 19t31.5 24.5t34 20t21 5.5q2 0 6 -3.5t8 -8t7.5 -8.5t4.5 -6v-8q0 -6 0.5 -13t0.5 -14v-9q0 -29 -4 -57.5t-9.5 -57.5t-9.5 -58
t-4 -58q0 -5 1 -20t4.5 -31t10.5 -28.5t19 -12.5q24 0 36 6.5t21 14.5t19.5 14.5t29.5 6.5q0 -42 -31 -64t-79 -22q-25 0 -38 16t-19.5 38.5t-7.5 46.5t-1 40zM116 568q-5 -6 -11.5 -15t-14 -16t-15.5 -8.5t-15 8.5l36 62q4 15 16 29.5t21 24.5q10 14 21 -1q9 -9 6 -21
t-11 -24t-18 -22.5t-15 -16.5z" />
    <glyph glyph-name="icircumflex" unicode="&#xee;" horiz-adv-x="237" 
d="M84 140q0 26 3 51.5t6.5 51t6.5 51t3 52.5q0 6 -2.5 13.5t-12.5 7.5q-13 0 -17 -2t-5.5 -5t-5 -7t-15.5 -8h-5q-21 0 -21 22q0 6 13.5 19t31.5 24.5t34 20t21 5.5q2 0 6 -3.5t8 -8t7.5 -8.5t4.5 -6v-8q0 -6 0.5 -13t0.5 -14v-9q0 -29 -4 -57.5t-9.5 -57.5t-9.5 -58
t-4 -58q0 -5 1 -20t4.5 -31t10.5 -28.5t19 -12.5q24 0 36 6.5t21 14.5t19.5 14.5t29.5 6.5q0 -42 -31 -64t-79 -22q-25 0 -38 16t-19.5 38.5t-7.5 46.5t-1 40zM121 580q-1 -1 -6 -7t-10.5 -13.5t-10 -14t-5.5 -7.5q-25 -30 -38.5 -40.5t-18 -7.5t-1 17t10.5 33t17.5 39
t19.5 36t16.5 24.5t10.5 3.5q5 7 13.5 12.5t16.5 5.5h5q11 -31 17 -45.5t9.5 -21.5t6 -9.5t6.5 -10t10 -23.5t18 -49q-22 -24 -33.5 -23.5t-19 15.5t-14 39t-20.5 47z" />
    <glyph glyph-name="idieresis" unicode="&#xef;" horiz-adv-x="237" 
d="M84 140q0 26 3 51.5t6.5 51t6.5 51t3 52.5q0 6 -2.5 13.5t-12.5 7.5q-13 0 -17 -2t-5.5 -5t-5 -7t-15.5 -8h-5q-21 0 -21 22q0 6 13.5 19t31.5 24.5t34 20t21 5.5q2 0 6 -3.5t8 -8t7.5 -8.5t4.5 -6v-8q0 -6 0.5 -13t0.5 -14v-9q0 -29 -4 -57.5t-9.5 -57.5t-9.5 -58
t-4 -58q0 -5 1 -20t4.5 -31t10.5 -28.5t19 -12.5q24 0 36 6.5t21 14.5t19.5 14.5t29.5 6.5q0 -42 -31 -64t-79 -22q-25 0 -38 16t-19.5 38.5t-7.5 46.5t-1 40zM163 546q0 10 5 20t18 10q11 0 21 -8t10 -19q0 -14 -9 -20.5t-21 -6.5q-14 0 -19 5t-5 19zM20 546q0 10 4.5 20
t17.5 10q12 0 21.5 -8t9.5 -19q0 -14 -9 -20.5t-21 -6.5q-13 0 -18 5t-5 19z" />
    <glyph glyph-name="eth" unicode="&#xf0;" horiz-adv-x="337" 
d="M91 469q0 3 3 6t8 6t10.5 5t9.5 2q7 0 11 -3.5t7 -8.5t5.5 -10.5t6.5 -8.5q11 -11 21.5 -22t19.5 -21l60 29l32 -38q1 -2 -8 -6t-21 -7.5t-21.5 -7t-8.5 -5.5q12 -17 23 -38t20 -44t14.5 -48t5.5 -48q0 -38 1 -70.5t-7.5 -59t-30 -49t-65.5 -42.5q-15 -6 -27 -4.5t-23 8
t-20.5 17t-16.5 21.5q-3 5 -8.5 13.5t-11 17.5t-9.5 16t-5 8q-1 2 -4.5 13.5t-7.5 27t-8 32t-6 28.5q0 17 8 29.5t21.5 20.5t31.5 12t38 4q40 0 68 -18.5t40 -44.5q1 6 1 10v7q0 19 -6.5 41t-15.5 43t-19.5 40t-18.5 33l-42 -25q-13 6 -19 19.5t-10 19.5q-2 2 6 5t17.5 6.5
t15.5 8t1 8.5q-10 11 -22 22.5t-22 21.5t-16 17.5t-6 10.5zM82 171q0 -35 16 -68.5t45 -59.5q33 -11 53.5 -9.5t32.5 10t15 22t1 28t-8.5 28.5t-13.5 23q-10 10 -17 21.5t-16 21t-20.5 15.5t-29.5 6q-24 0 -41 -8.5t-17 -29.5z" />
    <glyph glyph-name="ntilde" unicode="&#xf1;" horiz-adv-x="399" 
d="M78 70q2 8 6 26.5t8.5 41.5t9 49t9 49t7.5 42t4 28q1 4 0 12t-2 18t-2 18t-1 12q-3 0 -10 2t-14.5 3.5t-13.5 3t-9 1.5q-24 -9 -35.5 -22.5t-21 -26.5t-22.5 -22.5t-38 -9.5q-9 0 -13 7t-4 16v4q22 25 41.5 43t41.5 30.5t48 18.5t60 6q15 0 22.5 -5.5t11.5 -14t4.5 -19.5
t0.5 -24q0 -27 -5.5 -53.5t-12 -53t-12.5 -53t-6 -54.5v-4q3 8 13 26.5t21 39.5t21.5 39.5t14.5 25.5q1 1 7 8.5t14.5 17.5t17 19.5t14.5 15.5q6 8 14.5 17t18 17t20 13.5t21.5 5.5q9 0 13.5 -7t6.5 -17t2 -20.5v-17.5q0 -30 -7 -60t-15 -59.5t-15.5 -59.5t-7.5 -60
q0 -13 4 -22t18 -9q18 0 33 10t28.5 21.5t27 21.5t30.5 10v-19q0 -1 -5 -6l-12 -12t-14.5 -14t-12.5 -12q-8 -7 -18 -15t-20.5 -14.5t-22.5 -11t-23 -4.5q-15 0 -24.5 8.5t-14.5 21t-7 26.5t-2 25q0 30 5.5 59.5t11.5 58t11 57.5t5 59h-6q-1 0 -7 -6t-14.5 -14t-16.5 -17
t-14 -15q-5 -6 -11 -14.5t-12 -18.5t-11.5 -19.5t-9.5 -17.5q-3 -7 -10 -21t-15.5 -32t-18 -38t-18 -38t-15.5 -32t-10 -21q-1 -4 -8 -10.5t-9 -7.5l-2 -1h-3h-2q-1 0 -2 1q-2 1 -5.5 4t-3.5 4v62zM360 625q1 -12 -1 -33t-6.5 -43t-10.5 -38.5t-13 -17.5q-16 3 -33.5 16
t-35.5 29.5t-36.5 33.5t-36.5 29t-36 15t-35 -7q-11 -41 -24.5 -63t-21 -19t-4.5 32t24 89q23 18 46 17t44.5 -12.5t41 -30t37 -36.5t32.5 -31.5t28 -13.5q2 0 4.5 11.5t4 26.5t2 30t-0.5 23z" />
    <glyph glyph-name="ograve" unicode="&#xf2;" horiz-adv-x="270" 
d="M8 34v10.5t-0.5 16t-0.5 16v11.5q0 28 4 60t12 62.5t21.5 59t34 50t47.5 34.5t62 13q23 0 35 -13.5t16.5 -33.5t5 -42t0.5 -39q0 -39 -8 -81.5t-26 -77.5t-49.5 -58t-78.5 -23q-14 0 -24 1t-18 5.5t-16 11t-17 17.5zM43 52q9 -9 21 -9h23q38 0 62 19.5t37.5 48.5t19 63.5
t5.5 64.5q0 14 0.5 30.5t-3 31t-12.5 24t-27 9.5q0 -16 -4 -24t-10.5 -11t-15 -3.5t-18 -3.5t-18.5 -9t-16 -21q-16 -45 -30.5 -86.5t-14.5 -87.5v-7.5t0.5 -10.5t0.5 -10.5v-7.5zM148 482q-7 6 -18.5 16.5t-21 23t-13 25t6.5 21.5q8 7 13 7t13 -6q10 -11 24.5 -25.5
t20.5 -29.5l43 -62q-9 -10 -19 -8.5t-18.5 8t-16.5 15.5t-14 15z" />
    <glyph glyph-name="oacute" unicode="&#xf3;" horiz-adv-x="270" 
d="M8 34v10.5t-0.5 16t-0.5 16v11.5q0 28 4 60t12 62.5t21.5 59t34 50t47.5 34.5t62 13q23 0 35 -13.5t16.5 -33.5t5 -42t0.5 -39q0 -39 -8 -81.5t-26 -77.5t-49.5 -58t-78.5 -23q-14 0 -24 1t-18 5.5t-16 11t-17 17.5zM43 52q9 -9 21 -9h23q38 0 62 19.5t37.5 48.5t19 63.5
t5.5 64.5q0 14 0.5 30.5t-3 31t-12.5 24t-27 9.5q0 -16 -4 -24t-10.5 -11t-15 -3.5t-18 -3.5t-18.5 -9t-16 -21q-16 -45 -30.5 -86.5t-14.5 -87.5v-7.5t0.5 -10.5t0.5 -10.5v-7.5zM137 476q-6 -6 -12 -15t-13.5 -16t-15.5 -8.5t-16 8.5l36 62q5 15 16.5 29.5t21.5 24.5
q10 14 21 -1q8 -9 5 -21t-11 -24t-17.5 -22.5t-14.5 -16.5z" />
    <glyph glyph-name="ocircumflex" unicode="&#xf4;" horiz-adv-x="270" 
d="M8 34v10.5t-0.5 16t-0.5 16v11.5q0 28 4 60t12 62.5t21.5 59t34 50t47.5 34.5t62 13q23 0 35 -13.5t16.5 -33.5t5 -42t0.5 -39q0 -39 -8 -81.5t-26 -77.5t-49.5 -58t-78.5 -23q-14 0 -24 1t-18 5.5t-16 11t-17 17.5zM43 52q9 -9 21 -9h23q38 0 62 19.5t37.5 48.5t19 63.5
t5.5 64.5q0 14 0.5 30.5t-3 31t-12.5 24t-27 9.5q0 -16 -4 -24t-10.5 -11t-15 -3.5t-18 -3.5t-18.5 -9t-16 -21q-16 -45 -30.5 -86.5t-14.5 -87.5v-7.5t0.5 -10.5t0.5 -10.5v-7.5zM182 541q-2 0 -6.5 -6t-10.5 -13.5t-10.5 -14t-4.5 -7.5q-26 -31 -39.5 -41.5t-17.5 -7
t-1 17.5t10.5 32.5t17.5 39t19.5 36.5t17 24.5t9.5 2.5q5 9 14 13.5t17 4.5h4l18 -45t9 -21.5t6 -9t6 -10t9.5 -24t18.5 -49.5q-15 -15 -24.5 -19.5t-16 -1t-11 13.5t-9 24t-10.5 30t-15 31z" />
    <glyph glyph-name="otilde" unicode="&#xf5;" horiz-adv-x="270" 
d="M8 34v10.5t-0.5 16t-0.5 16v11.5q0 28 4 60t12 62.5t21.5 59t34 50t47.5 34.5t62 13q23 0 35 -13.5t16.5 -33.5t5 -42t0.5 -39q0 -39 -8 -81.5t-26 -77.5t-49.5 -58t-78.5 -23q-14 0 -24 1t-18 5.5t-16 11t-17 17.5zM43 52q9 -9 21 -9h23q38 0 62 19.5t37.5 48.5t19 63.5
t5.5 64.5q0 14 0.5 30.5t-3 31t-12.5 24t-27 9.5q0 -16 -4 -24t-10.5 -11t-15 -3.5t-18 -3.5t-18.5 -9t-16 -21q-16 -45 -30.5 -86.5t-14.5 -87.5v-7.5t0.5 -10.5t0.5 -10.5v-7.5zM304 544q1 -12 -1 -33t-6.5 -43t-10.5 -38.5t-13 -17.5q-16 3 -33.5 16t-35.5 29.5
t-36.5 33.5t-36.5 29t-36 15t-35 -7q-11 -41 -24.5 -63t-21 -19t-4.5 32t24 89q23 18 46 17t44.5 -12.5t41 -30t37 -36.5t32.5 -31.5t28 -13.5q2 0 4.5 11.5t4 26.5t2 30t-0.5 23z" />
    <glyph glyph-name="odieresis" unicode="&#xf6;" horiz-adv-x="270" 
d="M8 34v10.5t-0.5 16t-0.5 16v11.5q0 28 4 60t12 62.5t21.5 59t34 50t47.5 34.5t62 13q23 0 35 -13.5t16.5 -33.5t5 -42t0.5 -39q0 -39 -8 -81.5t-26 -77.5t-49.5 -58t-78.5 -23q-14 0 -24 1t-18 5.5t-16 11t-17 17.5zM43 52q9 -9 21 -9h23q38 0 62 19.5t37.5 48.5t19 63.5
t5.5 64.5q0 14 0.5 30.5t-3 31t-12.5 24t-27 9.5q0 -16 -4 -24t-10.5 -11t-15 -3.5t-18 -3.5t-18.5 -9t-16 -21q-16 -45 -30.5 -86.5t-14.5 -87.5v-7.5t0.5 -10.5t0.5 -10.5v-7.5zM56.0566 474.587q0 10.999 4.34277 21.999t16.8867 11q11.5801 0 20.7471 -8.7998
t9.16699 -20.8994q0 -15.3994 -8.68457 -22.5498q-8.68457 -7.14941 -20.2646 -7.14941q-12.5439 0 -17.3691 5.5t-4.8252 20.8994zM194.047 474.587q0 10.999 4.8252 21.999t17.3691 11q10.6152 0 20.2646 -8.7998t9.64941 -20.8994q0 -15.3994 -9.16699 -22.5498
q-9.16699 -7.14941 -19.7822 -7.14941q-13.5088 0 -18.334 5.5t-4.8252 20.8994z" />
    <glyph glyph-name="divide" unicode="&#xf7;" horiz-adv-x="385" 
d="M37 249q0 10 3 15t15 11q32 -2 60.5 -3t57.5 0t59 4.5t66 8.5h3q9 0 20 -6t11 -16t-2 -20.5t-14 -10.5q-10 0 -17 5t-15 5h-4q-30 -7 -47.5 -10t-29 -4.5t-20.5 -1.5t-21 1t-31 2t-49 1h-8q-5 0 -10.5 0.5t-11.5 0.5h-6q-7 3 -8 8t-1 10zM139 130q0 12 10.5 19.5
t20.5 7.5t16.5 -4t6.5 -13q0 -13 -7 -25t-20 -12q-11 0 -19 8.5t-8 18.5zM130 366q0 12 6.5 15.5t17.5 3.5q3 0 7.5 -0.5t8 -2t5 -5.5t0.5 -11q-3 -11 -10.5 -14.5t-15.5 -3.5q-19 0 -19 18z" />
    <glyph glyph-name="oslash" unicode="&#xf8;" horiz-adv-x="270" 
d="M-5 -95q8 38 18 73q5 19 12 38v0q-8 7 -17 18v11q0 7 -0.5 15.5t-0.5 15.5v12q0 28 4 60t12 62.5t21.5 59t34 50t47.5 34.5q25 12 58 13l20 42l44 42h15q0 -11 -5 -25t-14 -30t-19 -32q-2 -4 -5 -9l3 -2q12 -13 16.5 -33t5 -42t0.5 -39q0 -39 -8 -81.5t-26 -77.5
t-49.5 -58t-78.5 -23q-14 0 -24 1q-6 1 -11 2q-14 -36 -29 -73v-7q0 -5 -0.5 -12.5t-3 -13.5t-8.5 -9h-1h-4h-1q0 1 -3 5.5t-3 7.5v5zM87 43q38 0 62 19.5t37.5 48.5t19 63.5t5.5 64.5q0 14 0.5 30.5t-3.5 31.5q-3 12 -9 21q-7 -11 -13 -21q-9 -13 -14 -24q-41 -85 -80 -172
q-13 -32 -27 -62h22zM139 295q-8 0 -17.5 -3t-18.5 -9t-16 -21q-16 -45 -30.5 -86.5t-14.5 -87.5v-8q0 -4 0.5 -10t0.5 -11v-1l110 240q-6 -2 -14 -3zM169 332v2v0v-2z" />
    <glyph glyph-name="ugrave" unicode="&#xf9;" horiz-adv-x="451" 
d="M82 410q-20 0 -28 -8t-12.5 -17l-8.5 -17t-15 -8q-12 0 -19.5 4.5t-7.5 17.5q1 13 10 25t22.5 21.5t28.5 14.5t30 3q14 0 26 -2t21 -8t14 -16.5t5 -27.5v-331l17 17q1 1 9.5 16.5t19.5 36.5t22.5 43t18.5 36q23 46 37 89.5t24 92.5q2 8 9.5 9.5t12.5 1.5q1 0 6 -0.5
t7 -0.5q0 -8 0.5 -24t1.5 -36t2 -41.5t2 -41.5t2 -35.5t1 -23.5q0 -6 1.5 -21.5t6 -32t12.5 -29.5t23 -13q14 8 28 19t28.5 22.5t29 21t30.5 14.5q8 -5 6 -15t-11 -23t-23 -26.5t-31 -25t-34.5 -18t-32.5 -4.5q-29 0 -44.5 18t-22 43.5t-7.5 53.5t-1 48q-11 0 -21.5 -17.5
t-21.5 -43.5t-23 -56t-26 -55.5t-29.5 -43t-33.5 -17.5q-13 0 -21 7t-12 18t-5 23t-1 23v314q0 3 -2 7.5t-5 8.5t-7 7t-8 3zM227 571q-7 6 -18.5 16.5t-21 23t-13 25t6.5 21.5q8 7 13 7t13 -6q10 -11 24.5 -25.5t20.5 -29.5l43 -62q-9 -10 -19 -8.5t-18.5 8t-16.5 15.5
t-14 15z" />
    <glyph glyph-name="uacute" unicode="&#xfa;" horiz-adv-x="451" 
d="M82 410q-20 0 -28 -8t-12.5 -17l-8.5 -17t-15 -8q-12 0 -19.5 4.5t-7.5 17.5q1 13 10 25t22.5 21.5t28.5 14.5t30 3q14 0 26 -2t21 -8t14 -16.5t5 -27.5v-331l17 17q1 1 9.5 16.5t19.5 36.5t22.5 43t18.5 36q23 46 37 89.5t24 92.5q2 8 9.5 9.5t12.5 1.5q1 0 6 -0.5
t7 -0.5q0 -8 0.5 -24t1.5 -36t2 -41.5t2 -41.5t2 -35.5t1 -23.5q0 -6 1.5 -21.5t6 -32t12.5 -29.5t23 -13q14 8 28 19t28.5 22.5t29 21t30.5 14.5q8 -5 6 -15t-11 -23t-23 -26.5t-31 -25t-34.5 -18t-32.5 -4.5q-29 0 -44.5 18t-22 43.5t-7.5 53.5t-1 48q-11 0 -21.5 -17.5
t-21.5 -43.5t-23 -56t-26 -55.5t-29.5 -43t-33.5 -17.5q-13 0 -21 7t-12 18t-5 23t-1 23v314q0 3 -2 7.5t-5 8.5t-7 7t-8 3zM224 568q-6 -6 -12 -15t-13.5 -16t-15.5 -8.5t-16 8.5l36 62q5 15 16.5 29.5t21.5 24.5q10 14 21 -1q8 -9 5 -21t-11 -24t-17.5 -22.5t-14.5 -16.5z
" />
    <glyph glyph-name="ucircumflex" unicode="&#xfb;" horiz-adv-x="451" 
d="M82 410q-20 0 -28 -8t-12.5 -17l-8.5 -17t-15 -8q-12 0 -19.5 4.5t-7.5 17.5q1 13 10 25t22.5 21.5t28.5 14.5t30 3q14 0 26 -2t21 -8t14 -16.5t5 -27.5v-331l17 17q1 1 9.5 16.5t19.5 36.5t22.5 43t18.5 36q23 46 37 89.5t24 92.5q2 8 9.5 9.5t12.5 1.5q1 0 6 -0.5
t7 -0.5q0 -8 0.5 -24t1.5 -36t2 -41.5t2 -41.5t2 -35.5t1 -23.5q0 -6 1.5 -21.5t6 -32t12.5 -29.5t23 -13q14 8 28 19t28.5 22.5t29 21t30.5 14.5q8 -5 6 -15t-11 -23t-23 -26.5t-31 -25t-34.5 -18t-32.5 -4.5q-29 0 -44.5 18t-22 43.5t-7.5 53.5t-1 48q-11 0 -21.5 -17.5
t-21.5 -43.5t-23 -56t-26 -55.5t-29.5 -43t-33.5 -17.5q-13 0 -21 7t-12 18t-5 23t-1 23v314q0 3 -2 7.5t-5 8.5t-7 7t-8 3zM266 622q-2 0 -6.5 -6t-10.5 -13.5t-10.5 -14t-4.5 -7.5q-26 -31 -39.5 -41.5t-17.5 -7t-1 17.5t10.5 32.5t17.5 39t19.5 36.5t17 24.5t9.5 2.5
q5 9 14 13.5t17 4.5h4l18 -45t9 -21.5t6 -9t6 -10t9.5 -24t18.5 -49.5q-15 -15 -24.5 -19.5t-16 -1t-11 13.5t-9 24t-10.5 30t-15 31z" />
    <glyph glyph-name="udieresis" unicode="&#xfc;" horiz-adv-x="451" 
d="M82 410q-20 0 -28 -8t-12.5 -17l-8.5 -17t-15 -8q-12 0 -19.5 4.5t-7.5 17.5q1 13 10 25t22.5 21.5t28.5 14.5t30 3q14 0 26 -2t21 -8t14 -16.5t5 -27.5v-331l17 17q1 1 9.5 16.5t19.5 36.5t22.5 43t18.5 36q23 46 37 89.5t24 92.5q2 8 9.5 9.5t12.5 1.5q1 0 6 -0.5
t7 -0.5q0 -8 0.5 -24t1.5 -36t2 -41.5t2 -41.5t2 -35.5t1 -23.5q0 -6 1.5 -21.5t6 -32t12.5 -29.5t23 -13q14 8 28 19t28.5 22.5t29 21t30.5 14.5q8 -5 6 -15t-11 -23t-23 -26.5t-31 -25t-34.5 -18t-32.5 -4.5q-29 0 -44.5 18t-22 43.5t-7.5 53.5t-1 48q-11 0 -21.5 -17.5
t-21.5 -43.5t-23 -56t-26 -55.5t-29.5 -43t-33.5 -17.5q-13 0 -21 7t-12 18t-5 23t-1 23v314q0 3 -2 7.5t-5 8.5t-7 7t-8 3zM127 546q0 10 4.5 20t17.5 10q12 0 21.5 -8t9.5 -19q0 -14 -9 -20.5t-21 -6.5q-13 0 -18 5t-5 19zM270 546q0 10 5 20t18 10q11 0 21 -8t10 -19
q0 -14 -9.5 -20.5t-20.5 -6.5q-14 0 -19 5t-5 19z" />
    <glyph glyph-name="yacute" unicode="&#xfd;" horiz-adv-x="417" 
d="M-55 -454q-6 38 -10 80t-7 97q0 9 0.5 29.5t2.5 46t6 53t9.5 52t13.5 43t20 26.5v-8q0 -30 -4.5 -59t-9 -58.5t-9 -59.5t-4.5 -60q0 -12 1.5 -34.5t4.5 -49.5t9 -55.5t16 -51.5t24 -37.5t33 -14.5q26 0 52.5 17t51 44.5t45.5 62t39 69.5t30 66.5t18 54.5q6 33 12 69.5
t11.5 75t9 76.5t3.5 76v6t-0.5 10.5t-0.5 10.5v7q-14 -15 -29.5 -33.5t-33.5 -34.5t-38.5 -27t-44.5 -11q-19 0 -32.5 12t-22 29.5t-13 37.5t-4.5 36q-1 9 -2 32.5t-2.5 50t-3 50t-1.5 33.5l-9 9q-7 -4 -18 -12t-23.5 -15t-24.5 -12.5t-21 -5.5q-12 0 -19.5 8.5t-7.5 18.5
q0 5 9.5 14t24 18.5t33 19.5t35.5 18t31 13.5t20 5.5q4 0 13 -1t9 -9v-236q0 -6 2 -17.5t6 -23.5t11 -20.5t16 -8.5q5 0 13 3t15.5 7t13.5 8.5t10 8.5q34 30 62.5 67t42.5 81q1 3 3.5 13.5t5 23t5.5 24t3 17.5q1 7 1.5 16t2.5 17.5t7 14.5t16 6q15 0 16.5 -9t1.5 -21
q0 -13 -2 -26t-4.5 -25.5t-3.5 -25t1 -25.5q-11 -188 -46.5 -336t-84 -249.5t-102 -153.5t-100.5 -47q-17 0 -33.5 7.5t-30.5 20.5t-24.5 28.5t-15.5 31.5zM206 568q-6 -6 -12 -15t-13.5 -16t-15.5 -8.5t-16 8.5l36 62q5 15 16.5 29.5t21.5 24.5q10 14 21 -1q8 -9 5 -21
t-11 -24t-17.5 -22.5t-14.5 -16.5z" />
    <glyph glyph-name="thorn" unicode="&#xfe;" horiz-adv-x="346" 
d="M26 -7q2 57 5 123t6 136t6 142t3.5 142t-1.5 134.5t-7 119.5q28 15 42 11t20 -21.5t6 -46t-1.5 -62t-2.5 -68.5t4 -65q11 14 23.5 28t26.5 25.5t30.5 18.5t36.5 7q32 0 51.5 -20t30.5 -49t14.5 -61.5t3.5 -56.5q0 -58 -18 -104t-50.5 -78.5t-78.5 -51t-103 -21.5l-2 -175
q2 -11 -5 -18.5t-16 -9t-16.5 3t-7.5 17.5zM91 246q-2 -7 0.5 -10.5t7 -5t9 -2t8.5 -0.5q26 0 52.5 9.5t48 26t36.5 40t18 51.5q15 36 16.5 73.5t-6 68.5t-22.5 52.5t-35.5 25.5t-44 -12t-47.5 -60z" />
    <glyph glyph-name="ydieresis" unicode="&#xff;" horiz-adv-x="417" 
d="M-55 -454q-6 38 -10 80t-7 97q0 9 0.5 29.5t2.5 46t6 53t9.5 52t13.5 43t20 26.5v-8q0 -30 -4.5 -59t-9 -58.5t-9 -59.5t-4.5 -60q0 -12 1.5 -34.5t4.5 -49.5t9 -55.5t16 -51.5t24 -37.5t33 -14.5q26 0 52.5 17t51 44.5t45.5 62t39 69.5t30 66.5t18 54.5q6 33 12 69.5
t11.5 75t9 76.5t3.5 76v6t-0.5 10.5t-0.5 10.5v7q-14 -15 -29.5 -33.5t-33.5 -34.5t-38.5 -27t-44.5 -11q-19 0 -32.5 12t-22 29.5t-13 37.5t-4.5 36q-1 9 -2 32.5t-2.5 50t-3 50t-1.5 33.5l-9 9q-7 -4 -18 -12t-23.5 -15t-24.5 -12.5t-21 -5.5q-12 0 -19.5 8.5t-7.5 18.5
q0 5 9.5 14t24 18.5t33 19.5t35.5 18t31 13.5t20 5.5q4 0 13 -1t9 -9v-236q0 -6 2 -17.5t6 -23.5t11 -20.5t16 -8.5q5 0 13 3t15.5 7t13.5 8.5t10 8.5q34 30 62.5 67t42.5 81q1 3 3.5 13.5t5 23t5.5 24t3 17.5q1 7 1.5 16t2.5 17.5t7 14.5t16 6q15 0 16.5 -9t1.5 -21
q0 -13 -2 -26t-4.5 -25.5t-3.5 -25t1 -25.5q-11 -188 -46.5 -336t-84 -249.5t-102 -153.5t-100.5 -47q-17 0 -33.5 7.5t-30.5 20.5t-24.5 28.5t-15.5 31.5zM110 546q0 10 4.5 20t17.5 10q12 0 21.5 -8t9.5 -19q0 -14 -9 -20.5t-21 -6.5q-13 0 -18 5t-5 19zM253 546
q0 10 5 20t18 10q11 0 21 -8t10 -19q0 -14 -9.5 -20.5t-20.5 -6.5q-14 0 -19 5t-5 19z" />
    <glyph glyph-name="Amacron" unicode="&#x100;" horiz-adv-x="672" 
d="M87 26q0 2 0.5 5l0.5 3q15 29 31.5 56t34 53.5t34 54t30.5 55.5q-4 9 -20 16t-38.5 15t-47.5 18.5t-46 25t-35 34t-14 45.5q0 27 18 47.5t44 34t55 20.5t50 7q44 0 77.5 -15t69.5 -39q12 9 20.5 20t15.5 24q3 7 13.5 25.5t21 39.5t21 39.5t13.5 26.5q8 6 13 7.5t14 1.5
h4.5h4.5q10 -42 15 -86t7.5 -88t4.5 -88t7 -88q3 0 11 -0.5t12 -0.5q14 0 28 3t28 6.5t28.5 6.5t29.5 3h3l4 -4t5 -4q-6 -11 -19.5 -17.5t-30 -10.5t-34.5 -7.5t-32 -8t-23.5 -10.5t-9.5 -17q0 -20 2.5 -40t6 -40.5t6.5 -41t3 -41.5q0 -5 -0.5 -14t-2 -18t-6 -16t-13.5 -7
q-10 0 -18 15t-13 38t-8.5 50.5t-6 53t-5.5 45t-6 25.5q-8 1 -29.5 2t-45 2.5t-44.5 3t-29 1.5h-10q-20 0 -37.5 -18.5t-32 -47t-28.5 -61t-27 -61t-27 -47.5t-30 -19q-11 0 -14.5 8.5t-3.5 18.5zM288 296q8 -5 19.5 -7.5t23.5 -2.5h22.5h18.5q4 0 10 0.5t12 0.5t10.5 0.5
t5.5 0.5l9 8q2 2 -7 18t-22.5 33.5t-26.5 32t-18 14.5q-1 0 -2 -1t-3 -1q-15 -22 -28 -46t-24 -50zM61 408q0 -26 18 -45.5t44 -32.5t55 -19t51 -6q14 0 29 14.5t27.5 33.5t21 39t8.5 31q0 12 -16 22.5t-37.5 18.5t-42.5 12.5t-31 4.5q-15 0 -36.5 -4.5t-42 -13.5
t-34.5 -22.5t-14 -32.5zM375 441q0 -13 10 -32t24 -37t29.5 -31t27.5 -13q0 5 -0.5 15t-1 22t-1 22t-0.5 15q-2 14 -4.5 37t-5 45t-5 39t-3.5 18l-9 17q-1 -1 -4.5 -4t-4.5 -4q-3 -6 -10 -19.5t-15.5 -28.5t-15.5 -29t-10 -19q0 -2 -0.5 -7t-0.5 -6zM311 699q0 11 3.5 16
t15.5 10q31 -2 59.5 -2.5t57.5 0.5t59.5 4t65.5 8h5q7 0 18.5 -6t11.5 -15q0 -10 -2.5 -20.5t-14.5 -10.5q-9 0 -16 4.5t-15 4.5h-4q-29 -6 -47 -9.5t-30 -5t-20.5 -1t-21 1.5t-31 2t-49.5 1h-7q-5 0 -10.5 0.5t-10.5 0.5h-7q-8 3 -9 7.5t-1 9.5z" />
    <glyph glyph-name="amacron" unicode="&#x101;" horiz-adv-x="458" 
d="M244 122q-15 -18 -34.5 -38t-42 -37t-47 -28.5t-50.5 -11.5q-53 0 -53 51q0 21 17.5 55.5t45.5 72.5t62 73.5t68 59t62.5 29.5t46.5 -17q0 -27 -4 -54t-8 -53.5t-8 -52.5t-4 -53q0 -6 1.5 -18.5t5 -25t9.5 -22t16 -9.5q24 0 39.5 6t27 14.5t20 19.5t18 22t21.5 21t31 16
v-3v-5q0 -25 -15 -49.5t-38 -43.5t-51.5 -30.5t-55.5 -11.5q-23 0 -37 13t-22.5 31t-12.5 39.5t-8 39.5zM262 253q10 33 7.5 45t-14.5 9.5t-31 -17t-41 -35t-44 -45.5t-41 -47.5t-31 -40.5t-15 -26q-6 -23 -1.5 -35t14 -16.5t21 -1.5t19.5 9q17 15 43 40.5t50.5 54.5
t42.5 57.5t21 48.5zM97 445q0 11 3.5 16t15.5 10q31 -2 59.5 -2.5t57.5 0.5t59.5 4t65.5 8h5q7 0 18.5 -6t11.5 -15q0 -10 -2.5 -20.5t-14.5 -10.5q-9 0 -16 4.5t-15 4.5h-4q-29 -6 -47 -9.5t-30 -5t-20.5 -1t-21 1.5t-31 2t-49.5 1h-7q-5 0 -10.5 0.5t-10.5 0.5h-7
q-8 3 -9 7.5t-1 9.5z" />
    <glyph glyph-name="Abreve" unicode="&#x102;" horiz-adv-x="672" 
d="M87 26q0 2 0.5 5l0.5 3q15 29 31.5 56t34 53.5t34 54t30.5 55.5q-4 9 -20 16t-38.5 15t-47.5 18.5t-46 25t-35 34t-14 45.5q0 27 18 47.5t44 34t55 20.5t50 7q44 0 77.5 -15t69.5 -39q12 9 20.5 20t15.5 24q3 7 13.5 25.5t21 39.5t21 39.5t13.5 26.5q8 6 13 7.5t14 1.5
h4.5h4.5q10 -42 15 -86t7.5 -88t4.5 -88t7 -88q3 0 11 -0.5t12 -0.5q14 0 28 3t28 6.5t28.5 6.5t29.5 3h3l4 -4t5 -4q-6 -11 -19.5 -17.5t-30 -10.5t-34.5 -7.5t-32 -8t-23.5 -10.5t-9.5 -17q0 -20 2.5 -40t6 -40.5t6.5 -41t3 -41.5q0 -5 -0.5 -14t-2 -18t-6 -16t-13.5 -7
q-10 0 -18 15t-13 38t-8.5 50.5t-6 53t-5.5 45t-6 25.5q-8 1 -29.5 2t-45 2.5t-44.5 3t-29 1.5h-10q-20 0 -37.5 -18.5t-32 -47t-28.5 -61t-27 -61t-27 -47.5t-30 -19q-11 0 -14.5 8.5t-3.5 18.5zM288 296q8 -5 19.5 -7.5t23.5 -2.5h22.5h18.5q4 0 10 0.5t12 0.5t10.5 0.5
t5.5 0.5l9 8q2 2 -7 18t-22.5 33.5t-26.5 32t-18 14.5q-1 0 -2 -1t-3 -1q-15 -22 -28 -46t-24 -50zM61 408q0 -26 18 -45.5t44 -32.5t55 -19t51 -6q14 0 29 14.5t27.5 33.5t21 39t8.5 31q0 12 -16 22.5t-37.5 18.5t-42.5 12.5t-31 4.5q-15 0 -36.5 -4.5t-42 -13.5
t-34.5 -22.5t-14 -32.5zM375 441q0 -13 10 -32t24 -37t29.5 -31t27.5 -13q0 5 -0.5 15t-1 22t-1 22t-0.5 15q-2 14 -4.5 37t-5 45t-5 39t-3.5 18l-9 17q-1 -1 -4.5 -4t-4.5 -4q-3 -6 -10 -19.5t-15.5 -28.5t-15.5 -29t-10 -19q0 -2 -0.5 -7t-0.5 -6zM443 784
q-1 -44 -17 -66.5t-38.5 -30t-45.5 -1.5t-38.5 21.5t-19 38t15.5 48.5q22 -41 37.5 -55t27.5 -12.5t21 13t18 24t18 20t21 0.5z" />
    <glyph glyph-name="abreve" unicode="&#x103;" horiz-adv-x="458" 
d="M244 122q-15 -18 -34.5 -38t-42 -37t-47 -28.5t-50.5 -11.5q-53 0 -53 51q0 21 17.5 55.5t45.5 72.5t62 73.5t68 59t62.5 29.5t46.5 -17q0 -27 -4 -54t-8 -53.5t-8 -52.5t-4 -53q0 -6 1.5 -18.5t5 -25t9.5 -22t16 -9.5q24 0 39.5 6t27 14.5t20 19.5t18 22t21.5 21t31 16
v-3v-5q0 -25 -15 -49.5t-38 -43.5t-51.5 -30.5t-55.5 -11.5q-23 0 -37 13t-22.5 31t-12.5 39.5t-8 39.5zM262 253q10 33 7.5 45t-14.5 9.5t-31 -17t-41 -35t-44 -45.5t-41 -47.5t-31 -40.5t-15 -26q-6 -23 -1.5 -35t14 -16.5t21 -1.5t19.5 9q17 15 43 40.5t50.5 54.5
t42.5 57.5t21 48.5zM324 509q-1 -44 -17 -66.5t-38.5 -30t-45.5 -1.5t-38.5 21.5t-19 38t15.5 48.5q22 -41 37.5 -55t27.5 -12.5t21 13t18 24t18 20t21 0.5z" />
    <glyph glyph-name="Aogonek" unicode="&#x104;" horiz-adv-x="672" 
d="M87 26q0 2 0.5 5l0.5 3q15 29 31.5 56t34 53.5t34 54t30.5 55.5q-4 9 -20 16t-38.5 15t-47.5 18.5t-46 25t-35 34t-14 45.5q0 27 18 47.5t44 34t55 20.5t50 7q44 0 77.5 -15t69.5 -39q12 9 20.5 20t15.5 24q3 7 13.5 25.5t21 39.5t21 39.5t13.5 26.5q8 6 13 7.5t14 1.5
h4.5h4.5q10 -42 15 -86t7.5 -88t4.5 -88t7 -88q3 0 11 -0.5t12 -0.5q14 0 28 3t28 6.5t28.5 6.5t29.5 3h3l4 -4l5 -4q-6 -11 -19.5 -17.5t-30 -10.5t-34.5 -7.5t-32 -8t-23.5 -10.5t-9.5 -17q0 -20 2.5 -40t6 -40.5t6.5 -41t3 -41.5q0 -5 -0.5 -14t-2 -18t-6 -16t-13.5 -7
q-4 0 -9 2q-3 -6 -6 -14q-6 -25 9 -64q4 -12 13 -14t19.5 1.5t22.5 9.5t23 9t20.5 0t14.5 -18q1 -13 -11.5 -23t-31.5 -16t-39.5 -6t-34.5 6q-14 3 -24.5 15.5t-16.5 29.5q-4 11 -2 29.5t7.5 36.5t12.5 31q5 8 9 12q-4 11 -7 26q-5 23 -8.5 50.5t-6 53t-5.5 45t-6 25.5
q-8 1 -29.5 2t-45 2.5t-44.5 3t-29 1.5h-10q-20 0 -37.5 -18.5t-32 -47t-28.5 -61t-27 -61t-27 -47.5t-30 -19q-11 0 -14.5 8.5t-3.5 18.5zM61 408q0 -26 18 -45.5t44 -32.5t55 -19t51 -6q14 0 29 14.5t27.5 33.5t21 39t8.5 31q0 12 -16 22.5t-37.5 18.5t-42.5 12.5t-31 4.5
q-15 0 -36.5 -4.5t-42 -13.5t-34.5 -22.5t-14 -32.5zM375 441q0 -13 10 -32t24 -37t29.5 -31t27.5 -13q0 5 -0.5 15t-1 22t-1 22t-0.5 15q-2 14 -4.5 37t-5 45t-5 39t-3.5 18l-9 17q-1 -1 -4.5 -4t-4.5 -4q-3 -6 -10 -19.5t-15.5 -28.5t-15.5 -29t-10 -19q0 -2 -0.5 -7
t-0.5 -6zM288 296q8 -5 19.5 -7.5t23.5 -2.5h22.5h18.5q4 0 10 0.5t12 0.5t10.5 0.5t5.5 0.5l9 8q2 2 -7 18t-22.5 33.5t-26.5 32t-18 14.5q-1 0 -2 -1t-3 -1q-15 -22 -28 -46t-24 -50z" />
    <glyph glyph-name="aogonek" unicode="&#x105;" horiz-adv-x="458" 
d="M244 122q-15 -18 -34.5 -38t-42 -37t-47 -28.5t-50.5 -11.5q-53 0 -53 51q0 21 17.5 55.5t45.5 72.5t62 73.5t68 59t62.5 29.5t46.5 -17q0 -27 -4 -54t-8 -53.5t-8 -52.5t-4 -53q0 -6 1.5 -18.5t5 -25t9.5 -22t16 -9.5q24 0 39.5 6t27 14.5t20 19.5t18 22t21.5 21t31 16
v-3v-5q0 -25 -15 -49.5t-38 -43.5t-52 -31q-13 -5 -26 -8q-7 -8 -10 -21q-7 -25 8 -64q4 -12 13 -14t19.5 1.5t22.5 9.5t23 9t20.5 0t14.5 -18q2 -13 -11 -23t-31.5 -16t-39.5 -6t-35 6q-14 3 -24 15.5t-16 29.5q-5 11 -3 29.5t7 36.5q4 12 9 22q-21 1 -34 13
q-13 13 -21.5 31t-12.5 39.5t-8 39.5zM262 253q10 33 7.5 45t-14.5 9.5t-31 -17t-41 -35t-44 -45.5t-41 -47.5t-31 -40.5t-15 -26q-6 -23 -1.5 -35t14 -16.5t21 -1.5t19.5 9q17 15 43 40.5t50.5 54.5t42.5 57.5t21 48.5z" />
    <glyph glyph-name="Cacute" unicode="&#x106;" horiz-adv-x="462" 
d="M25 188q0 23 3 59.5t10.5 79t20.5 85t31.5 77.5t43.5 57t58 22q40 0 68.5 -23t47 -56.5t28.5 -71.5t13 -68q-2 -12 -11 -19.5t-19 -7.5h-5q-1 2 -4 5l-4 4q0 3 -0.5 7.5t-0.5 10.5t-0.5 10.5t-0.5 6.5q0 19 5 34t5 31v5q-12 14 -24 29.5t-25.5 28.5t-29.5 21.5t-36 8.5
q-25 0 -45.5 -18.5t-35.5 -47t-26 -64t-18 -70t-10 -64t-3 -46.5q0 -39 9 -72t29 -57t49.5 -37.5t70.5 -13.5q21 0 44 4t45.5 11t44 17t39.5 22q2 0 7 4t10.5 8.5t11 8t6.5 5.5q1 0 4.5 0.5t4.5 0.5q2 0 5 -0.5t4 -0.5q-5 -21 -19 -37.5t-33.5 -29.5t-43.5 -22t-48 -15
t-45.5 -8.5t-38.5 -2.5q-43 0 -78.5 13t-61 37t-39 59t-13.5 80zM229 722q-6 -6 -12 -15t-13.5 -16t-15.5 -8.5t-16 8.5l36 62q5 15 16.5 29.5t21.5 24.5q10 14 21 -1q8 -9 5 -21t-11 -24t-17.5 -22.5t-14.5 -16.5z" />
    <glyph glyph-name="cacute" unicode="&#x107;" horiz-adv-x="260" 
d="M17 100q0 8 2.5 32t7 54.5t11.5 64t17.5 61.5t23.5 46t30 18q21 0 33 -16t18.5 -37.5t9 -44t2.5 -35.5q-21 0 -27 7t-8.5 17t-5.5 20.5t-17 18.5q-23 -14 -35 -39.5t-18.5 -55.5t-7.5 -59t-1 -52q0 -28 10.5 -47t42.5 -19q25 0 48 10t44 25.5t39.5 34t34.5 35.5h19
l-0.5 -3.5t-1.5 -5.5q-14 -29 -35 -53t-46 -41t-54.5 -27t-61.5 -10q-23 0 -37.5 7.5t-22.5 21t-11 32t-3 40.5zM122 463q-6 -6 -12 -15t-13.5 -16t-15.5 -8.5t-16 8.5l36 62q5 15 16.5 29.5t21.5 24.5q10 14 21 -1q8 -9 5 -21t-11 -24t-17.5 -22.5t-14.5 -16.5z" />
    <glyph glyph-name="Ccircumflex" unicode="&#x108;" horiz-adv-x="462" 
d="M25 188q0 23 3 59.5t10.5 79t20.5 85t31.5 77.5t43.5 57t58 22q40 0 68.5 -23t47 -56.5t28.5 -71.5t13 -68q-2 -12 -11 -19.5t-19 -7.5h-5q-1 2 -4 5l-4 4q0 3 -0.5 7.5t-0.5 10.5t-0.5 10.5t-0.5 6.5q0 19 5 34t5 31v5q-12 14 -24 29.5t-25.5 28.5t-29.5 21.5t-36 8.5
q-25 0 -45.5 -18.5t-35.5 -47t-26 -64t-18 -70t-10 -64t-3 -46.5q0 -39 9 -72t29 -57t49.5 -37.5t70.5 -13.5q21 0 44 4t45.5 11t44 17t39.5 22q2 0 7 4t10.5 8.5t11 8t6.5 5.5q1 0 4.5 0.5t4.5 0.5q2 0 5 -0.5t4 -0.5q-5 -21 -19 -37.5t-33.5 -29.5t-43.5 -22t-48 -15
t-45.5 -8.5t-38.5 -2.5q-43 0 -78.5 13t-61 37t-39 59t-13.5 80zM272 776q-2 0 -6.5 -6t-10.5 -13.5t-10.5 -14t-4.5 -7.5q-26 -31 -39.5 -41.5t-17.5 -7t-1 17.5t10.5 32.5t17.5 39t19.5 36.5t17 24.5t9.5 2.5q5 9 14 13.5t17 4.5h4l18 -45t9 -21.5t6 -9t6 -10t9.5 -24
t18.5 -49.5q-15 -15 -24.5 -19.5t-16 -1t-11 13.5t-9 24t-10.5 30t-15 31z" />
    <glyph glyph-name="ccircumflex" unicode="&#x109;" horiz-adv-x="260" 
d="M17 100q0 8 2.5 32t7 54.5t11.5 64t17.5 61.5t23.5 46t30 18q21 0 33 -16t18.5 -37.5t9 -44t2.5 -35.5q-21 0 -27 7t-8.5 17t-5.5 20.5t-17 18.5q-23 -14 -35 -39.5t-18.5 -55.5t-7.5 -59t-1 -52q0 -28 10.5 -47t42.5 -19q25 0 48 10t44 25.5t39.5 34t34.5 35.5h19
l-0.5 -3.5t-1.5 -5.5q-14 -29 -35 -53t-46 -41t-54.5 -27t-61.5 -10q-23 0 -37.5 7.5t-22.5 21t-11 32t-3 40.5zM141 546q-2 0 -6.5 -6t-10.5 -13.5t-10.5 -14t-4.5 -7.5q-26 -31 -39.5 -41.5t-17.5 -7t-1 17.5t10.5 32.5t17.5 39t19.5 36.5t17 24.5t9.5 2.5q5 9 14 13.5
t17 4.5h4l18 -45t9 -21.5t6 -9t6 -10t9.5 -24t18.5 -49.5q-15 -15 -24.5 -19.5t-16 -1t-11 13.5t-9 24t-10.5 30t-15 31z" />
    <glyph glyph-name="Cdotaccent" unicode="&#x10a;" horiz-adv-x="462" 
d="M25 188q0 23 3 59.5t10.5 79t20.5 85t31.5 77.5t43.5 57t58 22q40 0 68.5 -23t47 -56.5t28.5 -71.5t13 -68q-2 -12 -11 -19.5t-19 -7.5h-5q-1 2 -4 5l-4 4q0 3 -0.5 7.5t-0.5 10.5t-0.5 10.5t-0.5 6.5q0 19 5 34t5 31v5q-12 14 -24 29.5t-25.5 28.5t-29.5 21.5t-36 8.5
q-25 0 -45.5 -18.5t-35.5 -47t-26 -64t-18 -70t-10 -64t-3 -46.5q0 -39 9 -72t29 -57t49.5 -37.5t70.5 -13.5q21 0 44 4t45.5 11t44 17t39.5 22q2 0 7 4t10.5 8.5t11 8t6.5 5.5q1 0 4.5 0.5t4.5 0.5q2 0 5 -0.5t4 -0.5q-5 -21 -19 -37.5t-33.5 -29.5t-43.5 -22t-48 -15
t-45.5 -8.5t-38.5 -2.5q-43 0 -78.5 13t-61 37t-39 59t-13.5 80zM184 669q0 8 2 16.5t6.5 15.5t12 11.5t17.5 4.5t19.5 -3.5t17 -9.5t12.5 -13.5t5 -16.5q0 -22 -16 -32t-36 -10q-23 0 -31.5 7.5t-8.5 29.5z" />
    <glyph glyph-name="cdotaccent" unicode="&#x10b;" horiz-adv-x="260" 
d="M17 100q0 8 2.5 32t7 54.5t11.5 64t17.5 61.5t23.5 46t30 18q21 0 33 -16t18.5 -37.5t9 -44t2.5 -35.5q-21 0 -27 7t-8.5 17t-5.5 20.5t-17 18.5q-23 -14 -35 -39.5t-18.5 -55.5t-7.5 -59t-1 -52q0 -28 10.5 -47t42.5 -19q25 0 48 10t44 25.5t39.5 34t34.5 35.5h19
l-0.5 -3.5t-1.5 -5.5q-14 -29 -35 -53t-46 -41t-54.5 -27t-61.5 -10q-23 0 -37.5 7.5t-22.5 21t-11 32t-3 40.5zM84 515q0 8 2 16.5t6.5 15.5t12 11.5t17.5 4.5t19.5 -3.5t17 -9.5t12.5 -13.5t5 -16.5q0 -22 -16 -32t-36 -10q-23 0 -31.5 7.5t-8.5 29.5z" />
    <glyph glyph-name="Ccaron" unicode="&#x10c;" horiz-adv-x="462" 
d="M25 188q0 23 3 59.5t10.5 79t20.5 85t31.5 77.5t43.5 57t58 22q40 0 68.5 -23t47 -56.5t28.5 -71.5t13 -68q-2 -12 -11 -19.5t-19 -7.5h-5q-1 2 -4 5l-4 4q0 3 -0.5 7.5t-0.5 10.5t-0.5 10.5t-0.5 6.5q0 19 5 34t5 31v5q-12 14 -24 29.5t-25.5 28.5t-29.5 21.5t-36 8.5
q-25 0 -45.5 -18.5t-35.5 -47t-26 -64t-18 -70t-10 -64t-3 -46.5q0 -39 9 -72t29 -57t49.5 -37.5t70.5 -13.5q21 0 44 4t45.5 11t44 17t39.5 22q2 0 7 4t10.5 8.5t11 8t6.5 5.5q1 0 4.5 0.5t4.5 0.5q2 0 5 -0.5t4 -0.5q-5 -21 -19 -37.5t-33.5 -29.5t-43.5 -22t-48 -15
t-45.5 -8.5t-38.5 -2.5q-43 0 -78.5 13t-61 37t-39 59t-13.5 80zM266 726q12 17 17.5 34.5t11.5 28.5t15.5 11.5t28.5 -16.5q-10 -25 -15.5 -36.5t-8.5 -17t-5 -7.5t-5 -7t-8.5 -15.5t-14.5 -32.5h-4q-6 0 -13.5 3t-12.5 9q-1 -4 -7.5 2.5t-14.5 18t-16.5 26.5t-15 28.5
t-9 24t1 12.5t15 -5.5t33.5 -29.5q0 -1 4 -6t9 -10t9 -9.5t5 -5.5z" />
    <glyph glyph-name="ccaron" unicode="&#x10d;" horiz-adv-x="260" 
d="M17 100q0 8 2.5 32t7 54.5t11.5 64t17.5 61.5t23.5 46t30 18q21 0 33 -16t18.5 -37.5t9 -44t2.5 -35.5q-21 0 -27 7t-8.5 17t-5.5 20.5t-17 18.5q-23 -14 -35 -39.5t-18.5 -55.5t-7.5 -59t-1 -52q0 -28 10.5 -47t42.5 -19q25 0 48 10t44 25.5t39.5 34t34.5 35.5h19
l-0.5 -3.5t-1.5 -5.5q-14 -29 -35 -53t-46 -41t-54.5 -27t-61.5 -10q-23 0 -37.5 7.5t-22.5 21t-11 32t-3 40.5zM118 506q12 17 17.5 34.5t11.5 28.5t15.5 11.5t28.5 -16.5q-10 -25 -15.5 -36.5t-8.5 -17t-5 -7.5t-5 -7t-8.5 -15.5t-14.5 -32.5h-4q-6 0 -13.5 3t-12.5 9
q-1 -4 -7.5 2.5t-14.5 18t-16.5 26.5t-15 28.5t-9 24t1 12.5t15 -5.5t33.5 -29.5q0 -1 4 -6t9 -10t9 -9.5t5 -5.5z" />
    <glyph glyph-name="Dcaron" unicode="&#x10e;" 
d="M148 8q-6 5 -22.5 17.5t-34.5 27t-34 26.5t-22 17q-9 7 -14.5 12.5t-5.5 18.5q15 0 26 -7.5t21.5 -16t22 -15.5t26.5 -7q0 10 0.5 35.5t1 54.5t1 54.5t0.5 36.5q0 4 -1.5 19.5t-3 33t-3 32.5t-1.5 19q0 2 1 11.5t3 19.5t3.5 19t1.5 11v22v23q0 2 -1.5 12t-3.5 22t-3 22
t-1 13q0 4 1 14t2 21t2.5 21t3.5 13q15 13 23 16t23 3q42 0 83 -15.5t78 -42.5t67.5 -63t53 -76t35.5 -82.5t13 -81.5q0 -45 -18.5 -93t-50.5 -87t-74.5 -64t-90.5 -25q-14 0 -27 2t-26.5 4t-27 3.5t-27.5 -0.5zM175 52q0 -1 3 -4.5t6 -4.5q2 -1 8.5 -3.5t15 -5.5t16.5 -5
t11 -3h6q25 0 51 12.5t50 32.5t44 46.5t35 54.5t24 56t9 52q0 29 -12 63t-32.5 68t-47.5 65.5t-57.5 55.5t-62 38.5t-61.5 14.5q-7 0 -14 -0.5t-13 -2.5t-10.5 -7t-4.5 -14v-34t1.5 -34.5t5 -34t11.5 -31.5zM292 726q12 17 17.5 34.5t11.5 28.5t15.5 11.5t28.5 -16.5
q-10 -25 -15.5 -36.5t-8.5 -17t-5 -7.5t-5 -7t-8.5 -15.5t-14.5 -32.5h-4q-6 0 -13.5 3t-12.5 9q-1 -4 -7.5 2.5t-14.5 18t-16.5 26.5t-15 28.5t-9 24t1 12.5t15 -5.5t33.5 -29.5q0 -1 4 -6t9 -10t9 -9.5t5 -5.5z" />
    <glyph glyph-name="Emacron" unicode="&#x112;" horiz-adv-x="584" 
d="M88 184q-14 7 -20.5 14t-6.5 20q0 7 2.5 12t6 9.5t6.5 9.5t3 12q0 12 0.5 28t-1.5 32.5t-7.5 31t-18.5 23.5q3 1 9.5 7.5l8.5 8.5v2v1v2q0 13 -6.5 18t-15 7t-17.5 4t-13 10q11 15 36 26t56.5 19.5t66 14.5t67.5 10.5t59 6t41 1.5h23q9 0 23.5 -1.5t28.5 -3t24.5 -2.5
l10.5 -1l9 -8l-9 -10q-87 -3 -167.5 -11.5t-164.5 -31.5q-1 -2 -2 -8t-2.5 -13t-2.5 -13.5t-1 -8.5v-6.5t0.5 -9.5t0.5 -9v-7q82 0 162 7.5t162 7.5h12t10.5 -1.5t7.5 -6t3 -12.5q0 -5 -24.5 -14t-61.5 -20.5t-80.5 -25.5t-80.5 -29t-61.5 -31t-24.5 -31v-3v-1q1 -1 5 -4.5
t4 -5.5q0 -1 1 -1v-2q0 -1 1 -1l-0.5 -0.5t-0.5 -1.5q-1 -1 -1 -2t-4 -4.5t-5 -3.5q-1 -3 -4.5 -10t-3.5 -8q0 -33 11.5 -56.5t30.5 -38t44.5 -21.5t53.5 -7q39 0 71 11t60 30t53.5 44.5t50.5 55.5q1 0 3.5 5t5.5 10.5t5.5 11t2.5 7.5q0 1 0.5 4.5t0.5 5.5q0 6 -3.5 9.5
t-8.5 5.5t-10.5 2.5t-11.5 0.5q0 14 13 19t26 5q15 0 22.5 -10t7.5 -25q0 -28 -15 -56.5t-39 -55t-55.5 -49t-64.5 -39t-65 -26.5t-58 -10q-44 0 -73 14.5t-49 40t-31.5 59t-20.5 71.5zM112 352q0 -21 2 -36q1 -14 2.5 -25t5.5 -11h9q1 0 13 4.5t28.5 11.5t34 14.5
t28.5 11.5q3 1 7.5 4t10.5 5.5t10.5 5.5t7.5 3q-18 5 -39 7.5t-42.5 3.5t-42 1h-35.5zM144 687q0 11 3.5 16t15.5 10q31 -2 59.5 -2.5t57.5 0.5t59.5 4t65.5 8h5q7 0 18.5 -6t11.5 -15q0 -10 -2.5 -20.5t-14.5 -10.5q-9 0 -16 4.5t-15 4.5h-4q-29 -6 -47 -9.5t-30 -5
t-20.5 -1t-21 1.5t-31 2t-49.5 1h-7q-5 0 -10.5 0.5t-10.5 0.5h-7q-8 3 -9 7.5t-1 9.5z" />
    <glyph glyph-name="emacron" unicode="&#x113;" horiz-adv-x="358" 
d="M26 125q-7 -4 -11 -2t-5.5 6t-2 9.5t-0.5 7.5q0 20 5 24.5t13 6t17 4.5t17 19q12 25 21.5 52.5t23.5 51.5t35.5 39t59.5 15q6 0 13.5 -1t14 -3.5t11 -8t4.5 -14.5q0 -21 -10.5 -37.5t-26 -30t-33.5 -25.5t-33 -23t-25.5 -23t-10.5 -26v-96q0 -11 8.5 -17.5t19.5 -10.5
t23 -6t18 -2q24 0 48 8.5t46.5 21.5t42.5 28.5t38 29.5q6 5 10.5 10.5t9 10.5t10 8.5t14.5 5.5v-4v-5q0 -8 -1.5 -14t-7.5 -12q-22 -25 -47 -47t-53 -39t-59 -27t-66 -10t-54 10t-29.5 29t-14.5 45t-9 56zM155 280q0 2 -3.5 -0.5t-8 -6.5t-6.5 -7.5t0 -3.5q5 -1 12 6t6 12z
M19 438q0 11 3.5 16t15.5 10q31 -2 59.5 -2.5t57.5 0.5t59.5 4t65.5 8h5q7 0 18.5 -6t11.5 -15q0 -10 -2.5 -20.5t-14.5 -10.5q-9 0 -16 4.5t-15 4.5h-4q-29 -6 -47 -9.5t-30 -5t-20.5 -1t-21 1.5t-31 2t-49.5 1h-7q-5 0 -10.5 0.5t-10.5 0.5h-7q-8 3 -9 7.5t-1 9.5z" />
    <glyph glyph-name="Ebreve" unicode="&#x114;" horiz-adv-x="584" 
d="M88 184q-14 7 -20.5 14t-6.5 20q0 7 2.5 12t6 9.5t6.5 9.5t3 12q0 12 0.5 28t-1.5 32.5t-7.5 31t-18.5 23.5q3 1 9.5 7.5l8.5 8.5v2v1v2q0 13 -6.5 18t-15 7t-17.5 4t-13 10q11 15 36 26t56.5 19.5t66 14.5t67.5 10.5t59 6t41 1.5h23q9 0 23.5 -1.5t28.5 -3t24.5 -2.5
l10.5 -1l9 -8l-9 -10q-87 -3 -167.5 -11.5t-164.5 -31.5q-1 -2 -2 -8t-2.5 -13t-2.5 -13.5t-1 -8.5v-6.5t0.5 -9.5t0.5 -9v-7q82 0 162 7.5t162 7.5h12t10.5 -1.5t7.5 -6t3 -12.5q0 -5 -24.5 -14t-61.5 -20.5t-80.5 -25.5t-80.5 -29t-61.5 -31t-24.5 -31v-3v-1q1 -1 5 -4.5
t4 -5.5q0 -1 1 -1v-2q0 -1 1 -1l-0.5 -0.5t-0.5 -1.5q-1 -1 -1 -2t-4 -4.5t-5 -3.5q-1 -3 -4.5 -10t-3.5 -8q0 -33 11.5 -56.5t30.5 -38t44.5 -21.5t53.5 -7q39 0 71 11t60 30t53.5 44.5t50.5 55.5q1 0 3.5 5t5.5 10.5t5.5 11t2.5 7.5q0 1 0.5 4.5t0.5 5.5q0 6 -3.5 9.5
t-8.5 5.5t-10.5 2.5t-11.5 0.5q0 14 13 19t26 5q15 0 22.5 -10t7.5 -25q0 -28 -15 -56.5t-39 -55t-55.5 -49t-64.5 -39t-65 -26.5t-58 -10q-44 0 -73 14.5t-49 40t-31.5 59t-20.5 71.5zM112 352q0 -21 2 -36q1 -14 2.5 -25t5.5 -11h9q1 0 13 4.5t28.5 11.5t34 14.5
t28.5 11.5q3 1 7.5 4t10.5 5.5t10.5 5.5t7.5 3q-18 5 -39 7.5t-42.5 3.5t-42 1h-35.5zM326 690q-1 -44 -17 -66.5t-38.5 -30t-45.5 -1.5t-38.5 21.5t-19 38t15.5 48.5q22 -41 37.5 -55t27.5 -12.5t21 13t18 24t18 20t21 0.5z" />
    <glyph glyph-name="ebreve" unicode="&#x115;" horiz-adv-x="358" 
d="M26 125q-7 -4 -11 -2t-5.5 6t-2 9.5t-0.5 7.5q0 20 5 24.5t13 6t17 4.5t17 19q12 25 21.5 52.5t23.5 51.5t35.5 39t59.5 15q6 0 13.5 -1t14 -3.5t11 -8t4.5 -14.5q0 -21 -10.5 -37.5t-26 -30t-33.5 -25.5t-33 -23t-25.5 -23t-10.5 -26v-96q0 -11 8.5 -17.5t19.5 -10.5
t23 -6t18 -2q24 0 48 8.5t46.5 21.5t42.5 28.5t38 29.5q6 5 10.5 10.5t9 10.5t10 8.5t14.5 5.5v-4v-5q0 -8 -1.5 -14t-7.5 -12q-22 -25 -47 -47t-53 -39t-59 -27t-66 -10t-54 10t-29.5 29t-14.5 45t-9 56zM155 280q0 2 -3.5 -0.5t-8 -6.5t-6.5 -7.5t0 -3.5q5 -1 12 6t6 12z
M241 509q-1 -44 -17 -66.5t-38.5 -30t-45.5 -1.5t-38.5 21.5t-19 38t15.5 48.5q22 -41 37.5 -55t27.5 -12.5t21 13t18 24t18 20t21 0.5z" />
    <glyph glyph-name="Edotaccent" unicode="&#x116;" horiz-adv-x="584" 
d="M88 184q-14 7 -20.5 14t-6.5 20q0 7 2.5 12t6 9.5t6.5 9.5t3 12q0 12 0.5 28t-1.5 32.5t-7.5 31t-18.5 23.5q3 1 9.5 7.5l8.5 8.5v2v1v2q0 13 -6.5 18t-15 7t-17.5 4t-13 10q11 15 36 26t56.5 19.5t66 14.5t67.5 10.5t59 6t41 1.5h23q9 0 23.5 -1.5t28.5 -3t24.5 -2.5
l10.5 -1l9 -8l-9 -10q-87 -3 -167.5 -11.5t-164.5 -31.5q-1 -2 -2 -8t-2.5 -13t-2.5 -13.5t-1 -8.5v-6.5t0.5 -9.5t0.5 -9v-7q82 0 162 7.5t162 7.5h12t10.5 -1.5t7.5 -6t3 -12.5q0 -5 -24.5 -14t-61.5 -20.5t-80.5 -25.5t-80.5 -29t-61.5 -31t-24.5 -31v-3v-1q1 -1 5 -4.5
t4 -5.5q0 -1 1 -1v-2q0 -1 1 -1l-0.5 -0.5t-0.5 -1.5q-1 -1 -1 -2t-4 -4.5t-5 -3.5q-1 -3 -4.5 -10t-3.5 -8q0 -33 11.5 -56.5t30.5 -38t44.5 -21.5t53.5 -7q39 0 71 11t60 30t53.5 44.5t50.5 55.5q1 0 3.5 5t5.5 10.5t5.5 11t2.5 7.5q0 1 0.5 4.5t0.5 5.5q0 6 -3.5 9.5
t-8.5 5.5t-10.5 2.5t-11.5 0.5q0 14 13 19t26 5q15 0 22.5 -10t7.5 -25q0 -28 -15 -56.5t-39 -55t-55.5 -49t-64.5 -39t-65 -26.5t-58 -10q-44 0 -73 14.5t-49 40t-31.5 59t-20.5 71.5zM112 352q0 -21 2 -36q1 -14 2.5 -25t5.5 -11h9q1 0 13 4.5t28.5 11.5t34 14.5
t28.5 11.5q3 1 7.5 4t10.5 5.5t10.5 5.5t7.5 3q-18 5 -39 7.5t-42.5 3.5t-42 1h-35.5zM246 669q0 8 2 16.5t6.5 15.5t12 11.5t17.5 4.5t19.5 -3.5t17 -9.5t12.5 -13.5t5 -16.5q0 -22 -16 -32t-36 -10q-23 0 -31.5 7.5t-8.5 29.5z" />
    <glyph glyph-name="edotaccent" unicode="&#x117;" horiz-adv-x="358" 
d="M26 125q-7 -4 -11 -2t-5.5 6t-2 9.5t-0.5 7.5q0 20 5 24.5t13 6t17 4.5t17 19q12 25 21.5 52.5t23.5 51.5t35.5 39t59.5 15q6 0 13.5 -1t14 -3.5t11 -8t4.5 -14.5q0 -21 -10.5 -37.5t-26 -30t-33.5 -25.5t-33 -23t-25.5 -23t-10.5 -26v-96q0 -11 8.5 -17.5t19.5 -10.5
t23 -6t18 -2q24 0 48 8.5t46.5 21.5t42.5 28.5t38 29.5q6 5 10.5 10.5t9 10.5t10 8.5t14.5 5.5v-4v-5q0 -8 -1.5 -14t-7.5 -12q-22 -25 -47 -47t-53 -39t-59 -27t-66 -10t-54 10t-29.5 29t-14.5 45t-9 56zM155 280q0 2 -3.5 -0.5t-8 -6.5t-6.5 -7.5t0 -3.5q5 -1 12 6t6 12z
M133 515q0 8 2 16.5t6.5 15.5t12 11.5t17.5 4.5t19.5 -3.5t17 -9.5t12.5 -13.5t5 -16.5q0 -22 -16 -32t-36 -10q-23 0 -31.5 7.5t-8.5 29.5z" />
    <glyph glyph-name="Eogonek" unicode="&#x118;" horiz-adv-x="584" 
d="M88 184q-14 7 -20.5 14t-6.5 20q0 7 2.5 12t6 9.5t6.5 9.5t3 12q0 12 0.5 28t-1.5 32.5t-7.5 31t-18.5 23.5q3 1 9.5 7.5l8.5 8.5v2v1v2q0 13 -6.5 18t-15 7t-17.5 4t-13 10q11 15 36 26t56.5 19.5t66 14.5t67.5 10.5t59 6t41 1.5h23q9 0 23.5 -1.5t28.5 -3t24 -2.5
l11 -1l9 -8l-9 -10q-87 -3 -167.5 -11.5t-164.5 -31.5q-1 -2 -2 -8t-2.5 -13t-2.5 -13.5t-1 -8.5v-7q0 -4 0.5 -9t0.5 -9v-7q82 0 162 7.5t162 7.5h12q6 0 10.5 -1.5t7.5 -6t3 -12.5q0 -5 -24.5 -14t-61.5 -20.5t-80.5 -25.5t-80.5 -29t-61.5 -31t-24.5 -31v-3v-1l5 -5
q4 -3 4 -5q0 -1 1 -1v-2l1 -1l-1 -2q-1 -1 -1 -2t-4 -4.5t-5 -3.5l-5 -10q-3 -7 -3 -8q0 -33 11.5 -56.5t30.5 -38t44.5 -21.5t53.5 -7q39 0 71 11t60 30t53.5 44.5t50.5 55.5q1 0 3.5 5t5.5 10.5t5.5 11t2.5 7.5q0 1 0.5 4.5t0.5 5.5q0 6 -3.5 9.5t-8.5 5.5t-10.5 2.5
t-11.5 0.5q0 14 13 19t26 5q15 0 22.5 -10t7.5 -25q0 -28 -15 -56.5t-39 -55t-56 -48.5q-11 -9 -23 -17q-8 -9 -12 -21q-7 -26 8 -64q5 -13 14 -15t19.5 1.5t22.5 9.5t22.5 9t20 0t14.5 -17q2 -14 -11 -24t-31.5 -15.5t-39 -6t-35.5 5.5q-14 3 -24 16t-16 29q-5 11 -3 29.5
t7 36.5l1 2q-32 -16 -63 -25q-32 -10 -58 -10q-44 0 -73 14.5t-49 40t-31.5 59t-20.5 71.5zM112 352q0 -21 2 -36q1 -14 2.5 -25t5.5 -11h9q1 0 13 4.5t28.5 11.5t34 14.5t28.5 11.5q3 1 7.5 4t10.5 5.5t10.5 5.5t7.5 3q-18 5 -39 7.5t-42.5 3.5t-41.5 1h-36z" />
    <glyph glyph-name="eogonek" unicode="&#x119;" horiz-adv-x="358" 
d="M26 125q-7 -4 -11 -2t-5.5 6t-2 9.5t-0.5 7.5q0 20 5 24.5t13 6t17 4.5t17 19q12 25 21.5 52.5t23.5 51.5t35.5 39t59.5 15q6 0 13.5 -1t14 -3.5t11 -8t4.5 -14.5q0 -21 -10.5 -37.5t-26 -30t-33.5 -25.5t-33 -23t-25.5 -23t-10.5 -26v-96q0 -11 8.5 -17.5t19.5 -10.5
t23 -6t18 -2q24 0 48 8.5t46.5 21.5t42.5 28.5t38 29.5q6 5 10.5 10.5t9 10.5t10 8.5t14.5 5.5v-4v-5q0 -8 -1.5 -14t-7.5 -12q-22 -25 -47 -47t-53 -39t-59 -27q-24 -8 -49 -9q-8 -9 -11 -22q-7 -25 8 -64q4 -12 13 -14t19.5 1.5t22.5 9.5t23 9t20.5 0t14.5 -18
q2 -13 -11 -23t-31.5 -16t-39.5 -6t-35 6q-14 3 -24 15.5t-16 29.5q-5 11 -3 29.5t7 36.5q5 14 11 26q-24 1 -39 9q-19 10 -29.5 29t-14.5 45t-9 56zM155 280q0 2 -3.5 -0.5t-8 -6.5t-6.5 -7.5t0 -3.5q5 -1 12 6t6 12z" />
    <glyph glyph-name="Ecaron" unicode="&#x11a;" horiz-adv-x="584" 
d="M88 184q-14 7 -20.5 14t-6.5 20q0 7 2.5 12t6 9.5t6.5 9.5t3 12q0 12 0.5 28t-1.5 32.5t-7.5 31t-18.5 23.5q3 1 9.5 7.5l8.5 8.5v2v1v2q0 13 -6.5 18t-15 7t-17.5 4t-13 10q11 15 36 26t56.5 19.5t66 14.5t67.5 10.5t59 6t41 1.5h23q9 0 23.5 -1.5t28.5 -3t24.5 -2.5
l10.5 -1l9 -8l-9 -10q-87 -3 -167.5 -11.5t-164.5 -31.5q-1 -2 -2 -8t-2.5 -13t-2.5 -13.5t-1 -8.5v-6.5t0.5 -9.5t0.5 -9v-7q82 0 162 7.5t162 7.5h12t10.5 -1.5t7.5 -6t3 -12.5q0 -5 -24.5 -14t-61.5 -20.5t-80.5 -25.5t-80.5 -29t-61.5 -31t-24.5 -31v-3v-1q1 -1 5 -4.5
t4 -5.5q0 -1 1 -1v-2q0 -1 1 -1l-0.5 -0.5t-0.5 -1.5q-1 -1 -1 -2t-4 -4.5t-5 -3.5q-1 -3 -4.5 -10t-3.5 -8q0 -33 11.5 -56.5t30.5 -38t44.5 -21.5t53.5 -7q39 0 71 11t60 30t53.5 44.5t50.5 55.5q1 0 3.5 5t5.5 10.5t5.5 11t2.5 7.5q0 1 0.5 4.5t0.5 5.5q0 6 -3.5 9.5
t-8.5 5.5t-10.5 2.5t-11.5 0.5q0 14 13 19t26 5q15 0 22.5 -10t7.5 -25q0 -28 -15 -56.5t-39 -55t-55.5 -49t-64.5 -39t-65 -26.5t-58 -10q-44 0 -73 14.5t-49 40t-31.5 59t-20.5 71.5zM112 352q0 -21 2 -36q1 -14 2.5 -25t5.5 -11h9q1 0 13 4.5t28.5 11.5t34 14.5
t28.5 11.5q3 1 7.5 4t10.5 5.5t10.5 5.5t7.5 3q-18 5 -39 7.5t-42.5 3.5t-42 1h-35.5zM326 726q12 17 17.5 34.5t11.5 28.5t15.5 11.5t28.5 -16.5q-10 -25 -15.5 -36.5t-8.5 -17t-5 -7.5t-5 -7t-8.5 -15.5t-14.5 -32.5h-4q-6 0 -13.5 3t-12.5 9q-1 -4 -7.5 2.5t-14.5 18
t-16.5 26.5t-15 28.5t-9 24t1 12.5t15 -5.5t33.5 -29.5q0 -1 4 -6t9 -10t9 -9.5t5 -5.5z" />
    <glyph glyph-name="ecaron" unicode="&#x11b;" horiz-adv-x="358" 
d="M26 125q-7 -4 -11 -2t-5.5 6t-2 9.5t-0.5 7.5q0 20 5 24.5t13 6t17 4.5t17 19q12 25 21.5 52.5t23.5 51.5t35.5 39t59.5 15q6 0 13.5 -1t14 -3.5t11 -8t4.5 -14.5q0 -21 -10.5 -37.5t-26 -30t-33.5 -25.5t-33 -23t-25.5 -23t-10.5 -26v-96q0 -11 8.5 -17.5t19.5 -10.5
t23 -6t18 -2q24 0 48 8.5t46.5 21.5t42.5 28.5t38 29.5q6 5 10.5 10.5t9 10.5t10 8.5t14.5 5.5v-4v-5q0 -8 -1.5 -14t-7.5 -12q-22 -25 -47 -47t-53 -39t-59 -27t-66 -10t-54 10t-29.5 29t-14.5 45t-9 56zM155 280q0 2 -3.5 -0.5t-8 -6.5t-6.5 -7.5t0 -3.5q5 -1 12 6t6 12z
M164 460q12 17 17.5 34.5t11.5 28.5t15.5 11.5t28.5 -16.5q-10 -25 -15.5 -36.5t-8.5 -17t-5 -7.5t-5 -7t-8.5 -15.5t-14.5 -32.5h-4q-6 0 -13.5 3t-12.5 9q-1 -4 -7.5 2.5t-14.5 18t-16.5 26.5t-15 28.5t-9 24t1 12.5t15 -5.5t33.5 -29.5q0 -1 4 -6t9 -10t9 -9.5t5 -5.5z
" />
    <glyph glyph-name="Gcircumflex" unicode="&#x11c;" horiz-adv-x="654" 
d="M468 182q-68 -54 -135 -101t-144 -83q-8 2 -15 1t-13.5 -3.5t-14 -4.5t-14.5 -2q-20 0 -38.5 8t-32.5 21.5t-22 31.5t-8 38q0 60 25.5 116.5t63 108t82.5 98t83 85.5l-27 18l9 8q22 -1 40 4.5t34 12.5t32.5 13t36.5 6h12t10.5 -1.5t7 -5.5t2.5 -11q0 -3 -16 -14.5
t-42.5 -30t-60.5 -43.5t-69.5 -56t-69 -66.5t-60.5 -74t-43 -80.5t-16 -85q0 -17 7 -27.5t17.5 -17.5t24 -9.5t26.5 -2.5q44 0 92 23t93 56t84.5 71t67.5 69q6 6 7.5 12t1.5 14q0 2 -0.5 5l-0.5 3q-30 -6 -56 -13.5t-51.5 -16t-50 -18t-51.5 -21.5h-2q0 -1 -3 -1q-8 0 -11 6
t-3 12q0 11 16.5 22.5t38.5 21t44 16.5t33 10q3 1 17.5 5t30.5 8.5t30 8l18 4.5q8 2 14 6.5l12 9t12 8t15 3.5q5 0 9.5 -1t7.5 -8h157q1 0 5 -1t8.5 -2.5t7.5 -3t5 -1.5q0 -1 1 -2v-1.5v-1.5v-1.5v-1.5q-1 -1 -1 -2q-1 -2 -4 -5t-4 -3q-8 0 -26.5 -1.5t-39.5 -3t-39.5 -2.5
t-25.5 -2q-22 -3 -34 -9t-19 -26q-11 -37 -17 -68.5t-8.5 -61.5t-2.5 -62v-70v-24t0.5 -37.5t1 -36.5t0.5 -24q1 -6 5 -21t8.5 -31.5t7.5 -31.5t5 -21q1 -2 1.5 -10.5t0.5 -11.5q-16 0 -27.5 12t-19.5 31t-12.5 42t-7 45t-3.5 40t-1 27q-1 12 -1.5 41.5t-0.5 63t0.5 63
t1.5 41.5zM368 776q-2 0 -6.5 -6t-10.5 -13.5t-10.5 -14t-4.5 -7.5q-26 -31 -39.5 -41.5t-17.5 -7t-1 17.5t10.5 32.5t17.5 39t19.5 36.5t17 24.5t9.5 2.5q5 9 14 13.5t17 4.5h4l18 -45t9 -21.5t6 -9t6 -10t9.5 -24t18.5 -49.5q-15 -15 -24.5 -19.5t-16 -1t-11 13.5t-9 24
t-10.5 30t-15 31z" />
    <glyph glyph-name="gcircumflex" unicode="&#x11d;" horiz-adv-x="306" 
d="M-27 -170q0 11 0.5 24t3 26t7.5 24t16 18q0 -8 1 -28t2.5 -42t2.5 -42.5t2 -27.5q2 -21 10.5 -43.5t19 -45t21.5 -43t19 -34.5q7 -11 20 -15t25 -4q22 0 39.5 17.5t30.5 44.5t23 60t16 64.5t9 57t3 37.5v11t0.5 23.5t0.5 27v21.5q0 47 -1.5 94.5t-16.5 92.5
q-1 0 -2.5 0.5l-1.5 0.5q-7 0 -23 -14t-38 -30.5t-47 -30t-51 -13.5q-17 0 -26.5 7t-14 18t-5.5 24.5t-1 26.5q0 31 14 66.5t37 66.5t54 51t65 20q13 0 23 -5t21 -5q6 0 9.5 3t7 6.5t7.5 6.5t10 3q18 0 20.5 -8t2.5 -25q0 -61 -2 -120.5l-4 -119t-3 -120t1 -123.5
q-4 -16 -9.5 -43t-14 -57t-20.5 -60t-27.5 -55t-36 -40.5t-45.5 -15.5q-24 0 -45 14.5t-38.5 37.5t-30.5 52t-22 58.5t-13.5 57t-4.5 47.5zM52 130q0 -18 4.5 -22.5t22.5 -4.5q21 0 46.5 14t48.5 35t38.5 45.5t15.5 45.5q0 25 -7 40t-34 15t-52 -16.5t-43.5 -42t-29 -55
t-10.5 -54.5zM176 517q-2 0 -6.5 -6t-10.5 -13.5t-10.5 -14t-4.5 -7.5q-26 -31 -39.5 -41.5t-17.5 -7t-1 17.5t10.5 32.5t17.5 39t19.5 36.5t17 24.5t9.5 2.5q5 9 14 13.5t17 4.5h4l18 -45t9 -21.5t6 -9t6 -10t9.5 -24t18.5 -49.5q-15 -15 -24.5 -19.5t-16 -1t-11 13.5
t-9 24t-10.5 30t-15 31z" />
    <glyph glyph-name="Gbreve" unicode="&#x11e;" horiz-adv-x="654" 
d="M468 182q-68 -54 -135 -101t-144 -83q-8 2 -15 1t-13.5 -3.5t-14 -4.5t-14.5 -2q-20 0 -38.5 8t-32.5 21.5t-22 31.5t-8 38q0 60 25.5 116.5t63 108t82.5 98t83 85.5l-27 18l9 8q22 -1 40 4.5t34 12.5t32.5 13t36.5 6h12t10.5 -1.5t7 -5.5t2.5 -11q0 -3 -16 -14.5
t-42.5 -30t-60.5 -43.5t-69.5 -56t-69 -66.5t-60.5 -74t-43 -80.5t-16 -85q0 -17 7 -27.5t17.5 -17.5t24 -9.5t26.5 -2.5q44 0 92 23t93 56t84.5 71t67.5 69q6 6 7.5 12t1.5 14q0 2 -0.5 5l-0.5 3q-30 -6 -56 -13.5t-51.5 -16t-50 -18t-51.5 -21.5h-2q0 -1 -3 -1q-8 0 -11 6
t-3 12q0 11 16.5 22.5t38.5 21t44 16.5t33 10q3 1 17.5 5t30.5 8.5t30 8l18 4.5q8 2 14 6.5l12 9t12 8t15 3.5q5 0 9.5 -1t7.5 -8h157q1 0 5 -1t8.5 -2.5t7.5 -3t5 -1.5q0 -1 1 -2v-1.5v-1.5v-1.5v-1.5q-1 -1 -1 -2q-1 -2 -4 -5t-4 -3q-8 0 -26.5 -1.5t-39.5 -3t-39.5 -2.5
t-25.5 -2q-22 -3 -34 -9t-19 -26q-11 -37 -17 -68.5t-8.5 -61.5t-2.5 -62v-70v-24t0.5 -37.5t1 -36.5t0.5 -24q1 -6 5 -21t8.5 -31.5t7.5 -31.5t5 -21q1 -2 1.5 -10.5t0.5 -11.5q-16 0 -27.5 12t-19.5 31t-12.5 42t-7 45t-3.5 40t-1 27q-1 12 -1.5 41.5t-0.5 63t0.5 63
t1.5 41.5zM434 784q-1 -44 -17 -66.5t-38.5 -30t-45.5 -1.5t-38.5 21.5t-19 38t15.5 48.5q22 -41 37.5 -55t27.5 -12.5t21 13t18 24t18 20t21 0.5z" />
    <glyph glyph-name="gbreve" unicode="&#x11f;" horiz-adv-x="306" 
d="M-27 -170q0 11 0.5 24t3 26t7.5 24t16 18q0 -8 1 -28t2.5 -42t2.5 -42.5t2 -27.5q2 -21 10.5 -43.5t19 -45t21.5 -43t19 -34.5q7 -11 20 -15t25 -4q22 0 39.5 17.5t30.5 44.5t23 60t16 64.5t9 57t3 37.5v11t0.5 23.5t0.5 27v21.5q0 47 -1.5 94.5t-16.5 92.5
q-1 0 -2.5 0.5l-1.5 0.5q-7 0 -23 -14t-38 -30.5t-47 -30t-51 -13.5q-17 0 -26.5 7t-14 18t-5.5 24.5t-1 26.5q0 31 14 66.5t37 66.5t54 51t65 20q13 0 23 -5t21 -5q6 0 9.5 3t7 6.5t7.5 6.5t10 3q18 0 20.5 -8t2.5 -25q0 -61 -2 -120.5l-4 -119t-3 -120t1 -123.5
q-4 -16 -9.5 -43t-14 -57t-20.5 -60t-27.5 -55t-36 -40.5t-45.5 -15.5q-24 0 -45 14.5t-38.5 37.5t-30.5 52t-22 58.5t-13.5 57t-4.5 47.5zM52 130q0 -18 4.5 -22.5t22.5 -4.5q21 0 46.5 14t48.5 35t38.5 45.5t15.5 45.5q0 25 -7 40t-34 15t-52 -16.5t-43.5 -42t-29 -55
t-10.5 -54.5zM257 541q-1 -44 -17 -66.5t-38.5 -30t-45.5 -1.5t-38.5 21.5t-19 38t15.5 48.5q22 -41 37.5 -55t27.5 -12.5t21 13t18 24t18 20t21 0.5z" />
    <glyph glyph-name="Gdotaccent" unicode="&#x120;" horiz-adv-x="654" 
d="M468 182q-68 -54 -135 -101t-144 -83q-8 2 -15 1t-13.5 -3.5t-14 -4.5t-14.5 -2q-20 0 -38.5 8t-32.5 21.5t-22 31.5t-8 38q0 60 25.5 116.5t63 108t82.5 98t83 85.5l-27 18l9 8q22 -1 40 4.5t34 12.5t32.5 13t36.5 6h12t10.5 -1.5t7 -5.5t2.5 -11q0 -3 -16 -14.5
t-42.5 -30t-60.5 -43.5t-69.5 -56t-69 -66.5t-60.5 -74t-43 -80.5t-16 -85q0 -17 7 -27.5t17.5 -17.5t24 -9.5t26.5 -2.5q44 0 92 23t93 56t84.5 71t67.5 69q6 6 7.5 12t1.5 14q0 2 -0.5 5l-0.5 3q-30 -6 -56 -13.5t-51.5 -16t-50 -18t-51.5 -21.5h-2q0 -1 -3 -1q-8 0 -11 6
t-3 12q0 11 16.5 22.5t38.5 21t44 16.5t33 10q3 1 17.5 5t30.5 8.5t30 8l18 4.5q8 2 14 6.5l12 9t12 8t15 3.5q5 0 9.5 -1t7.5 -8h157q1 0 5 -1t8.5 -2.5t7.5 -3t5 -1.5q0 -1 1 -2v-1.5v-1.5v-1.5v-1.5q-1 -1 -1 -2q-1 -2 -4 -5t-4 -3q-8 0 -26.5 -1.5t-39.5 -3t-39.5 -2.5
t-25.5 -2q-22 -3 -34 -9t-19 -26q-11 -37 -17 -68.5t-8.5 -61.5t-2.5 -62v-70v-24t0.5 -37.5t1 -36.5t0.5 -24q1 -6 5 -21t8.5 -31.5t7.5 -31.5t5 -21q1 -2 1.5 -10.5t0.5 -11.5q-16 0 -27.5 12t-19.5 31t-12.5 42t-7 45t-3.5 40t-1 27q-1 12 -1.5 41.5t-0.5 63t0.5 63
t1.5 41.5zM280 669q0 8 2 16.5t6.5 15.5t12 11.5t17.5 4.5t19.5 -3.5t17 -9.5t12.5 -13.5t5 -16.5q0 -22 -16 -32t-36 -10q-23 0 -31.5 7.5t-8.5 29.5z" />
    <glyph glyph-name="gdotaccent" unicode="&#x121;" horiz-adv-x="306" 
d="M-27 -170q0 11 0.5 24t3 26t7.5 24t16 18q0 -8 1 -28t2.5 -42t2.5 -42.5t2 -27.5q2 -21 10.5 -43.5t19 -45t21.5 -43t19 -34.5q7 -11 20 -15t25 -4q22 0 39.5 17.5t30.5 44.5t23 60t16 64.5t9 57t3 37.5v11t0.5 23.5t0.5 27v21.5q0 47 -1.5 94.5t-16.5 92.5
q-1 0 -2.5 0.5l-1.5 0.5q-7 0 -23 -14t-38 -30.5t-47 -30t-51 -13.5q-17 0 -26.5 7t-14 18t-5.5 24.5t-1 26.5q0 31 14 66.5t37 66.5t54 51t65 20q13 0 23 -5t21 -5q6 0 9.5 3t7 6.5t7.5 6.5t10 3q18 0 20.5 -8t2.5 -25q0 -61 -2 -120.5l-4 -119t-3 -120t1 -123.5
q-4 -16 -9.5 -43t-14 -57t-20.5 -60t-27.5 -55t-36 -40.5t-45.5 -15.5q-24 0 -45 14.5t-38.5 37.5t-30.5 52t-22 58.5t-13.5 57t-4.5 47.5zM52 130q0 -18 4.5 -22.5t22.5 -4.5q21 0 46.5 14t48.5 35t38.5 45.5t15.5 45.5q0 25 -7 40t-34 15t-52 -16.5t-43.5 -42t-29 -55
t-10.5 -54.5zM109 472q0 8 2 16.5t6.5 15.5t12 11.5t17.5 4.5t19.5 -3.5t17 -9.5t12.5 -13.5t5 -16.5q0 -22 -16 -32t-36 -10q-23 0 -31.5 7.5t-8.5 29.5z" />
    <glyph glyph-name="Gcommaaccent" unicode="&#x122;" horiz-adv-x="654" 
d="M468 182q-68 -54 -135 -101t-144 -83q-8 2 -15 1t-13.5 -3.5t-14 -4.5t-14.5 -2q-20 0 -38.5 8t-32.5 21.5t-22 31.5t-8 38q0 60 25.5 116.5t63 108t82.5 98t83 85.5l-27 18l9 8q22 -1 40 4.5t34 12.5t32.5 13t36.5 6h12t10.5 -1.5t7 -5.5t2.5 -11q0 -3 -16 -14.5
t-42.5 -30t-60.5 -43.5t-69.5 -56t-69 -66.5t-60.5 -74t-43 -80.5t-16 -85q0 -17 7 -27.5t17.5 -17.5t24 -9.5t26.5 -2.5q44 0 92 23t93 56t84.5 71t67.5 69q6 6 7.5 12t1.5 14q0 2 -0.5 5l-0.5 3q-30 -6 -56 -13.5t-51.5 -16t-50 -18t-51.5 -21.5h-2q0 -1 -3 -1q-8 0 -11 6
t-3 12q0 11 16.5 22.5t38.5 21t44 16.5t33 10q3 1 17.5 5t30.5 8.5t30 8l18 4.5q8 2 14 6.5l12 9t12 8t15 3.5q5 0 9.5 -1t7.5 -8h157q1 0 5 -1t8.5 -2.5t7.5 -3t5 -1.5q0 -1 1 -2v-1.5v-1.5v-1.5v-1.5q-1 -1 -1 -2q-1 -2 -4 -5t-4 -3q-8 0 -26.5 -1.5t-39.5 -3t-39.5 -2.5
t-25.5 -2q-22 -3 -34 -9t-19 -26q-11 -37 -17 -68.5t-8.5 -61.5t-2.5 -62v-70v-24t0.5 -37.5t1 -36.5t0.5 -24q1 -6 5 -21t8.5 -31.5t7.5 -31.5t5 -21q1 -2 1.5 -10.5t0.5 -11.5q-16 0 -27.5 12t-19.5 31t-12.5 42t-7 45t-3.5 40t-1 27q-1 12 -1.5 41.5t-0.5 63t0.5 63
t1.5 41.5zM329 -154q0 14 -1 22.5t-4 13.5t-7 10.5t-9 14.5q0 1 -0.5 6.5t-0.5 6.5q0 10 5 21t17 11q11 0 19 -11t14 -26.5t8.5 -32t2.5 -28.5q0 -20 -6.5 -39.5t-18.5 -35t-29 -25t-39 -9.5q0 16 8 27t17 21.5t16.5 22.5t7.5 30z" />
    <glyph glyph-name="Hcircumflex" unicode="&#x124;" horiz-adv-x="488" 
d="M376 454q-28 -15 -57 -27.5t-58 -24.5t-57.5 -24.5t-55.5 -28.5v-7.5v-12v-12v-7.5q0 -47 3.5 -95t14.5 -93q0 -1 3.5 -8.5t5.5 -9.5v-4v-4q0 -6 -3 -12.5t-11 -6.5q-10 0 -17.5 13t-13 32.5t-9 42t-5 42t-2 33l-0.5 13.5q-2 8 -3.5 19.5t-2.5 22.5t-2 19l-1 8l-9 13h-70
l-8 23q14 8 27 11.5t22.5 9t15 14t5.5 25.5q0 21 -5.5 42.5t-12 42t-12.5 41.5t-6 40q0 7 1.5 15t4.5 14.5t7.5 11t13.5 4.5q13 0 20 -17t11 -42.5t6 -54.5t5.5 -54.5t9 -42.5t17.5 -17q10 0 16.5 2.5t19.5 6.5q12 5 31.5 11.5t41.5 15t44.5 19t41.5 24t32.5 28.5t17.5 33
q1 9 1.5 27.5t3.5 37.5t11 33.5t24 14.5q7 0 11.5 -6t7 -14.5t2.5 -16.5v-13v-6.5v-9v-8v-4.5l-3 -48t-4.5 -72.5t-5 -85.5t-5.5 -85t-5 -72t-4 -47q0 -5 1.5 -17.5t3 -26.5t3 -26.5t1.5 -17.5q2 -11 7 -20.5t9.5 -19.5l9 -20t4.5 -22q-15 0 -29 14.5t-24.5 34t-17.5 39
t-7 30.5v340h-12zM285 776q-2 0 -6.5 -6t-10.5 -13.5t-10.5 -14t-4.5 -7.5q-26 -31 -39.5 -41.5t-17.5 -7t-1 17.5t10.5 32.5t17.5 39t19.5 36.5t17 24.5t9.5 2.5q5 9 14 13.5t17 4.5h4l18 -45t9 -21.5t6 -9t6 -10t9.5 -24t18.5 -49.5q-15 -15 -24.5 -19.5t-16 -1t-11 13.5
t-9 24t-10.5 30t-15 31z" />
    <glyph glyph-name="hcircumflex" unicode="&#x125;" horiz-adv-x="325" 
d="M21 37q0 54 8 106.5t18.5 105t18.5 104.5t8 105v10t-0.5 14.5t-0.5 14.5v9q1 11 -4 15t-13 4q-1 0 -4 -1t-5 -1q-4 -5 -7 -7l-6 -4t-7 -4t-9 -6q-7 -6 -16.5 -8.5t-18.5 -2.5v28l64 57q6 6 13 7.5t14 1.5q17 0 26 -14.5t13.5 -34t4.5 -39v-28.5v-11v-13.5v-11.5v-6
q-1 -4 -3.5 -19.5t-6 -36t-7.5 -44t-8 -44t-6.5 -36t-3.5 -21.5v-3v-5q2 1 5 4t3 4q2 3 8.5 13.5t13.5 22.5t13.5 22t8.5 12q4 5 13.5 15t21 21t21 20.5t14.5 13.5q1 0 8 0.5t9 0.5q23 0 31.5 -21.5t10 -54t-1.5 -70t-2 -69.5t9 -53.5t32 -21.5q11 0 19 6t16 13t16.5 13
t20.5 6q0 -15 -8 -30t-20 -27t-27.5 -18.5t-29.5 -6.5q-29 0 -42.5 18t-18 43t-4.5 52t-1 46q-1 12 -2 31.5t-2.5 37.5t-2.5 31.5l-1 13.5l-9 8q-27 -24 -48 -50.5t-36 -56t-26.5 -62t-21.5 -67.5q-3 -12 -3.5 -22.5t-2.5 -20t-6 -18t-14 -17.5q-19 9 -22.5 16t-3.5 21z
M246 601q-2 0 -6.5 -6t-10.5 -13.5t-10.5 -14t-4.5 -7.5q-26 -31 -39.5 -41.5t-17.5 -7t-1 17.5t10.5 32.5t17.5 39t19.5 36.5t17 24.5t9.5 2.5q5 9 14 13.5t17 4.5h4l18 -45t9 -21.5t6 -9t6 -10t9.5 -24t18.5 -49.5q-15 -15 -24.5 -19.5t-16 -1t-11 13.5t-9 24t-10.5 30
t-15 31z" />
    <glyph glyph-name="Itilde" unicode="&#x128;" horiz-adv-x="130" 
d="M35 166q-7 96 -12.5 186t-5.5 185v9t0.5 14.5t0.5 14.5v9q1 7 7 17.5t14 10.5q7 0 11.5 -6t6.5 -14t3 -15t1 -9q1 -8 2.5 -24.5t2.5 -34.5t2.5 -34t1.5 -21v-27v-47v-57.5v-57.5v-46.5v-26.5q0 -26 7.5 -50.5t15.5 -49t15 -49t7 -49.5q-12 0 -22.5 11t-19 27.5t-15 36.5
t-11.5 39t-8 34.5t-4 23.5zM229 779q1 -12 -1 -33t-6.5 -43t-10.5 -38.5t-13 -17.5q-16 3 -33.5 16t-35.5 29.5t-36.5 33.5t-36.5 29t-36 15t-35 -7q-11 -41 -24.5 -63t-21 -19t-4.5 32t24 89q23 18 46 17t44.5 -12.5t41 -30t37 -36.5t32.5 -31.5t28 -13.5q2 0 4.5 11.5
t4 26.5t2 30t-0.5 23z" />
    <glyph glyph-name="itilde" unicode="&#x129;" horiz-adv-x="237" 
d="M84 140q0 26 3 51.5t6.5 51t6.5 51t3 52.5q0 6 -2.5 13.5t-12.5 7.5q-13 0 -17 -2t-5.5 -5t-5 -7t-15.5 -8h-5q-21 0 -21 22q0 6 13.5 19t31.5 24.5t34 20t21 5.5q2 0 6 -3.5t8 -8t7.5 -8.5t4.5 -6v-8q0 -6 0.5 -13t0.5 -14v-9q0 -29 -4 -57.5t-9.5 -57.5t-9.5 -58
t-4 -58q0 -5 1 -20t4.5 -31t10.5 -28.5t19 -12.5q24 0 36 6.5t21 14.5t19.5 14.5t29.5 6.5q0 -42 -31 -64t-79 -22q-25 0 -38 16t-19.5 38.5t-7.5 46.5t-1 40zM280 625q1 -12 -1 -33t-6.5 -43t-10.5 -38.5t-12 -17.5q-17 3 -34.5 16t-35.5 29.5t-36.5 33.5t-36.5 29t-36 15
t-34 -7q-12 -41 -25.5 -63t-21 -19t-4.5 32t24 89q24 18 46.5 17t44 -12.5t41 -30t37 -36.5t32.5 -31.5t28 -13.5q2 0 5 11.5t4.5 26.5t1.5 30t-1 23z" />
    <glyph glyph-name="imacron" unicode="&#x12b;" horiz-adv-x="237" 
d="M84 140q0 26 3 51.5t6.5 51t6.5 51t3 52.5q0 6 -2.5 13.5t-12.5 7.5q-13 0 -17 -2t-5.5 -5t-5 -7t-15.5 -8h-5q-21 0 -21 22q0 6 13.5 19t31.5 24.5t34 20t21 5.5q2 0 6 -3.5t8 -8t7.5 -8.5t4.5 -6v-8q0 -6 0.5 -13t0.5 -14v-9q0 -29 -4 -57.5t-9.5 -57.5t-9.5 -58
t-4 -58q0 -5 1 -20t4.5 -31t10.5 -28.5t19 -12.5q24 0 36 6.5t21 14.5t19.5 14.5t29.5 6.5q0 -42 -31 -64t-79 -22q-25 0 -38 16t-19.5 38.5t-7.5 46.5t-1 40zM-29 533q0 11 3 16t15 10q32 -2 60.5 -2.5t57.5 0.5t59 4t66 8h4q8 0 19 -6t11 -15q0 -10 -2 -20.5t-14 -10.5
q-9 0 -16.5 4.5t-15.5 4.5h-4q-29 -6 -46.5 -9.5t-29.5 -5t-20.5 -1t-21 1.5t-31.5 2t-49 1h-8q-4 0 -10 0.5t-10 0.5h-8q-7 3 -8 7.5t-1 9.5z" />
    <glyph glyph-name="Ibreve" unicode="&#x12c;" horiz-adv-x="130" 
d="M35 166q-7 96 -12.5 186t-5.5 185v9t0.5 14.5t0.5 14.5v9q1 7 7 17.5t14 10.5q7 0 11.5 -6t6.5 -14t3 -15t1 -9q1 -8 2.5 -24.5t2.5 -34.5t2.5 -34t1.5 -21v-27v-47v-57.5v-57.5v-46.5v-26.5q0 -26 7.5 -50.5t15.5 -49t15 -49t7 -49.5q-12 0 -22.5 11t-19 27.5t-15 36.5
t-11.5 39t-8 34.5t-4 23.5zM175 784q-1 -44 -17 -66.5t-38.5 -30t-45.5 -1.5t-38.5 21.5t-19 38t15.5 48.5q22 -41 37.5 -55t27.5 -12.5t21 13t18 24t18 20t21 0.5z" />
    <glyph glyph-name="ibreve" unicode="&#x12d;" horiz-adv-x="237" 
d="M84 140q0 26 3 51.5t6.5 51t6.5 51t3 52.5q0 6 -2.5 13.5t-12.5 7.5q-13 0 -17 -2t-5.5 -5t-5 -7t-15.5 -8h-5q-21 0 -21 22q0 6 13.5 19t31.5 24.5t34 20t21 5.5q2 0 6 -3.5t8 -8t7.5 -8.5t4.5 -6v-8q0 -6 0.5 -13t0.5 -14v-9q0 -29 -4 -57.5t-9.5 -57.5t-9.5 -58
t-4 -58q0 -5 1 -20t4.5 -31t10.5 -28.5t19 -12.5q24 0 36 6.5t21 14.5t19.5 14.5t29.5 6.5q0 -42 -31 -64t-79 -22q-25 0 -38 16t-19.5 38.5t-7.5 46.5t-1 40zM226 630q-1 -32 -11 -53t-24 -32.5t-31.5 -14t-34 1.5t-30.5 14.5t-21 25t-5.5 32t14.5 36.5q22 -41 37.5 -55
t27.5 -12.5t21 13t18 24t18 20t21 0.5z" />
    <glyph glyph-name="Iogonek" unicode="&#x12e;" horiz-adv-x="130" 
d="M115 13l-1 -1q1 -9 1 -18q-10 0 -19 7q-8 -9 -12 -23q-7 -25 8 -64q5 -12 14 -14t19.5 1.5t22.5 9.5t22.5 9t20 0t14.5 -18q2 -13 -11 -23t-31.5 -16t-39 -6t-35.5 6q-14 3 -24 15.5t-16 29.5q-5 11 -3 29.5t7.5 36.5t13.5 31q7 12 13 16q-3 5 -6 11q-8 17 -14.5 37
t-11.5 39t-8 34.5t-4 23.5q-7 96 -12.5 186t-5.5 185v9q0 7 0.5 14.5t0.5 14.5v9q1 7 7 17.5t14 10.5q7 0 11.5 -6t6.5 -14t3 -15t1 -9q1 -8 2.5 -24.5t2.5 -34.5t2.5 -34t1.5 -21v-262q0 -26 7.5 -50.5t15.5 -49t15 -49.5q4 -15 6 -30h1z" />
    <glyph glyph-name="iogonek" unicode="&#x12f;" horiz-adv-x="237" 
d="M84 140q0 26 3 51.5t6.5 51t6.5 51t3 52.5q0 6 -2.5 13.5t-12.5 7.5q-13 0 -17 -2t-5.5 -5t-5 -7t-15.5 -8h-5q-21 0 -21 22q0 6 13.5 19t31.5 24.5t34 20t21 5.5q2 0 6 -3.5t8 -8t7.5 -8.5t4.5 -6v-8q0 -6 0.5 -13t0.5 -14v-9q0 -29 -4 -57.5t-9.5 -57.5t-9.5 -58
t-4 -58q0 -5 1 -20t4.5 -31t10.5 -28.5t19 -12.5q24 0 36 6.5t21 14.5t19.5 14.5t29.5 6.5q0 -42 -31 -64q-26 -18 -63 -21q-5 -8 -8 -18q-7 -26 8 -64q5 -13 14 -14.5t19.5 1.5t22.5 9t23 9t20 0t15 -17q1 -13 -11.5 -23.5t-31.5 -16t-39.5 -6t-34.5 5.5q-15 3 -25 16
t-16 29q-4 12 -2.5 30t7.5 36q3 13 9 24q-15 3 -24 14q-13 16 -19.5 38.5t-7.5 46.5t-1 40zM94 558q0 11 3.5 17t16.5 6q9 0 12.5 -6.5t3.5 -16.5q0 -9 -3.5 -15.5t-12.5 -6.5q-13 0 -16.5 5.5t-3.5 16.5z" />
    <glyph glyph-name="Idotaccent" unicode="&#x130;" horiz-adv-x="130" 
d="M35 166q-7 96 -12.5 186t-5.5 185v9t0.5 14.5t0.5 14.5v9q1 7 7 17.5t14 10.5q7 0 11.5 -6t6.5 -14t3 -15t1 -9q1 -8 2.5 -24.5t2.5 -34.5t2.5 -34t1.5 -21v-27v-47v-57.5v-57.5v-46.5v-26.5q0 -26 7.5 -50.5t15.5 -49t15 -49t7 -49.5q-12 0 -22.5 11t-19 27.5t-15 36.5
t-11.5 39t-8 34.5t-4 23.5zM21 669q0 8 2 16.5t6.5 15.5t12 11.5t17.5 4.5t19.5 -3.5t17 -9.5t12.5 -13.5t5 -16.5q0 -22 -16 -32t-36 -10q-23 0 -31.5 7.5t-8.5 29.5z" />
    <glyph glyph-name="dotlessi" unicode="&#x131;" horiz-adv-x="237" 
d="M84 140q0 26 3 51.5t6.5 51t6.5 51t3 52.5q0 6 -2.5 13.5t-12.5 7.5q-13 0 -17 -2t-5.5 -5t-5 -7t-15.5 -8h-5q-21 0 -21 22q0 6 13.5 19t31.5 24.5t34 20t21 5.5q2 0 6 -3.5t8 -8t7.5 -8.5t4.5 -6v-8q0 -6 0.5 -13t0.5 -14v-9q0 -29 -4 -57.5t-9.5 -57.5t-9.5 -58
t-4 -58q0 -5 1 -20t4.5 -31t10.5 -28.5t19 -12.5q24 0 36 6.5t21 14.5t19.5 14.5t29.5 6.5q0 -42 -31 -64t-79 -22q-25 0 -38 16t-19.5 38.5t-7.5 46.5t-1 40z" />
    <glyph glyph-name="Jcircumflex" unicode="&#x134;" horiz-adv-x="550" 
d="M244 -301q0 22 1 47t5.5 50.5t13.5 49t24 41.5q10 11 32.5 29.5t46.5 39.5t42.5 40.5t18.5 34.5q0 3 -0.5 11t-0.5 11q-12 2 -35 5t-52 7.5t-61.5 9t-61.5 9t-52 7.5t-35 5q-6 1 -22 2.5t-34 3t-34 2.5t-23 1q-7 2 -8.5 7.5t-1.5 11.5q0 9 3 10.5t16 4.5q5 3 25.5 9
t44 13.5t44 14t26.5 8.5q15 5 37.5 13.5t46.5 20t48 25t43.5 29.5t31.5 33t12 36q0 25 -3 49t-7 48.5t-7 48.5t-3 48q0 10 2 19t17 14q19 -12 28 -29.5t13.5 -38.5t8 -42t11.5 -39l30 -401h57q-4 -7 -12.5 -11.5t-17.5 -8t-15.5 -8t-6.5 -11.5q0 -42 2.5 -84.5t6 -84.5
t6.5 -84.5t3 -84.5v-30t-0.5 -36t-0.5 -31.5v-14.5q-1 -14 -2 -34t-4.5 -42.5t-9.5 -45.5t-15 -41.5t-23 -31.5t-33 -14q-43 32 -74.5 76t-52 94t-30 103.5t-9.5 105.5zM277 -293q0 -45 7 -91.5t22.5 -91.5t41 -84t62.5 -69h2h2q10 0 17 12t11.5 28.5t7 32t4.5 23.5
q0 6 1.5 18t3 25t2.5 23t1 13v15t0.5 30t0.5 34.5v27.5q0 73 -1.5 147.5t-16.5 146.5q-1 3 -4 10t-5 8h-1q-1 0 -2 0.5t-2 0.5q-26 0 -47.5 -14t-38.5 -36.5t-29.5 -51.5t-21 -57.5t-13 -55t-4.5 -44.5zM174 124q26 0 52 -3t51.5 -6.5t51 -6.5t51.5 -3q12 0 19 1t19 8
q0 3 0.5 12.5t0.5 12.5q0 6 -0.5 15.5t-0.5 11.5q-1 11 -3.5 27t-5.5 31.5t-5 26.5t-3 11h-17q-50 -35 -102.5 -65.5t-107.5 -57.5v-15zM316 776q-2 0 -6.5 -6t-10.5 -13.5t-10.5 -14t-4.5 -7.5q-26 -31 -39.5 -41.5t-17.5 -7t-1 17.5t10.5 32.5t17.5 39t19.5 36.5t17 24.5
t9.5 2.5q5 9 14 13.5t17 4.5h4l18 -45t9 -21.5t6 -9t6 -10t9.5 -24t18.5 -49.5q-15 -15 -24.5 -19.5t-16 -1t-11 13.5t-9 24t-10.5 30t-15 31z" />
    <glyph glyph-name="jcircumflex" unicode="&#x135;" horiz-adv-x="226" 
d="M-281 -143q0 18 1 32t9 32q3 -54 13.5 -100.5t30.5 -86.5t49.5 -75.5t72.5 -68.5q21 -16 47.5 -26t52.5 -10q31 0 53.5 19.5t38 51t25 69.5t15 76.5t8 71.5t4.5 53q0 5 3 27t6 47t6 46.5t3 27.5v16.5t0.5 30t0.5 31.5v43q0 11 -0.5 22.5t-0.5 20.5v11l-9 17
q-12 -6 -26 -17.5t-28 -23.5t-28 -21t-26 -9q-8 0 -15.5 2t-7.5 13q0 15 16 31t38 29.5t45 22.5t36 9h6q5 0 10 -0.5t9 -0.5h6q7 -5 10.5 -12t6.5 -14q0 -5 0.5 -18t1 -27.5t0.5 -28.5v-41q0 -14 -0.5 -29t-1 -26t-0.5 -13q-1 -9 -4 -33.5t-8 -57.5t-10.5 -71.5t-11 -74
t-10.5 -65.5t-8 -47q-5 -29 -12.5 -61.5t-22 -60t-38 -45.5t-59.5 -18q-66 0 -120.5 27.5t-93.5 73.5t-61 106t-22 123zM161 496q-1 0 -6 -6t-10.5 -13.5t-10 -14t-5.5 -7.5q-26 -31 -39.5 -41.5t-17.5 -7t-1 17.5t10.5 32.5t17.5 39t19.5 36.5t17 24.5t9.5 2.5q5 9 14 13.5
t17 4.5h5q11 -30 17 -45t9.5 -21.5t6 -9t6 -10t9.5 -24l18 -49.5q-15 -15 -24.5 -19.5t-16 -1t-11 13.5t-9 24t-10.5 30t-15 31z" />
    <glyph glyph-name="Kcommaaccent" unicode="&#x136;" horiz-adv-x="506" 
d="M26 523q0 12 4 15.5t13 3.5q12 0 17.5 -8t9.5 -20q0 -12 -0.5 -37t-0.5 -56.5v-66.5v-67t0.5 -57.5t0.5 -37.5q0 -5 1 -20t2 -31.5t2.5 -31.5t2.5 -21q1 -3 4.5 -10t5.5 -8q0 -1 1 -1h2q6 0 20.5 23t33 59t41 80t45 87t44 79t39.5 57h2.5h2.5q9 0 11 -7.5t2 -15.5
q0 -25 -14 -51t-30.5 -57t-30.5 -66t-14 -78v-9.5t0.5 -14.5t0.5 -15v-10q7 -25 28.5 -41t49.5 -25t59.5 -13t57.5 -6t43 -5t17 -9q0 -3 -1 -5q-24 -9 -46 -9h-46q-53 0 -86.5 6t-56 22.5t-38.5 45.5t-33 75q-12 -7 -20 -22t-14.5 -33.5t-12 -38.5t-13.5 -36t-20 -26.5
t-29 -10.5q-16 0 -26 16t-15 36.5t-6.5 39t-1.5 23.5zM255 -154q0 14 -1 22.5t-4 13.5t-7 10.5t-9 14.5q0 1 -0.5 6.5t-0.5 6.5q0 10 5 21t17 11q11 0 19 -11t14 -26.5t8.5 -32t2.5 -28.5q0 -20 -6.5 -39.5t-18.5 -35t-29 -25t-39 -9.5q0 16 8 27t17 21.5t16.5 22.5t7.5 30z
" />
    </font>
</defs>
</svg>
